<svg width="26" height="26" viewBox="0 0 26 26" fill="none" xmlns="http://www.w3.org/2000/svg">
<circle cx="13" cy="13" r="13" fill="#D8F892"/>
<path d="M14.3651 7.40971C14.4629 8.50244 13.6564 9.46761 12.5637 9.56549C11.471 9.66337 10.5058 8.85689 10.4079 7.76416C10.3101 6.67144 11.1166 5.70627 12.2093 5.60839C13.302 5.51051 14.2672 6.31699 14.3651 7.40971Z" fill="#2E3553"/>
<path fill-rule="evenodd" clip-rule="evenodd" d="M18.0076 7.86796L7.24866 8.80924C7.13863 8.81887 7.05723 8.91588 7.06686 9.02591L8.00814 19.7848C8.01776 19.8949 8.11477 19.9762 8.22481 19.9666L18.9837 19.0253C19.0937 19.0157 19.1751 18.9187 19.1655 18.8087L18.2242 8.04977C18.2146 7.93973 18.1176 7.85833 18.0076 7.86796ZM7.19637 8.21153C6.75622 8.25003 6.43063 8.63806 6.46914 9.07821L7.41042 19.8371C7.44893 20.2773 7.83695 20.6028 8.2771 20.5643L19.036 19.6231C19.4761 19.5845 19.8017 19.1965 19.7632 18.7564L18.822 7.99747C18.7834 7.55733 18.3954 7.23174 17.9553 7.27024L7.19637 8.21153Z" fill="#2E3553"/>
<path d="M8.43476 13.4414C8.41551 13.2214 8.57831 13.0274 8.79838 13.0081L15.345 12.4354C15.565 12.4161 15.759 12.5789 15.7783 12.799C15.7976 13.019 15.6348 13.2131 15.4147 13.2323L8.86811 13.8051C8.64803 13.8243 8.45402 13.6615 8.43476 13.4414Z" fill="#2E3553"/>
<path d="M10.4348 15.4414C10.4155 15.2214 10.5783 15.0274 10.7984 15.0081L17.345 14.4354C17.565 14.4161 17.759 14.5789 17.7783 14.799C17.7976 15.019 17.6348 15.2131 17.4147 15.2323L10.8681 15.8051C10.648 15.8243 10.454 15.6615 10.4348 15.4414Z" fill="#2E3553"/>
</svg>
