<svg width="26" height="26" viewBox="0 0 26 26" fill="none" xmlns="http://www.w3.org/2000/svg">
<circle cx="13" cy="13" r="13" fill="#F8DDF4"/>
<path d="M7.09082 14.1819C7.09082 11.9534 7.09082 10.8392 7.78311 10.1469C8.47541 9.45459 9.58964 9.45459 11.8181 9.45459H14.1817C16.4102 9.45459 17.5244 9.45459 18.2167 10.1469C18.909 10.8392 18.909 11.9534 18.909 14.1819C18.909 16.4103 18.909 17.5246 18.2167 18.2168C17.5244 18.9091 16.4102 18.9091 14.1817 18.9091H11.8181C9.58964 18.9091 8.47541 18.9091 7.78311 18.2168C7.09082 17.5246 7.09082 16.4103 7.09082 14.1819Z" stroke="#2E3553" stroke-width="0.5"/>
<path d="M15.3635 9.45446C15.3635 8.34023 15.3635 7.78311 15.0174 7.43697C14.6712 7.09082 14.1141 7.09082 12.9999 7.09082C11.8856 7.09082 11.3285 7.09082 10.9824 7.43697C10.6362 7.78311 10.6362 8.34023 10.6362 9.45446" stroke="#2E3553" stroke-width="0.5"/>
<path d="M11.8183 14.7727H9.45468C9.17612 14.7727 9.03684 14.7727 8.95031 14.8592C8.86377 14.9458 8.86377 15.0851 8.86377 15.3636V15.9545C8.86377 16.2331 8.86377 16.3724 8.95031 16.4589C9.03684 16.5454 9.17612 16.5454 9.45468 16.5454H11.8183C12.0969 16.5454 12.2362 16.5454 12.3227 16.4589C12.4092 16.3724 12.4092 16.2331 12.4092 15.9545V15.3636C12.4092 15.0851 12.4092 14.9458 12.3227 14.8592C12.2362 14.7727 12.0969 14.7727 11.8183 14.7727Z" stroke="#2E3553" stroke-width="0.5" stroke-linejoin="round"/>
<path d="M9.45459 9.75V14.7727M9.45459 18.6136V16.8409" stroke="#2E3553" stroke-width="0.5" stroke-linecap="round"/>
<path d="M16.5454 9.75V18.6136" stroke="#2E3553" stroke-width="0.5" stroke-linecap="round"/>
</svg>
