<svg width="65" height="77" viewBox="0 0 65 77" fill="none" xmlns="http://www.w3.org/2000/svg">
<path d="M10.3905 68.4V68.928H8.67047V74H8.11047V68.928H6.39047V68.4H10.3905ZM13.832 70H14.36V74H13.832V73.216C13.464 73.8027 12.9254 74.096 12.216 74.096C11.6454 74.096 11.1574 73.8933 10.752 73.488C10.352 73.0827 10.152 72.5867 10.152 72C10.152 71.4133 10.352 70.9173 10.752 70.512C11.1574 70.1067 11.6454 69.904 12.216 69.904C12.9254 69.904 13.464 70.1973 13.832 70.784V70ZM11.136 73.128C11.44 73.432 11.8134 73.584 12.256 73.584C12.6987 73.584 13.072 73.432 13.376 73.128C13.68 72.8187 13.832 72.4427 13.832 72C13.832 71.5573 13.68 71.184 13.376 70.88C13.072 70.5707 12.6987 70.416 12.256 70.416C11.8134 70.416 11.44 70.5707 11.136 70.88C10.832 71.184 10.68 71.5573 10.68 72C10.68 72.4427 10.832 72.8187 11.136 73.128ZM15.894 71.048C15.894 71.2293 15.974 71.3733 16.134 71.48C16.294 71.5867 16.4886 71.6693 16.718 71.728C16.9473 71.7867 17.1766 71.8533 17.406 71.928C17.6353 71.9973 17.83 72.1173 17.99 72.288C18.15 72.4533 18.23 72.672 18.23 72.944C18.23 73.2853 18.094 73.5627 17.822 73.776C17.5553 73.9893 17.2086 74.096 16.782 74.096C16.398 74.096 16.07 74.0107 15.798 73.84C15.5313 73.6693 15.3446 73.448 15.238 73.176L15.686 72.912C15.7606 73.12 15.894 73.2853 16.086 73.408C16.2833 73.5253 16.5153 73.584 16.782 73.584C17.0433 73.584 17.262 73.5333 17.438 73.432C17.614 73.3253 17.702 73.1627 17.702 72.944C17.702 72.7627 17.622 72.6187 17.462 72.512C17.302 72.4053 17.1073 72.3227 16.878 72.264C16.6486 72.2053 16.4193 72.1413 16.19 72.072C15.9606 71.9973 15.766 71.8773 15.606 71.712C15.446 71.5413 15.366 71.32 15.366 71.048C15.366 70.7227 15.494 70.4507 15.75 70.232C16.0113 70.0133 16.3393 69.904 16.734 69.904C17.0593 69.904 17.3446 69.9787 17.59 70.128C17.8353 70.272 18.0166 70.4693 18.134 70.72L17.694 70.976C17.5393 70.6027 17.2193 70.416 16.734 70.416C16.5046 70.416 16.3073 70.472 16.142 70.584C15.9766 70.6907 15.894 70.8453 15.894 71.048ZM22.3037 74H21.5997L19.5997 72.072V74H19.0717V68.4H19.5997V71.768L21.5037 70H22.2237L20.1597 71.92L22.3037 74ZM30.2248 68.4V74H29.6648V69.248L27.7048 72.528H27.6248L25.6648 69.248V74H25.1048V68.4H25.8008L27.6648 71.52L29.5288 68.4H30.2248ZM34.8633 70H35.3913V74H34.8633V73.216C34.4953 73.8027 33.9566 74.096 33.2473 74.096C32.6766 74.096 32.1886 73.8933 31.7833 73.488C31.3833 73.0827 31.1833 72.5867 31.1833 72C31.1833 71.4133 31.3833 70.9173 31.7833 70.512C32.1886 70.1067 32.6766 69.904 33.2473 69.904C33.9566 69.904 34.4953 70.1973 34.8633 70.784V70ZM32.1673 73.128C32.4713 73.432 32.8446 73.584 33.2873 73.584C33.7299 73.584 34.1033 73.432 34.4073 73.128C34.7113 72.8187 34.8633 72.4427 34.8633 72C34.8633 71.5573 34.7113 71.184 34.4073 70.88C34.1033 70.5707 33.7299 70.416 33.2873 70.416C32.8446 70.416 32.4713 70.5707 32.1673 70.88C31.8633 71.184 31.7113 71.5573 31.7113 72C31.7113 72.4427 31.8633 72.8187 32.1673 73.128ZM38.3812 69.904C38.8666 69.904 39.2479 70.0533 39.5252 70.352C39.8079 70.6453 39.9492 71.0427 39.9492 71.544V74H39.4212V71.544C39.4212 71.1867 39.3252 70.9093 39.1332 70.712C38.9466 70.5147 38.6799 70.416 38.3332 70.416C37.9492 70.416 37.6372 70.5387 37.3972 70.784C37.1572 71.024 37.0372 71.3973 37.0372 71.904V74H36.5092V70H37.0372V70.624C37.3359 70.144 37.7839 69.904 38.3812 69.904ZM44.4102 70H44.9382V74H44.4102V73.216C44.0422 73.8027 43.5035 74.096 42.7942 74.096C42.2235 74.096 41.7355 73.8933 41.3302 73.488C40.9302 73.0827 40.7302 72.5867 40.7302 72C40.7302 71.4133 40.9302 70.9173 41.3302 70.512C41.7355 70.1067 42.2235 69.904 42.7942 69.904C43.5035 69.904 44.0422 70.1973 44.4102 70.784V70ZM41.7142 73.128C42.0182 73.432 42.3915 73.584 42.8342 73.584C43.2768 73.584 43.6502 73.432 43.9542 73.128C44.2582 72.8187 44.4102 72.4427 44.4102 72C44.4102 71.5573 44.2582 71.184 43.9542 70.88C43.6502 70.5707 43.2768 70.416 42.8342 70.416C42.3915 70.416 42.0182 70.5707 41.7142 70.88C41.4102 71.184 41.2582 71.5573 41.2582 72C41.2582 72.4427 41.4102 72.8187 41.7142 73.128ZM49.4961 70H50.0241V73.84C50.0241 74.416 49.8268 74.8693 49.4321 75.2C49.0374 75.5307 48.5654 75.696 48.0161 75.696C47.0774 75.696 46.4454 75.3707 46.1201 74.72L46.5841 74.456C46.8241 74.9413 47.3014 75.184 48.0161 75.184C48.4748 75.184 48.8348 75.0613 49.0961 74.816C49.3628 74.576 49.4961 74.2507 49.4961 73.84V73.216C49.1281 73.8027 48.5894 74.096 47.8801 74.096C47.3094 74.096 46.8214 73.8933 46.4161 73.488C46.0161 73.0827 45.8161 72.5867 45.8161 72C45.8161 71.4133 46.0161 70.9173 46.4161 70.512C46.8214 70.1067 47.3094 69.904 47.8801 69.904C48.5894 69.904 49.1281 70.1973 49.4961 70.784V70ZM46.8001 73.128C47.1041 73.432 47.4774 73.584 47.9201 73.584C48.3628 73.584 48.7361 73.432 49.0401 73.128C49.3441 72.8187 49.4961 72.4427 49.4961 72C49.4961 71.5573 49.3441 71.184 49.0401 70.88C48.7361 70.5707 48.3628 70.416 47.9201 70.416C47.4774 70.416 47.1041 70.5707 46.8001 70.88C46.4961 71.184 46.3441 71.5573 46.3441 72C46.3441 72.4427 46.4961 72.8187 46.8001 73.128ZM52.99 69.904C53.582 69.904 54.0594 70.1147 54.422 70.536C54.79 70.952 54.974 71.4453 54.974 72.016C54.974 72.0747 54.9687 72.1573 54.958 72.264H51.446C51.4994 72.6693 51.67 72.992 51.958 73.232C52.2514 73.4667 52.6114 73.584 53.038 73.584C53.342 73.584 53.6034 73.5227 53.822 73.4C54.046 73.272 54.214 73.1067 54.326 72.904L54.79 73.176C54.614 73.4587 54.374 73.6827 54.07 73.848C53.766 74.0133 53.4194 74.096 53.03 74.096C52.4007 74.096 51.8887 73.8987 51.494 73.504C51.0994 73.1093 50.902 72.608 50.902 72C50.902 71.4027 51.0967 70.904 51.486 70.504C51.8754 70.104 52.3767 69.904 52.99 69.904ZM52.99 70.416C52.574 70.416 52.2247 70.5413 51.942 70.792C51.6647 71.0373 51.4994 71.3573 51.446 71.752H54.43C54.3767 71.3307 54.214 71.0027 53.942 70.768C53.67 70.5333 53.3527 70.416 52.99 70.416ZM56.3419 70.664C56.5872 70.1787 57.0086 69.936 57.6059 69.936V70.448C57.2432 70.448 56.9419 70.5547 56.7019 70.768C56.4619 70.9813 56.3419 71.3173 56.3419 71.776V74H55.8139V70H56.3419V70.664Z" fill="#2E3553"/>
<circle cx="32.5" cy="32.5" r="32.5" fill="#E7FEFF"/>
<path d="M17.6152 19.4353C17.6152 17.2096 19.4195 15.4053 21.6452 15.4053H43.4852C45.7109 15.4053 47.5152 17.2096 47.5152 19.4353V48.4903C47.5152 50.716 45.7109 52.5203 43.4852 52.5203H21.6452C19.4195 52.5203 17.6152 50.716 17.6152 48.4903V19.4353Z" fill="white"/>
<path fill-rule="evenodd" clip-rule="evenodd" d="M43.4848 16.8353H21.6448C20.173 16.8353 18.9798 18.0284 18.9798 19.5003V48.2303C18.9798 49.2713 19.8237 50.1153 20.8648 50.1153H43.4848C44.5259 50.1153 45.3698 49.2713 45.3698 48.2303V18.7203C45.3698 17.6792 44.5259 16.8353 43.4848 16.8353ZM21.6448 15.4053C19.3832 15.4053 17.5498 17.2387 17.5498 19.5003V48.2303C17.5498 50.0611 19.034 51.5453 20.8648 51.5453H43.4848C45.3156 51.5453 46.7998 50.0611 46.7998 48.2303V18.7203C46.7998 16.8894 45.3156 15.4053 43.4848 15.4053H21.6448Z" fill="#47C3C9"/>
<path fill-rule="evenodd" clip-rule="evenodd" d="M43.4852 16.8353H21.6452C20.2093 16.8353 19.0452 17.9993 19.0452 19.4353V48.4903C19.0452 49.9262 20.2093 51.0903 21.6452 51.0903H43.4852C44.9212 51.0903 46.0852 49.9262 46.0852 48.4903V19.4353C46.0852 17.9993 44.9212 16.8353 43.4852 16.8353ZM21.6452 15.4053C19.4195 15.4053 17.6152 17.2096 17.6152 19.4353V48.4903C17.6152 50.716 19.4195 52.5203 21.6452 52.5203H43.4852C45.7109 52.5203 47.5152 50.716 47.5152 48.4903V19.4353C47.5152 17.2096 45.7109 15.4053 43.4852 15.4053H21.6452Z" fill="#003550"/>
<path d="M22.3594 29.0551C22.3594 28.5166 22.7959 28.0801 23.3344 28.0801H26.8444C27.3829 28.0801 27.8194 28.5166 27.8194 29.0551V32.5651C27.8194 33.1036 27.3829 33.5401 26.8444 33.5401H23.3344C22.7959 33.5401 22.3594 33.1036 22.3594 32.5651V29.0551Z" fill="#E7FEFF"/>
<path d="M23.7607 32.1465L26.4907 29.4165L26.6498 29.5756C27.2844 30.2102 27.2844 31.2391 26.6498 31.8737L26.2179 32.3056C25.5833 32.9402 24.5544 32.9402 23.9198 32.3056L23.7607 32.1465Z" fill="#47C3C9"/>
<path fill-rule="evenodd" clip-rule="evenodd" d="M23.7894 29.5101V32.1101H26.3894V29.5101H23.7894ZM23.3344 28.0801C22.7959 28.0801 22.3594 28.5166 22.3594 29.0551V32.5651C22.3594 33.1036 22.7959 33.5401 23.3344 33.5401H26.8444C27.3829 33.5401 27.8194 33.1036 27.8194 32.5651V29.0551C27.8194 28.5166 27.3829 28.0801 26.8444 28.0801H23.3344Z" fill="#003550"/>
<path fill-rule="evenodd" clip-rule="evenodd" d="M29.6396 31.005C29.6396 30.6102 29.9598 30.29 30.3546 30.29H42.1196C42.5145 30.29 42.8346 30.6102 42.8346 31.005C42.8346 31.3999 42.5145 31.72 42.1196 31.72H30.3546C29.9598 31.72 29.6396 31.3999 29.6396 31.005Z" fill="#003550"/>
<path d="M22.3594 36.2699C22.3594 35.7314 22.7959 35.2949 23.3344 35.2949H26.8444C27.3829 35.2949 27.8194 35.7314 27.8194 36.2699V39.7799C27.8194 40.3184 27.3829 40.7549 26.8444 40.7549H23.3344C22.7959 40.7549 22.3594 40.3184 22.3594 39.7799V36.2699Z" fill="#E7FEFF"/>
<path d="M23.7607 39.3613L26.4907 36.6313L26.6498 36.7904C27.2844 37.425 27.2844 38.4539 26.6498 39.0885L26.2179 39.5204C25.5833 40.155 24.5544 40.155 23.9198 39.5204L23.7607 39.3613Z" fill="#47C3C9"/>
<path fill-rule="evenodd" clip-rule="evenodd" d="M23.7894 36.7249V39.3249H26.3894V36.7249H23.7894ZM23.3344 35.2949C22.7959 35.2949 22.3594 35.7314 22.3594 36.2699V39.7799C22.3594 40.3184 22.7959 40.7549 23.3344 40.7549H26.8444C27.3829 40.7549 27.8194 40.3184 27.8194 39.7799V36.2699C27.8194 35.7314 27.3829 35.2949 26.8444 35.2949H23.3344Z" fill="#003550"/>
<path fill-rule="evenodd" clip-rule="evenodd" d="M29.6396 38.2199C29.6396 37.825 29.9598 37.5049 30.3546 37.5049H42.1196C42.5145 37.5049 42.8346 37.825 42.8346 38.2199C42.8346 38.6148 42.5145 38.9349 42.1196 38.9349H30.3546C29.9598 38.9349 29.6396 38.6148 29.6396 38.2199Z" fill="#003550"/>
<path d="M22.3594 42.8349C22.3594 42.2964 22.7959 41.8599 23.3344 41.8599H26.8444C27.3829 41.8599 27.8194 42.2964 27.8194 42.8349V46.3449C27.8194 46.8833 27.3829 47.3199 26.8444 47.3199H23.3344C22.7959 47.3199 22.3594 46.8833 22.3594 46.3449V42.8349Z" fill="#E7FEFF"/>
<path d="M23.7607 45.9263L26.4907 43.1963L26.6498 43.3554C27.2844 43.99 27.2844 45.0189 26.6498 45.6535L26.2179 46.0854C25.5833 46.72 24.5544 46.72 23.9198 46.0854L23.7607 45.9263Z" fill="#47C3C9"/>
<path fill-rule="evenodd" clip-rule="evenodd" d="M23.7894 43.2899V45.8899H26.3894V43.2899H23.7894ZM23.3344 41.8599C22.7959 41.8599 22.3594 42.2964 22.3594 42.8349V46.3449C22.3594 46.8833 22.7959 47.3199 23.3344 47.3199H26.8444C27.3829 47.3199 27.8194 46.8833 27.8194 46.3449V42.8349C27.8194 42.2964 27.3829 41.8599 26.8444 41.8599H23.3344Z" fill="#003550"/>
<path fill-rule="evenodd" clip-rule="evenodd" d="M29.6396 44.7848C29.6396 44.3899 29.9598 44.0698 30.3546 44.0698H42.1196C42.5145 44.0698 42.8346 44.3899 42.8346 44.7848C42.8346 45.1797 42.5145 45.4998 42.1196 45.4998H30.3546C29.9598 45.4998 29.6396 45.1797 29.6396 44.7848Z" fill="#003550"/>
<path fill-rule="evenodd" clip-rule="evenodd" d="M17.7451 53.1701C17.7451 52.7752 18.0652 52.4551 18.4601 52.4551L46.7351 52.4551C47.13 52.4551 47.4501 52.7752 47.4501 53.1701C47.4501 53.565 47.13 53.8851 46.7351 53.8851L18.4601 53.8851C18.0652 53.8851 17.7451 53.565 17.7451 53.1701Z" fill="#003550"/>
<path d="M39.1296 18.4276C39.1296 22.0713 36.1758 25.0251 32.5321 25.0251C28.8884 25.0251 25.9346 22.0713 25.9346 18.4276C25.9346 14.7839 28.8884 11.8301 32.5321 11.8301C36.1758 11.8301 39.1296 14.7839 39.1296 18.4276Z" fill="#E7FEFF"/>
<path fill-rule="evenodd" clip-rule="evenodd" d="M32.5321 23.5951C35.386 23.5951 37.6996 21.2815 37.6996 18.4276C37.6996 15.5736 35.386 13.2601 32.5321 13.2601C29.6781 13.2601 27.3646 15.5736 27.3646 18.4276C27.3646 21.2815 29.6781 23.5951 32.5321 23.5951ZM32.5321 25.0251C36.1758 25.0251 39.1296 22.0713 39.1296 18.4276C39.1296 14.7839 36.1758 11.8301 32.5321 11.8301C28.8884 11.8301 25.9346 14.7839 25.9346 18.4276C25.9346 22.0713 28.8884 25.0251 32.5321 25.0251Z" fill="#003550"/>
<path d="M31.1533 21.7505L36.2 17.3842L38.6914 20.2637L33.6447 24.6301L31.1533 21.7505Z" fill="#47C3C9"/>
<path fill-rule="evenodd" clip-rule="evenodd" d="M32.5321 23.5951C35.386 23.5951 37.6996 21.2815 37.6996 18.4276C37.6996 15.5736 35.386 13.2601 32.5321 13.2601C29.6781 13.2601 27.3646 15.5736 27.3646 18.4276C27.3646 21.2815 29.6781 23.5951 32.5321 23.5951ZM32.5321 25.0251C36.1758 25.0251 39.1296 22.0713 39.1296 18.4276C39.1296 14.7839 36.1758 11.8301 32.5321 11.8301C28.8884 11.8301 25.9346 14.7839 25.9346 18.4276C25.9346 22.0713 28.8884 25.0251 32.5321 25.0251Z" fill="#003550"/>
<path fill-rule="evenodd" clip-rule="evenodd" d="M32.5322 14.3652C31.6181 14.3652 30.8771 15.1062 30.8771 16.0203V16.7726H30.1248C29.2107 16.7726 28.4697 17.5137 28.4697 18.4277C28.4697 19.3418 29.2107 20.0828 30.1248 20.0828H30.8771V20.8351C30.8771 21.7492 31.6181 22.4902 32.5322 22.4902C33.4463 22.4902 34.1873 21.7492 34.1873 20.8351V20.0828H34.9396C35.8537 20.0828 36.5947 19.3418 36.5947 18.4277C36.5947 17.5137 35.8537 16.7726 34.9396 16.7726H34.1873V16.0203C34.1873 15.1062 33.4463 14.3652 32.5322 14.3652Z" fill="white"/>
<path fill-rule="evenodd" clip-rule="evenodd" d="M31.8382 17.7337H30.1248C29.7415 17.7337 29.4307 18.0444 29.4307 18.4277C29.4307 18.8111 29.7415 19.1218 30.1248 19.1218H31.8382V20.8351C31.8382 21.2185 32.1489 21.5292 32.5322 21.5292C32.9156 21.5292 33.2263 21.2185 33.2263 20.8351V19.1218H34.9396C35.323 19.1218 35.6337 18.8111 35.6337 18.4277C35.6337 18.0444 35.323 17.7337 34.9396 17.7337H33.2263V16.0203C33.2263 15.637 32.9156 15.3263 32.5322 15.3263C32.1489 15.3263 31.8382 15.637 31.8382 16.0203V17.7337ZM30.8771 16.0203C30.8771 15.1062 31.6181 14.3652 32.5322 14.3652C33.4463 14.3652 34.1873 15.1062 34.1873 16.0203V16.7726H34.9396C35.8537 16.7726 36.5947 17.5137 36.5947 18.4277C36.5947 19.3418 35.8537 20.0828 34.9396 20.0828H34.1873V20.8351C34.1873 21.7492 33.4463 22.4902 32.5322 22.4902C31.6181 22.4902 30.8771 21.7492 30.8771 20.8351V20.0828H30.1248C29.2107 20.0828 28.4697 19.3418 28.4697 18.4277C28.4697 17.5137 29.2107 16.7726 30.1248 16.7726H30.8771V16.0203Z" fill="#003550"/>
</svg>
