<svg width="65" height="77" viewBox="0 0 65 77" fill="none" xmlns="http://www.w3.org/2000/svg">
<circle cx="32.5" cy="32.5" r="32.5" fill="#F1FFD1"/>
<path fill-rule="evenodd" clip-rule="evenodd" d="M42.5093 18.3948H21.6443C19.5622 18.3948 17.8743 20.0827 17.8743 22.1648V45.8898C17.8743 47.972 19.5622 49.6598 21.6443 49.6598H42.5093C44.5915 49.6598 46.2793 47.972 46.2793 45.8898V22.1648C46.2793 20.0827 44.5915 18.3948 42.5093 18.3948ZM21.6443 16.9648C18.7725 16.9648 16.4443 19.293 16.4443 22.1648V45.8898C16.4443 48.7617 18.7725 51.0898 21.6443 51.0898H42.5093C45.3812 51.0898 47.7093 48.7617 47.7093 45.8898V22.1648C47.7093 19.293 45.3812 16.9648 42.5093 16.9648H21.6443Z" fill="#B0D364"/>
<path fill-rule="evenodd" clip-rule="evenodd" d="M29.5091 18.8498C29.5091 20.8601 31.1388 22.4898 33.1491 22.4898C35.1594 22.4898 36.7891 20.8601 36.7891 18.8498C36.7891 16.8395 35.1594 15.2098 33.1491 15.2098C31.1388 15.2098 29.5091 16.8395 29.5091 18.8498ZM33.1491 13.7798C30.349 13.7798 28.0791 16.0497 28.0791 18.8498C28.0791 21.6499 30.349 23.9198 33.1491 23.9198C35.9492 23.9198 38.2191 21.6499 38.2191 18.8498C38.2191 16.0497 35.9492 13.7798 33.1491 13.7798Z" fill="#B0D364"/>
<path fill-rule="evenodd" clip-rule="evenodd" d="M43.4193 18.3948H21.6443C19.5622 18.3948 17.8743 20.0827 17.8743 22.1648V46.7998C17.8743 48.882 19.5622 50.5698 21.6443 50.5698H43.4193C45.5015 50.5698 47.1893 48.882 47.1893 46.7998V22.1648C47.1893 20.0827 45.5015 18.3948 43.4193 18.3948ZM21.6443 16.9648C18.7725 16.9648 16.4443 19.293 16.4443 22.1648V46.7998C16.4443 49.6717 18.7725 51.9998 21.6443 51.9998H43.4193C46.2912 51.9998 48.6193 49.6717 48.6193 46.7998V22.1648C48.6193 19.293 46.2912 16.9648 43.4193 16.9648H21.6443Z" fill="#003550"/>
<path d="M27.4941 18.07C27.4941 15.2699 29.7641 13 32.5641 13C35.3642 13 37.6341 15.2699 37.6341 18.07C37.6341 20.8701 35.3642 23.14 32.5641 23.14C29.7641 23.14 27.4941 20.8701 27.4941 18.07Z" fill="#E6FFAF"/>
<path d="M29.1846 18.6873C29.1846 16.5872 30.887 14.8848 32.9871 14.8848C35.0871 14.8848 36.7896 16.5872 36.7896 18.6873C36.7896 20.7873 35.0871 22.4898 32.9871 22.4898C30.887 22.4898 29.1846 20.7873 29.1846 18.6873Z" fill="#B0D364"/>
<path d="M29.4878 28.2061H22.6828C22.1638 28.2061 21.7432 28.6267 21.7432 29.1457V29.246C21.7432 29.7649 22.1638 30.1856 22.6828 30.1856H29.4878C30.0067 30.1856 30.4274 29.7649 30.4274 29.246V29.1457C30.4274 28.6267 30.0067 28.2061 29.4878 28.2061Z" fill="#003550"/>
<path d="M42.1029 28.2007H35.9623C35.4448 28.2007 35.0254 28.6201 35.0254 29.1376V29.2474C35.0254 29.7648 35.4448 30.1843 35.9623 30.1843H42.1029C42.6204 30.1843 43.0398 29.7648 43.0398 29.2474V29.1376C43.0398 28.6201 42.6204 28.2007 42.1029 28.2007Z" fill="#003550"/>
<path d="M42.0457 34.7915H22.6868C22.1522 34.7915 21.7188 35.2249 21.7188 35.7596V35.7799C21.7188 36.3146 22.1522 36.748 22.6868 36.748H42.0457C42.5803 36.748 43.0138 36.3146 43.0138 35.7799V35.7596C43.0138 35.2249 42.5803 34.7915 42.0457 34.7915Z" fill="#003550"/>
<path d="M29.3777 41.3472C30.6963 41.3418 30.8807 43.3335 29.4055 43.3376C28.4205 43.3396 27.4422 43.322 26.4694 43.3322C25.3074 43.3444 24.1615 43.3482 23.0316 43.3437C22.4642 43.3417 21.8982 43.2901 21.7761 42.6264C21.6799 42.1031 21.8697 41.6184 22.3713 41.4163C22.4884 41.3693 22.6441 41.3463 22.8384 41.3472C25.1086 41.3567 27.2883 41.3567 29.3777 41.3472Z" fill="#003550"/>
<path fill-rule="evenodd" clip-rule="evenodd" d="M28.9241 18.07C28.9241 20.0803 30.5538 21.71 32.5641 21.71C34.5745 21.71 36.2041 20.0803 36.2041 18.07C36.2041 16.0597 34.5745 14.43 32.5641 14.43C30.5538 14.43 28.9241 16.0597 28.9241 18.07ZM32.5641 13C29.7641 13 27.4941 15.2699 27.4941 18.07C27.4941 20.8701 29.7641 23.14 32.5641 23.14C35.3642 23.14 37.6341 20.8701 37.6341 18.07C37.6341 15.2699 35.3642 13 32.5641 13Z" fill="#003550"/>
<path d="M11.9084 68.4V74H11.3484V69.248L9.38844 72.528H9.30844L7.34844 69.248V74H6.78844V68.4H7.48444L9.34844 71.52L11.2124 68.4H11.9084ZM16.5469 70H17.0749V74H16.5469V73.216C16.1789 73.8027 15.6402 74.096 14.9309 74.096C14.3602 74.096 13.8722 73.8933 13.4669 73.488C13.0669 73.0827 12.8669 72.5867 12.8669 72C12.8669 71.4133 13.0669 70.9173 13.4669 70.512C13.8722 70.1067 14.3602 69.904 14.9309 69.904C15.6402 69.904 16.1789 70.1973 16.5469 70.784V70ZM13.8509 73.128C14.1549 73.432 14.5282 73.584 14.9709 73.584C15.4135 73.584 15.7869 73.432 16.0909 73.128C16.3949 72.8187 16.5469 72.4427 16.5469 72C16.5469 71.5573 16.3949 71.184 16.0909 70.88C15.7869 70.5707 15.4135 70.416 14.9709 70.416C14.5282 70.416 14.1549 70.5707 13.8509 70.88C13.5469 71.184 13.3949 71.5573 13.3949 72C13.3949 72.4427 13.5469 72.8187 13.8509 73.128ZM21.6328 70H22.1608V73.84C22.1608 74.416 21.9635 74.8693 21.5688 75.2C21.1741 75.5307 20.7021 75.696 20.1528 75.696C19.2141 75.696 18.5821 75.3707 18.2568 74.72L18.7208 74.456C18.9608 74.9413 19.4381 75.184 20.1528 75.184C20.6115 75.184 20.9715 75.0613 21.2328 74.816C21.4995 74.576 21.6328 74.2507 21.6328 73.84V73.216C21.2648 73.8027 20.7261 74.096 20.0168 74.096C19.4461 74.096 18.9581 73.8933 18.5528 73.488C18.1528 73.0827 17.9528 72.5867 17.9528 72C17.9528 71.4133 18.1528 70.9173 18.5528 70.512C18.9581 70.1067 19.4461 69.904 20.0168 69.904C20.7261 69.904 21.2648 70.1973 21.6328 70.784V70ZM18.9368 73.128C19.2408 73.432 19.6141 73.584 20.0568 73.584C20.4995 73.584 20.8728 73.432 21.1768 73.128C21.4808 72.8187 21.6328 72.4427 21.6328 72C21.6328 71.5573 21.4808 71.184 21.1768 70.88C20.8728 70.5707 20.4995 70.416 20.0568 70.416C19.6141 70.416 19.2408 70.5707 18.9368 70.88C18.6328 71.184 18.4808 71.5573 18.4808 72C18.4808 72.4427 18.6328 72.8187 18.9368 73.128ZM25.1508 69.904C25.6361 69.904 26.0174 70.0533 26.2948 70.352C26.5774 70.6453 26.7188 71.0427 26.7188 71.544V74H26.1908V71.544C26.1908 71.1867 26.0948 70.9093 25.9028 70.712C25.7161 70.5147 25.4494 70.416 25.1028 70.416C24.7188 70.416 24.4068 70.5387 24.1668 70.784C23.9268 71.024 23.8068 71.3973 23.8068 71.904V74H23.2788V70H23.8068V70.624C24.1054 70.144 24.5534 69.904 25.1508 69.904ZM29.5877 69.904C30.1797 69.904 30.657 70.1147 31.0197 70.536C31.3877 70.952 31.5717 71.4453 31.5717 72.016C31.5717 72.0747 31.5664 72.1573 31.5557 72.264H28.0437C28.097 72.6693 28.2677 72.992 28.5557 73.232C28.849 73.4667 29.209 73.584 29.6357 73.584C29.9397 73.584 30.201 73.5227 30.4197 73.4C30.6437 73.272 30.8117 73.1067 30.9237 72.904L31.3877 73.176C31.2117 73.4587 30.9717 73.6827 30.6677 73.848C30.3637 74.0133 30.017 74.096 29.6277 74.096C28.9984 74.096 28.4864 73.8987 28.0917 73.504C27.697 73.1093 27.4997 72.608 27.4997 72C27.4997 71.4027 27.6944 70.904 28.0837 70.504C28.473 70.104 28.9744 69.904 29.5877 69.904ZM29.5877 70.416C29.1717 70.416 28.8224 70.5413 28.5397 70.792C28.2624 71.0373 28.097 71.3573 28.0437 71.752H31.0277C30.9744 71.3307 30.8117 71.0027 30.5397 70.768C30.2677 70.5333 29.9504 70.416 29.5877 70.416ZM34.4144 70.512H33.2624V72.936C33.2624 73.1547 33.305 73.312 33.3904 73.408C33.4757 73.4987 33.6037 73.5467 33.7744 73.552C33.945 73.552 34.1584 73.5467 34.4144 73.536V74C33.8544 74.0853 33.433 74.0453 33.1504 73.88C32.873 73.7147 32.7344 73.4 32.7344 72.936V70.512H31.8944V70H32.7344V69.04L33.2624 68.88V70H34.4144V70.512ZM40.9744 68.4H41.5344V74H41.0544L37.9344 69.44V74H37.3744V68.4H37.8544L40.9744 72.96V68.4ZM46.0839 73.496C45.6785 73.896 45.1825 74.096 44.5959 74.096C44.0092 74.096 43.5105 73.896 43.0999 73.496C42.6945 73.0907 42.4919 72.592 42.4919 72C42.4919 71.408 42.6945 70.912 43.0999 70.512C43.5105 70.1067 44.0092 69.904 44.5959 69.904C45.1825 69.904 45.6785 70.1067 46.0839 70.512C46.4945 70.912 46.6999 71.408 46.6999 72C46.6999 72.592 46.4945 73.0907 46.0839 73.496ZM43.4759 73.128C43.7799 73.432 44.1532 73.584 44.5959 73.584C45.0385 73.584 45.4119 73.432 45.7159 73.128C46.0199 72.8187 46.1719 72.4427 46.1719 72C46.1719 71.5573 46.0199 71.184 45.7159 70.88C45.4119 70.5707 45.0385 70.416 44.5959 70.416C44.1532 70.416 43.7799 70.5707 43.4759 70.88C43.1719 71.184 43.0199 71.5573 43.0199 72C43.0199 72.4427 43.1719 72.8187 43.4759 73.128ZM49.6253 70.512H48.4733V72.936C48.4733 73.1547 48.516 73.312 48.6013 73.408C48.6866 73.4987 48.8146 73.5467 48.9853 73.552C49.156 73.552 49.3693 73.5467 49.6253 73.536V74C49.0653 74.0853 48.644 74.0453 48.3613 73.88C48.084 73.7147 47.9453 73.4 47.9453 72.936V70.512H47.1053V70H47.9453V69.04L48.4733 68.88V70H49.6253V70.512ZM52.1111 69.904C52.7031 69.904 53.1805 70.1147 53.5431 70.536C53.9111 70.952 54.0951 71.4453 54.0951 72.016C54.0951 72.0747 54.0898 72.1573 54.0791 72.264H50.5671C50.6205 72.6693 50.7911 72.992 51.0791 73.232C51.3725 73.4667 51.7325 73.584 52.1591 73.584C52.4631 73.584 52.7245 73.5227 52.9431 73.4C53.1671 73.272 53.3351 73.1067 53.4471 72.904L53.9111 73.176C53.7351 73.4587 53.4951 73.6827 53.1911 73.848C52.8871 74.0133 52.5405 74.096 52.1511 74.096C51.5218 74.096 51.0098 73.8987 50.6151 73.504C50.2205 73.1093 50.0231 72.608 50.0231 72C50.0231 71.4027 50.2178 70.904 50.6071 70.504C50.9965 70.104 51.4978 69.904 52.1111 69.904ZM52.1111 70.416C51.6951 70.416 51.3458 70.5413 51.0631 70.792C50.7858 71.0373 50.6205 71.3573 50.5671 71.752H53.5511C53.4978 71.3307 53.3351 71.0027 53.0631 70.768C52.7911 70.5333 52.4738 70.416 52.1111 70.416ZM55.1948 71.048C55.1948 71.2293 55.2748 71.3733 55.4348 71.48C55.5948 71.5867 55.7894 71.6693 56.0188 71.728C56.2481 71.7867 56.4774 71.8533 56.7068 71.928C56.9361 71.9973 57.1308 72.1173 57.2908 72.288C57.4508 72.4533 57.5308 72.672 57.5308 72.944C57.5308 73.2853 57.3948 73.5627 57.1228 73.776C56.8561 73.9893 56.5094 74.096 56.0828 74.096C55.6988 74.096 55.3708 74.0107 55.0988 73.84C54.8321 73.6693 54.6454 73.448 54.5388 73.176L54.9868 72.912C55.0614 73.12 55.1948 73.2853 55.3868 73.408C55.5841 73.5253 55.8161 73.584 56.0828 73.584C56.3441 73.584 56.5628 73.5333 56.7388 73.432C56.9148 73.3253 57.0028 73.1627 57.0028 72.944C57.0028 72.7627 56.9228 72.6187 56.7628 72.512C56.6028 72.4053 56.4081 72.3227 56.1788 72.264C55.9494 72.2053 55.7201 72.1413 55.4908 72.072C55.2614 71.9973 55.0668 71.8773 54.9068 71.712C54.7468 71.5413 54.6668 71.32 54.6668 71.048C54.6668 70.7227 54.7948 70.4507 55.0508 70.232C55.3121 70.0133 55.6401 69.904 56.0348 69.904C56.3601 69.904 56.6454 69.9787 56.8908 70.128C57.1361 70.272 57.3174 70.4693 57.4348 70.72L56.9948 70.976C56.8401 70.6027 56.5201 70.416 56.0348 70.416C55.8054 70.416 55.6081 70.472 55.4428 70.584C55.2774 70.6907 55.1948 70.8453 55.1948 71.048Z" fill="#2E3553"/>
</svg>
