<svg width="26" height="26" viewBox="0 0 26 26" fill="none" xmlns="http://www.w3.org/2000/svg">
<circle cx="13" cy="13" r="13" fill="#F8D2D6"/>
<path d="M11.8488 25.9498L6.52637 16.7311L19.4734 9.2561L24.7953 18.4738C22.7291 22.9185 18.2246 26.0001 13.0004 26.0001C12.6123 26.0001 12.2282 25.9831 11.8488 25.9498Z" fill="#FFB8BD"/>
<path d="M20.1501 12.8441C20.1501 16.8791 16.8791 20.1501 12.8441 20.1501C8.80909 20.1501 5.53809 16.8791 5.53809 12.8441C5.53809 8.80909 8.80909 5.53809 12.8441 5.53809C16.8791 5.53809 20.1501 8.80909 20.1501 12.8441Z" fill="#FFFEFA"/>
<path fill-rule="evenodd" clip-rule="evenodd" d="M12.8441 19.5781C16.5632 19.5781 19.5781 16.5632 19.5781 12.8441C19.5781 9.125 16.5632 6.11009 12.8441 6.11009C9.125 6.11009 6.11009 9.125 6.11009 12.8441C6.11009 16.5632 9.125 19.5781 12.8441 19.5781ZM12.8441 20.1501C16.8791 20.1501 20.1501 16.8791 20.1501 12.8441C20.1501 8.80909 16.8791 5.53809 12.8441 5.53809C8.80909 5.53809 5.53809 8.80909 5.53809 12.8441C5.53809 16.8791 8.80909 20.1501 12.8441 20.1501Z" fill="#C4333F"/>
<path fill-rule="evenodd" clip-rule="evenodd" d="M13.0131 19.9161C16.8255 19.9161 19.9161 16.8255 19.9161 13.0131C19.9161 9.20066 16.8255 6.11009 13.0131 6.11009C9.20066 6.11009 6.11009 9.20066 6.11009 13.0131C6.11009 16.8255 9.20066 19.9161 13.0131 19.9161ZM13.0131 20.4881C17.1414 20.4881 20.4881 17.1414 20.4881 13.0131C20.4881 8.88476 17.1414 5.53809 13.0131 5.53809C8.88476 5.53809 5.53809 8.88476 5.53809 13.0131C5.53809 17.1414 8.88476 20.4881 13.0131 20.4881Z" fill="#003550"/>
<path d="M11.0786 8.73606C11.0786 8.44888 11.3114 8.21606 11.5986 8.21606H14.3756C14.6628 8.21606 14.8956 8.44888 14.8956 8.73606V17.2386C14.8956 17.5258 14.6628 17.7586 14.3756 17.7586H11.5986C11.3114 17.7586 11.0786 17.5258 11.0786 17.2386V8.73606Z" fill="#C4333F"/>
<path d="M8.73582 14.8959C8.44863 14.8959 8.21582 14.663 8.21582 14.3759L8.21582 11.5988C8.21582 11.3116 8.44863 11.0788 8.73582 11.0788L17.2384 11.0788C17.5256 11.0788 17.7584 11.3116 17.7584 11.5988V14.3759C17.7584 14.663 17.5256 14.8959 17.2384 14.8959H8.73582Z" fill="#C4333F"/>
</svg>
