<svg width="126" height="126" viewBox="0 0 126 126" fill="none" xmlns="http://www.w3.org/2000/svg">
<rect width="126" height="126" rx="63" fill="#F6F8FB"/>
<circle cx="63.834" cy="64.8335" r="6.25" stroke="#CFD3EE" stroke-width="1.5"/>
<path d="M59.2037 81.5H68.463C74.9651 81.5 78.2162 81.5 80.5516 79.9679C81.5626 79.3046 82.4307 78.4524 83.1062 77.4597C84.6667 75.1668 84.6667 71.9748 84.6667 65.5909C84.6667 59.207 84.6667 56.015 83.1062 53.7221C82.4307 52.7295 81.5626 51.8772 80.5516 51.2139C79.0509 50.2294 77.1722 49.8776 74.2958 49.7518C72.9232 49.7518 71.7414 48.7306 71.4722 47.4091C71.0684 45.4268 69.2957 44 67.2368 44H60.4299C58.3709 44 56.5982 45.4269 56.1944 47.4091C55.9253 48.7306 54.7434 49.7518 53.3708 49.7518C50.4944 49.8776 48.6157 50.2294 47.1151 51.2139C46.1041 51.8772 45.236 52.7295 44.5605 53.7221C43 56.015 43 59.207 43 65.5909C43 71.9748 43 75.1668 44.5605 77.4597C45.236 78.4524 46.1041 79.3046 47.1151 79.9679C49.4505 81.5 52.7016 81.5 59.2037 81.5Z" stroke="#CFD3EE" stroke-width="1.5"/>
<path d="M78.4173 58.5835H76.334" stroke="#CFD3EE" stroke-width="1.5" stroke-linecap="round"/>
</svg>
