<svg width="19" height="20" viewBox="0 0 19 20" fill="none" xmlns="http://www.w3.org/2000/svg">
<path d="M1.08118 15.2258L9.50053 12.0322L18.2102 15.2258L9.50053 19L1.08118 15.2258Z" fill="#ECECEC"/>
<path d="M0.5 4.19355L9.5 1L18.5 4.19355V15.2258L9.5 12.0323L0.5 15.2258V4.19355Z" fill="white"/>
<path d="M6.88745 5.64514L3.48339 6.76651L3.40358 14.0645L6.88745 12.9032V5.64514Z" fill="#48BFAA"/>
<path d="M16.1775 7.09676L12.1928 5.60522L12.113 9.99999L16.1775 11.4516V7.09676Z" fill="#48BFAA"/>
<path d="M9.5 1L0.5 4.19355V15.2258L9.5 19L18.5 15.2258V4.19355L9.5 1Z" stroke="#2E3553"/>
<path d="M9.49972 1V12.0323M9.49972 12.0323L18.2094 15.2258M9.49972 12.0323L0.790039 15.2258" stroke="#2E3553"/>
<path d="M6.88745 13.1535V5.64514L3.40358 6.80643V14.3548" stroke="#2E3553"/>
<path d="M12.113 9.92358V5.64514L16.1775 7.17316V11.4516L12.113 9.92358Z" stroke="#2E3553"/>
</svg>
