<svg width="19" height="20" viewBox="0 0 19 20" fill="none" xmlns="http://www.w3.org/2000/svg">
<path d="M17.9193 4.77423L9.4999 7.96777L0.790218 4.77423L9.4999 1.00003L17.9193 4.77423Z" fill="#ECECEC"/>
<path d="M18.5 15.8065L9.5 19L0.500002 15.8065L0.500001 4.7742L9.5 7.96774L18.5 4.7742L18.5 15.8065Z" fill="white"/>
<path d="M2.82251 12.9032L6.80721 14.3948L6.88702 10L2.82251 8.5484L2.82251 12.9032Z" fill="#48BFAA"/>
<path d="M9.5 19L18.5 15.8065L18.5 4.7742L9.5 1L0.500001 4.7742L0.500002 15.8065L9.5 19Z" stroke="#2E3553"/>
<path d="M9.50004 19L9.50004 7.96774M9.50004 7.96774L0.790361 4.7742M9.50004 7.96774L18.2097 4.7742" stroke="#2E3553"/>
<path d="M16.1775 9.12903L12.7734 10.2504L12.6936 17.5484L16.1775 16.3871L16.1775 9.12903Z" fill="#48BFAA"/>
<path d="M16.1775 16.6374L16.1775 9.12903L12.6936 10.2903L12.6936 17.8387" stroke="#2E3553"/>
<path d="M9.5 1.29028L9.5 7.67738" stroke="#2E3553"/>
<path d="M6.88702 10.0764L6.88703 14.3549L2.82251 12.8268L2.82251 8.54841L6.88702 10.0764Z" stroke="#2E3553"/>
</svg>
