<svg width="16" height="17" viewBox="0 0 16 17" fill="none" xmlns="http://www.w3.org/2000/svg">
<path d="M1.09238 12.2517L0.48049 11.818H0.48049L1.09238 12.2517ZM2.10998 9.15937L1.35998 9.1508V9.15937H2.10998ZM2.13134 7.28971L2.88134 7.29827V7.28971H2.13134ZM14.9131 12.2667L15.5333 11.8451L15.5333 11.8451L14.9131 12.2667ZM13.9337 9.15937L13.1837 9.15035V9.15937H13.9337ZM13.9551 7.38235L14.7051 7.39137V7.38235H13.9551ZM5.66667 15.1832C5.25245 15.1832 4.91667 15.519 4.91667 15.9332C4.91667 16.3474 5.25245 16.6832 5.66667 16.6832V15.1832ZM10.3333 16.6832C10.7475 16.6832 11.0833 16.3474 11.0833 15.9332C11.0833 15.519 10.7475 15.1832 10.3333 15.1832V16.6832ZM1.70426 12.6854C2.28534 11.8656 2.85998 10.6454 2.85998 9.15937H1.35998C1.35998 10.2539 0.935041 11.1767 0.48049 11.818L1.70426 12.6854ZM2.85993 9.16793L2.88129 7.29827L1.38139 7.28114L1.36003 9.1508L2.85993 9.16793ZM15.5333 11.8451C15.0976 11.2041 14.6837 10.2712 14.6837 9.15937H13.1837C13.1837 10.6458 13.735 11.8676 14.2928 12.6883L15.5333 11.8451ZM14.6837 9.16838L14.705 7.39137L13.2052 7.37334L13.1838 9.15035L14.6837 9.16838ZM14.7051 7.38235C14.7051 3.49306 11.7512 0.25 8 0.25V1.75C10.8266 1.75 13.2051 4.2219 13.2051 7.38235H14.7051ZM14.5567 13.8832C15.1611 13.8832 15.5145 13.4337 15.649 13.0952C15.7864 12.7492 15.8143 12.2585 15.5333 11.8451L14.2928 12.6883C14.2573 12.6362 14.2511 12.5923 14.2502 12.5751C14.2493 12.5586 14.2518 12.5492 14.2549 12.5415C14.2574 12.5351 14.2704 12.5045 14.3134 12.4683C14.362 12.4274 14.4473 12.3832 14.5567 12.3832V13.8832ZM2.88134 7.28971C2.88134 4.18042 5.22114 1.75 8 1.75V0.25C4.29652 0.25 1.38134 3.45158 1.38134 7.28971H2.88134ZM1.44418 12.3832C1.55596 12.3832 1.64233 12.4292 1.69033 12.4704C1.7326 12.5066 1.74439 12.5364 1.74612 12.5409C1.74844 12.5469 1.75078 12.5549 1.74976 12.5707C1.7487 12.5871 1.74201 12.6322 1.70426 12.6854L0.48049 11.818C0.186613 12.2326 0.212133 12.7316 0.346384 13.0801C0.477345 13.4201 0.829957 13.8832 1.44418 13.8832V12.3832ZM14.5567 12.3832H1.44418V13.8832H14.5567V12.3832ZM5.66667 16.6832H10.3333V15.1832H5.66667V16.6832Z" fill="#2E3553"/>
<circle cx="13" cy="3" r="3" fill="#D65555"/>
</svg>
