<svg width="16" height="16" viewBox="0 0 16 16" fill="none" xmlns="http://www.w3.org/2000/svg">
<path d="M1 9.40005C1 6.76018 1 5.44025 1.8201 4.62015C2.6402 3.80005 3.96013 3.80005 6.6 3.80005H9.4C12.0399 3.80005 13.3598 3.80005 14.1799 4.62015C15 5.44025 15 6.76018 15 9.40005C15 12.0399 15 13.3598 14.1799 14.1799C13.3598 15 12.0399 15 9.4 15H6.6C3.96013 15 2.6402 15 1.8201 14.1799C1 13.3598 1 12.0399 1 9.40005Z" stroke="#1C274C"/>
<path d="M10.8002 3.8C10.8002 2.48007 10.8002 1.8201 10.3901 1.41005C9.98009 1 9.32013 1 8.0002 1C6.68026 1 6.0203 1 5.61025 1.41005C5.2002 1.8201 5.2002 2.48007 5.2002 3.8" stroke="#1C274C"/>
<path d="M11.4996 5.9002C11.4996 6.28679 11.1862 6.6002 10.7996 6.6002C10.413 6.6002 10.0996 6.28679 10.0996 5.9002C10.0996 5.5136 10.413 5.2002 10.7996 5.2002C11.1862 5.2002 11.4996 5.5136 11.4996 5.9002Z" fill="#1C274C"/>
<path d="M5.9 5.89995C5.9 6.28655 5.5866 6.59995 5.2 6.59995C4.8134 6.59995 4.5 6.28655 4.5 5.89995C4.5 5.51335 4.8134 5.19995 5.2 5.19995C5.5866 5.19995 5.9 5.51335 5.9 5.89995Z" fill="#1C274C"/>
</svg>
