<svg width="13" height="16" viewBox="0 0 13 16" fill="none" xmlns="http://www.w3.org/2000/svg">
<path d="M0.813477 3.6259V12.8671C0.813477 14.0449 1.76827 14.9997 2.94607 14.9997H10.0547C11.2325 14.9997 12.1873 14.0449 12.1873 12.8671V5.7585C12.1873 4.5807 11.2325 3.6259 10.0547 3.6259H0.813477ZM0.813477 3.6259V2.91504" stroke="#1C274D"/>
<path d="M10.7656 3.62619V4.12619H11.2656V3.62619H10.7656ZM9.14279 1.01456L9.07208 0.519581L9.14279 1.01456ZM1.46718 2.11107L1.39647 1.6161L1.46718 2.11107ZM1.57486 4.12619H10.7656V3.12619H1.57486V4.12619ZM11.2656 3.62619V2.422H10.2656V3.62619H11.2656ZM9.07208 0.519581L1.39647 1.6161L1.53789 2.60605L9.2135 1.50953L9.07208 0.519581ZM1.39647 1.6161C0.775053 1.70487 0.313477 2.23707 0.313477 2.8648H1.31348C1.31348 2.73472 1.40912 2.62444 1.53789 2.60605L1.39647 1.6161ZM11.2656 2.422C11.2656 1.25253 10.2298 0.354194 9.07208 0.519581L9.2135 1.50953C9.76878 1.43021 10.2656 1.86108 10.2656 2.422H11.2656ZM1.57486 3.12619C1.4305 3.12619 1.31348 3.00916 1.31348 2.8648H0.313477C0.313477 3.56145 0.878217 4.12619 1.57486 4.12619V3.12619Z" fill="#1C274D"/>
<path d="M3.65723 7.8916H9.34414" stroke="#1C274D" stroke-linecap="round"/>
<path d="M3.65723 10.3794H7.56698" stroke="#1C274D" stroke-linecap="round"/>
</svg>
