<svg width="19" height="16" viewBox="0 0 19 16" fill="none" xmlns="http://www.w3.org/2000/svg">
<path d="M4.5 4.5H8" stroke="#1C274C" stroke-linecap="round" stroke-linejoin="round"/>
<path d="M17.4792 5.375H15.2019C13.6407 5.375 12.375 6.55025 12.375 8C12.375 9.44975 13.6407 10.625 15.2019 10.625H17.4792C17.5521 10.625 17.5885 10.625 17.6193 10.6231C18.0912 10.5944 18.4671 10.2454 18.498 9.80723C18.5 9.77864 18.5 9.74479 18.5 9.67708V6.32292C18.5 6.25521 18.5 6.22136 18.498 6.19277C18.4671 5.75461 18.0912 5.40559 17.6193 5.37687C17.5885 5.375 17.5521 5.375 17.4792 5.375Z" stroke="#1C274C"/>
<path d="M17.5944 5.375C17.5264 3.73674 17.307 2.73228 16.5999 2.02513C15.5747 1 13.9248 1 10.625 1L8 1C4.70017 1 3.05025 1 2.02513 2.02513C1 3.05025 1 4.70017 1 8C1 11.2998 1 12.9497 2.02513 13.9749C3.05025 15 4.70017 15 8 15H10.625C13.9248 15 15.5747 15 16.5999 13.9749C17.307 13.2677 17.5264 12.2633 17.5944 10.625" stroke="#1C274C"/>
<path d="M14.9922 8H15.0001" stroke="#1C274C" stroke-linecap="round" stroke-linejoin="round"/>
</svg>
