<svg width="16" height="16" viewBox="0 0 16 16" fill="none" xmlns="http://www.w3.org/2000/svg">
<path d="M1 7.82074C1 5.11318 1 3.75941 1.84113 2.91828C2.68226 2.07715 4.03604 2.07715 6.74359 2.07715H9.61538C12.3229 2.07715 13.6767 2.07715 14.5178 2.91828C15.359 3.75941 15.359 5.11318 15.359 7.82074V9.25664C15.359 11.9642 15.359 13.318 14.5178 14.1591C13.6767 15.0002 12.3229 15.0002 9.61538 15.0002H6.74359C4.03604 15.0002 2.68226 15.0002 1.84113 14.1591C1 13.318 1 11.9642 1 9.25664V7.82074Z" stroke="#1C274C"/>
<path d="M4.58984 2.07692V1" stroke="#1C274C" stroke-linecap="round"/>
<path d="M11.7695 2.07692V1" stroke="#1C274C" stroke-linecap="round"/>
<path d="M1.35938 5.66699H15.0004" stroke="#1C274C" stroke-linecap="round"/>
<path d="M12.4867 11.4101C12.4867 11.8066 12.1652 12.128 11.7687 12.128C11.3722 12.128 11.0508 11.8066 11.0508 11.4101C11.0508 11.0135 11.3722 10.6921 11.7687 10.6921C12.1652 10.6921 12.4867 11.0135 12.4867 11.4101Z" fill="#1C274C"/>
<path d="M12.4867 8.53826C12.4867 8.93477 12.1652 9.25621 11.7687 9.25621C11.3722 9.25621 11.0508 8.93477 11.0508 8.53826C11.0508 8.14175 11.3722 7.82031 11.7687 7.82031C12.1652 7.82031 12.4867 8.14175 12.4867 8.53826Z" fill="#1C274C"/>
<path d="M8.89781 11.4101C8.89781 11.8066 8.57638 12.128 8.17986 12.128C7.78335 12.128 7.46191 11.8066 7.46191 11.4101C7.46191 11.0135 7.78335 10.6921 8.17986 10.6921C8.57638 10.6921 8.89781 11.0135 8.89781 11.4101Z" fill="#1C274C"/>
<path d="M8.89781 8.53826C8.89781 8.93477 8.57638 9.25621 8.17986 9.25621C7.78335 9.25621 7.46191 8.93477 7.46191 8.53826C7.46191 8.14175 7.78335 7.82031 8.17986 7.82031C8.57638 7.82031 8.89781 8.14175 8.89781 8.53826Z" fill="#1C274C"/>
<path d="M5.30797 11.4101C5.30797 11.8066 4.98653 12.128 4.59002 12.128C4.19351 12.128 3.87207 11.8066 3.87207 11.4101C3.87207 11.0135 4.19351 10.6921 4.59002 10.6921C4.98653 10.6921 5.30797 11.0135 5.30797 11.4101Z" fill="#1C274C"/>
<path d="M5.30797 8.53826C5.30797 8.93477 4.98653 9.25621 4.59002 9.25621C4.19351 9.25621 3.87207 8.93477 3.87207 8.53826C3.87207 8.14175 4.19351 7.82031 4.59002 7.82031C4.98653 7.82031 5.30797 8.14175 5.30797 8.53826Z" fill="#1C274C"/>
</svg>
