<svg width="15" height="16" viewBox="0 0 15 16" fill="none" xmlns="http://www.w3.org/2000/svg">
<path d="M11.6258 5.22753L11.9502 4.90312C12.4877 4.36563 13.3592 4.36563 13.8967 4.90312C14.4342 5.44062 14.4342 6.31207 13.8967 6.84957L13.5723 7.17398M11.6258 5.22753C11.6258 5.22753 11.6664 5.9169 12.2746 6.52516C12.8829 7.13343 13.5723 7.17398 13.5723 7.17398M11.6258 5.22753L8.64339 8.20996C8.44139 8.41197 8.34038 8.51297 8.25352 8.62434C8.15105 8.75571 8.0632 8.89786 7.99152 9.04826C7.93076 9.17576 7.88559 9.31127 7.79525 9.58229L7.50601 10.45L7.41244 10.7307M13.5723 7.17398L10.5898 10.1564C10.3878 10.3584 10.2868 10.4594 10.1755 10.5463C10.0441 10.6488 9.90195 10.7366 9.75155 10.8083C9.62405 10.869 9.48854 10.9142 9.21752 11.0046L8.3498 11.2938L8.06908 11.3874M8.06908 11.3874L7.78835 11.4809C7.65498 11.5254 7.50793 11.4907 7.40853 11.3913C7.30912 11.2919 7.2744 11.1448 7.31886 11.0115L7.41244 10.7307M8.06908 11.3874L7.41244 10.7307" stroke="#1C274C"/>
<path d="M4.5 8.7002H6.25" stroke="#1C274C" stroke-linecap="round"/>
<path d="M4.5 5.8999H9.05" stroke="#1C274C" stroke-linecap="round"/>
<path d="M4.5 11.5H5.55" stroke="#1C274C" stroke-linecap="round"/>
<path d="M12.7799 1.8201C11.9598 1 10.6399 1 8 1H6.6C3.96013 1 2.6402 1 1.8201 1.8201C1 2.6402 1 3.96013 1 6.6V9.4C1 12.0399 1 13.3598 1.8201 14.1799C2.6402 15 3.96013 15 6.6 15H8C10.6399 15 11.9598 15 12.7799 14.1799C13.4401 13.5197 13.5688 12.5357 13.5939 10.8" stroke="#1C274C" stroke-linecap="round"/>
</svg>
