<svg width="65" height="77" viewBox="0 0 65 77" fill="none" xmlns="http://www.w3.org/2000/svg">
<circle cx="32.5" cy="32.5" r="32.5" fill="#FFE7E7"/>
<rect x="14.04" y="16.4453" width="36.01" height="31.785" rx="15.8925" fill="#FDBAB9"/>
<path d="M14.04 24.895C14.04 22.4898 15.9898 20.54 18.395 20.54H43.225C45.6302 20.54 47.58 22.4898 47.58 24.895V43.875C47.58 46.2802 45.6302 48.23 43.225 48.23H18.395C15.9898 48.23 14.04 46.2802 14.04 43.875V24.895Z" fill="#FDBAB9"/>
<path d="M14.0391 20.54V43.7775C14.0391 46.5058 16.2508 48.7175 18.9791 48.7175H44.7841C46.1888 48.7175 47.4565 48.1313 48.356 47.19H45.6091C45.3445 47.2538 45.0682 47.2875 44.7841 47.2875H18.9791C17.0405 47.2875 15.4691 45.7161 15.4691 43.7775V20.54H14.0391Z" fill="#D65555"/>
<path d="M15.9583 20.54C16.5281 20.869 17.1577 21.0929 17.8175 21.1956C17.933 21.2135 18.0497 21.2225 18.1666 21.2225H18.5891V20.54H15.9583Z" fill="#D65555"/>
<path d="M18.0693 20.7349C18.0693 20.0888 18.5932 19.5649 19.2393 19.5649H44.3943C45.6867 19.5649 46.7343 20.6126 46.7343 21.9049H19.2393C18.5932 21.9049 18.0693 21.3811 18.0693 20.7349Z" fill="#D65555"/>
<path d="M17.6143 17.2251C15.8193 17.2251 14.3643 18.6802 14.3643 20.4751V21.0601H17.3543V20.9301C17.3543 19.4942 18.5183 18.3301 19.9543 18.3301H44.9793C46.4152 18.3301 47.5793 19.4942 47.5793 20.9301V30.5501H49.1393V20.4751C49.1393 18.6802 47.6842 17.2251 45.8893 17.2251H17.6143Z" fill="#D65555"/>
<path d="M20.2794 19.2401H44.9794C46.0564 19.2401 46.9294 20.1131 46.9294 21.1901V21.7038C47.5618 22.2377 48.0582 22.9276 48.3594 23.7141V21.1901C48.3594 19.3233 46.8461 17.8101 44.9794 17.8101H20.2794C18.6404 17.8101 17.2738 18.9767 16.9648 20.5248C16.9758 20.5266 16.9867 20.5284 16.9977 20.5301C17.0404 20.5367 17.0836 20.5401 17.1269 20.5401H18.4404C18.7081 19.7827 19.4304 19.2401 20.2794 19.2401Z" fill="#003550"/>
<path fill-rule="evenodd" clip-rule="evenodd" d="M47.254 44.5253V25.4803C47.254 23.5418 45.6825 21.9703 43.744 21.9703H17.1265C17.0097 21.9703 16.893 21.9613 16.7775 21.9433C15.9225 21.8103 15.1181 21.4737 14.429 20.9686V44.5253C14.429 46.4638 16.0005 48.0353 17.939 48.0353H43.744C45.6825 48.0353 47.254 46.4638 47.254 44.5253ZM13.0417 19.8148L12.999 20.5403V44.5253C12.999 47.2536 15.2107 49.4653 17.939 49.4653H43.744C46.4723 49.4653 48.684 47.2536 48.684 44.5253V25.4803C48.684 22.752 46.4723 20.5403 43.744 20.5403H17.1265C17.0833 20.5403 17.04 20.537 16.9973 20.5303C16.0934 20.3897 15.2666 19.9389 14.6589 19.2552L14.6227 19.2145C14.3009 18.8525 13.746 18.8215 13.386 19.1455L13.3466 19.181C13.1655 19.3439 13.056 19.5716 13.0417 19.8148Z" fill="#003550"/>
<path fill-rule="evenodd" clip-rule="evenodd" d="M14.7545 19.9908C15.4737 18.5291 17.2114 17.8863 18.7087 18.528L18.1454 19.8424C17.3472 19.5003 16.4209 19.843 16.0375 20.6221L15.4951 20.3552L16.0375 20.6221L16.0135 20.6709L14.7305 20.0395L14.7545 19.9908Z" fill="#003550"/>
<path d="M17.939 16.9652H46.019C47.9575 16.9652 49.529 18.5366 49.529 20.4752V43.4852C49.529 45.247 48.2309 46.7056 46.539 46.9569V48.3981C49.0229 48.1383 50.959 46.0378 50.959 43.4852V20.4752C50.959 17.7469 48.7473 15.5352 46.019 15.5352H17.939C15.2107 15.5352 12.999 17.7469 12.999 20.4752V33.1502H14.429V20.4752C14.429 18.5366 16.0005 16.9652 17.939 16.9652Z" fill="#003550"/>
<path d="M34.3193 34.3853C34.3193 31.9801 36.2691 30.0303 38.6743 30.0303H50.4393C51.3009 30.0303 51.9993 30.7287 51.9993 31.5903V35.8153C51.9993 37.6102 50.5443 39.0653 48.7493 39.0653H38.6743C36.2691 39.0653 34.3193 37.1155 34.3193 34.7103V34.3853Z" fill="#FDBAB9"/>
<path fill-rule="evenodd" clip-rule="evenodd" d="M50.4393 31.4603H38.6743C37.0589 31.4603 35.7493 32.7698 35.7493 34.3853V34.7103C35.7493 36.3257 37.0589 37.6353 38.6743 37.6353H48.7493C49.7545 37.6353 50.5693 36.8204 50.5693 35.8153V31.5903C50.5693 31.5185 50.5111 31.4603 50.4393 31.4603ZM38.6743 30.0303C36.2691 30.0303 34.3193 31.9801 34.3193 34.3853V34.7103C34.3193 37.1155 36.2691 39.0653 38.6743 39.0653H48.7493C50.5443 39.0653 51.9993 37.6102 51.9993 35.8153V31.5903C51.9993 30.7287 51.3009 30.0303 50.4393 30.0303H38.6743Z" fill="#003550"/>
<circle cx="39.5846" cy="34.5802" r="2.275" fill="#FDBAB9"/>
<path d="M15.7909 22.7577C15.8977 22.856 15.9858 22.9201 16.0552 22.9499C16.2043 23.014 16.3442 23.0714 16.475 23.1221C16.6125 23.176 16.7118 23.2307 16.7727 23.2863C16.9656 23.4625 16.9536 23.8263 16.7801 23.9931C16.5471 24.2181 16.134 24.0873 15.8623 23.9738C15.6336 23.8679 15.4496 23.7673 15.3104 23.6721C14.7998 23.323 15.0614 22.4146 15.7909 22.7577Z" fill="#003550"/>
<path d="M22.8149 24.1793C22.6641 24.18 22.4398 24.1266 22.3484 23.9931C22.0313 23.5306 22.4325 23.1334 22.9184 23.1314C23.5489 23.1283 24.1825 23.1252 24.8192 23.1221C24.9394 23.1212 25.0451 23.139 25.1363 23.1755C25.6616 23.3844 25.5127 24.1994 24.9007 24.19C24.2599 24.1811 23.5647 24.1776 22.8149 24.1793Z" fill="#003550"/>
<path d="M37.3632 23.1512L35.4637 23.1478C35.1898 23.1474 34.9674 23.369 34.9669 23.6429L34.9668 23.6816C34.9664 23.9555 35.188 24.1779 35.4619 24.1784L37.3614 24.1817C37.6353 24.1822 37.8577 23.9605 37.8582 23.6866L37.8583 23.6479C37.8587 23.374 37.6371 23.1516 37.3632 23.1512Z" fill="#003550"/>
<path d="M29.1323 23.1887L27.4637 23.1828C27.1968 23.1819 26.9797 23.3975 26.9788 23.6644L26.9786 23.7098C26.9777 23.9766 27.1933 24.1937 27.4602 24.1947L29.1288 24.2005C29.3956 24.2014 29.6127 23.9858 29.6137 23.719L29.6138 23.6736C29.6148 23.4067 29.3992 23.1896 29.1323 23.1887Z" fill="#003550"/>
<path d="M32.9126 23.1816H31.5617C31.2941 23.1816 31.0771 23.3986 31.0771 23.6662V23.7129C31.0771 23.9805 31.2941 24.1975 31.5617 24.1975H32.9126C33.1802 24.1975 33.3972 23.9805 33.3972 23.7129V23.6662C33.3972 23.3986 33.1802 23.1816 32.9126 23.1816Z" fill="#003550"/>
<path d="M41.0823 23.1866L39.8462 23.1844C39.579 23.184 39.3619 23.4002 39.3615 23.6675L39.3614 23.7169C39.3609 23.9841 39.5772 24.2012 39.8444 24.2016L41.0805 24.2038C41.3478 24.2042 41.5648 23.988 41.5653 23.7207L41.5654 23.6713C41.5658 23.4041 41.3495 23.1871 41.0823 23.1866Z" fill="#003550"/>
<path d="M20.1615 23.2017L18.9415 23.1974C18.6842 23.1965 18.4749 23.4044 18.474 23.6617L18.4737 23.7231C18.4728 23.9804 18.6807 24.1897 18.938 24.1906L20.1581 24.1948C20.4154 24.1957 20.6247 23.9879 20.6256 23.7306L20.6258 23.6692C20.6267 23.4119 20.4188 23.2026 20.1615 23.2017Z" fill="#003550"/>
<path d="M43.5175 24.1331C43.3146 24.0717 43.202 23.9498 43.1798 23.7673C43.131 23.3729 43.4474 23.1293 43.8385 23.2321C44.1224 23.3068 44.3723 23.4183 44.5881 23.5664C44.8344 23.7353 45.06 24.0684 44.9044 24.3754C44.797 24.5883 44.5307 24.7485 44.3118 24.579C44.0515 24.3767 43.8445 24.2319 43.5175 24.1331Z" fill="#003550"/>
<path d="M45.5332 25.4801L45.4825 25.4806C45.2311 25.4832 45.0295 25.6891 45.0321 25.9405L45.0423 26.9149C45.0449 27.1663 45.2509 27.368 45.5023 27.3653L45.553 27.3648C45.8044 27.3622 46.006 27.1563 46.0034 26.9049L45.9932 25.9305C45.9905 25.6791 45.7846 25.4774 45.5332 25.4801Z" fill="#003550"/>
<path d="M40.6998 36.5532C40.358 36.7454 40.0085 36.8402 39.6512 36.8375C38.9379 36.8326 38.3392 36.5712 37.8551 36.0532C37.3786 35.4646 37.2066 34.8374 37.3392 34.1717C37.751 32.1093 40.3607 31.6328 41.5047 33.3755C41.7192 33.7025 41.8411 34.0536 41.8705 34.4287C41.9405 35.3351 41.4927 36.1026 40.6998 36.5532ZM40.6464 34.7744C40.6815 34.3108 40.465 33.9403 39.9969 33.6631C39.8181 33.5697 39.6254 33.5405 39.4189 33.5757C39.2628 33.6024 39.1302 33.6427 39.0211 33.6965C38.6901 33.8607 38.5967 34.3573 38.6294 34.6937C38.7068 35.4979 39.6232 35.7869 40.2492 35.3544C40.4254 35.233 40.5578 35.0396 40.6464 34.7744Z" fill="#003550"/>
<path d="M46.0128 40.4351C46.0142 40.9868 46.0128 41.5288 46.0088 42.061C46.0075 42.2465 45.989 42.3795 45.9534 42.4601C45.8333 42.7284 45.4749 42.8252 45.2419 42.6363C45.1053 42.5259 45.0368 42.4025 45.0363 42.2659C45.0341 41.6603 45.035 41.0513 45.039 40.4391C45.043 40.0486 45.4562 39.799 45.7899 39.9832C45.9479 40.0704 46.0222 40.221 46.0128 40.4351Z" fill="#003550"/>
<path d="M44.9982 44.3355C45.006 44.68 45.24 44.9542 45.5208 44.9478C45.8016 44.9414 46.023 44.6569 46.0151 44.3124C46.0073 43.9678 45.7733 43.6936 45.4925 43.7C45.2117 43.7064 44.9904 43.9909 44.9982 44.3355Z" fill="#003550"/>
<path d="M15.9669 45.5369C16.1991 45.6977 16.912 45.97 16.8092 46.3425C16.689 46.7776 16.2545 46.8297 15.8894 46.6815C15.4761 46.5178 15.1877 46.2584 15.0244 45.9033C14.8502 45.5242 15.3255 45.1217 15.6899 45.3279C15.792 45.386 15.8708 45.4681 15.9669 45.5369Z" fill="#003550"/>
<path d="M44.3498 45.6256C44.5254 45.5214 44.7069 45.474 44.8731 45.6376C45.4745 46.2283 44.4993 46.7262 44.0955 46.9124C43.4441 47.2134 42.8594 46.2656 43.6277 45.9753C43.8724 45.8832 44.1131 45.7666 44.3498 45.6256Z" fill="#003550"/>
<path d="M20.1011 45.9756L18.8945 45.9609C18.6313 45.9577 18.4154 46.1684 18.4121 46.4316L18.4116 46.4783C18.4084 46.7415 18.6191 46.9574 18.8823 46.9607L20.0889 46.9754C20.3521 46.9786 20.568 46.7679 20.5713 46.5047L20.5718 46.458C20.575 46.1948 20.3643 45.9789 20.1011 45.9756Z" fill="#003550"/>
<path d="M24.4093 45.9663L22.6753 45.9694C22.4091 45.9698 22.1937 46.186 22.1942 46.4521L22.1943 46.4922C22.1947 46.7583 22.4109 46.9737 22.677 46.9732L24.411 46.9702C24.6772 46.9697 24.8925 46.7536 24.8921 46.4874L24.892 46.4474C24.8915 46.1813 24.6754 45.9659 24.4093 45.9663Z" fill="#003550"/>
<path d="M28.5184 45.9688H27.1622C26.8979 45.9688 26.6836 46.183 26.6836 46.4473V46.4927C26.6836 46.757 26.8979 46.9713 27.1622 46.9713H28.5184C28.7827 46.9713 28.9969 46.757 28.9969 46.4927V46.4473C28.9969 46.183 28.7827 45.9688 28.5184 45.9688Z" fill="#003550"/>
<path d="M32.6453 45.9739L31.0794 45.9685C30.8155 45.9675 30.6008 46.1808 30.5999 46.4447L30.5997 46.4861C30.5988 46.75 30.812 46.9647 31.076 46.9656L32.6418 46.9711C32.9057 46.972 33.1204 46.7588 33.1213 46.4949L33.1215 46.4535C33.1224 46.1896 32.9092 45.9749 32.6453 45.9739Z" fill="#003550"/>
<path d="M37.2791 45.9645L35.3329 45.9679C35.0649 45.9684 34.848 46.186 34.8485 46.454L34.8486 46.494C34.849 46.762 35.0667 46.9789 35.3346 46.9784L37.2809 46.975C37.5489 46.9745 37.7658 46.7569 37.7653 46.4889L37.7652 46.4489C37.7648 46.1809 37.5471 45.964 37.2791 45.9645Z" fill="#003550"/>
<path d="M41.1691 45.9712H39.8115C39.5634 45.9712 39.3623 46.1723 39.3623 46.4204V46.5205C39.3623 46.7686 39.5634 46.9697 39.8115 46.9697H41.1691C41.4172 46.9697 41.6183 46.7686 41.6183 46.5205V46.4204C41.6183 46.1723 41.4172 45.9712 41.1691 45.9712Z" fill="#003550"/>
<path d="M12.2063 68.4C12.9689 68.4 13.5983 68.672 14.0943 69.216C14.5956 69.7547 14.8463 70.416 14.8463 71.2C14.8463 71.984 14.5956 72.648 14.0943 73.192C13.5983 73.7307 12.9689 74 12.2063 74H10.0463V68.4H12.2063ZM12.2063 73.472C12.8196 73.472 13.3209 73.2533 13.7103 72.816C14.1049 72.3787 14.3023 71.84 14.3023 71.2C14.3023 70.56 14.1049 70.0213 13.7103 69.584C13.3209 69.1467 12.8196 68.928 12.2063 68.928H10.6063V73.472H12.2063ZM17.5721 69.904C18.1641 69.904 18.6414 70.1147 19.0041 70.536C19.3721 70.952 19.5561 71.4453 19.5561 72.016C19.5561 72.0747 19.5507 72.1573 19.5401 72.264H16.0281C16.0814 72.6693 16.2521 72.992 16.5401 73.232C16.8334 73.4667 17.1934 73.584 17.6201 73.584C17.9241 73.584 18.1854 73.5227 18.4041 73.4C18.6281 73.272 18.7961 73.1067 18.9081 72.904L19.3721 73.176C19.1961 73.4587 18.9561 73.6827 18.6521 73.848C18.3481 74.0133 18.0014 74.096 17.6121 74.096C16.9827 74.096 16.4707 73.8987 16.0761 73.504C15.6814 73.1093 15.4841 72.608 15.4841 72C15.4841 71.4027 15.6787 70.904 16.0681 70.504C16.4574 70.104 16.9587 69.904 17.5721 69.904ZM17.5721 70.416C17.1561 70.416 16.8067 70.5413 16.5241 70.792C16.2467 71.0373 16.0814 71.3573 16.0281 71.752H19.0121C18.9587 71.3307 18.7961 71.0027 18.5241 70.768C18.2521 70.5333 17.9347 70.416 17.5721 70.416ZM22.5399 69.904C23.1106 69.904 23.5959 70.1067 23.9959 70.512C24.4013 70.9173 24.6039 71.4133 24.6039 72C24.6039 72.5867 24.4013 73.0827 23.9959 73.488C23.5959 73.8933 23.1106 74.096 22.5399 74.096C21.8306 74.096 21.2919 73.8027 20.9239 73.216V75.6H20.3959V70H20.9239V70.784C21.2919 70.1973 21.8306 69.904 22.5399 69.904ZM21.3799 73.128C21.6839 73.432 22.0573 73.584 22.4999 73.584C22.9426 73.584 23.3159 73.432 23.6199 73.128C23.9239 72.8187 24.0759 72.4427 24.0759 72C24.0759 71.5573 23.9239 71.184 23.6199 70.88C23.3159 70.5707 22.9426 70.416 22.4999 70.416C22.0573 70.416 21.6839 70.5707 21.3799 70.88C21.0759 71.184 20.9239 71.5573 20.9239 72C20.9239 72.4427 21.0759 72.8187 21.3799 73.128ZM27.5238 70.512H26.3718V72.936C26.3718 73.1547 26.4144 73.312 26.4998 73.408C26.5851 73.4987 26.7131 73.5467 26.8838 73.552C27.0544 73.552 27.2678 73.5467 27.5238 73.536V74C26.9638 74.0853 26.5424 74.0453 26.2598 73.88C25.9824 73.7147 25.8438 73.4 25.8438 72.936V70.512H25.0038V70H25.8438V69.04L26.3718 68.88V70H27.5238V70.512ZM31.0438 73.472H33.6038V74H30.4838V68.4H31.0438V73.472ZM35.9705 69.904C36.5625 69.904 37.0398 70.1147 37.4025 70.536C37.7705 70.952 37.9545 71.4453 37.9545 72.016C37.9545 72.0747 37.9492 72.1573 37.9385 72.264H34.4265C34.4798 72.6693 34.6505 72.992 34.9385 73.232C35.2318 73.4667 35.5918 73.584 36.0185 73.584C36.3225 73.584 36.5838 73.5227 36.8025 73.4C37.0265 73.272 37.1945 73.1067 37.3065 72.904L37.7705 73.176C37.5945 73.4587 37.3545 73.6827 37.0505 73.848C36.7465 74.0133 36.3998 74.096 36.0105 74.096C35.3812 74.096 34.8692 73.8987 34.4745 73.504C34.0798 73.1093 33.8825 72.608 33.8825 72C33.8825 71.4027 34.0772 70.904 34.4665 70.504C34.8558 70.104 35.3572 69.904 35.9705 69.904ZM35.9705 70.416C35.5545 70.416 35.2052 70.5413 34.9225 70.792C34.6452 71.0373 34.4798 71.3573 34.4265 71.752H37.4105C37.3572 71.3307 37.1945 71.0027 36.9225 70.768C36.6505 70.5333 36.3332 70.416 35.9705 70.416ZM42.2344 68.4H42.7624V74H42.2344V73.216C41.8664 73.8027 41.3277 74.096 40.6184 74.096C40.0477 74.096 39.5597 73.8933 39.1544 73.488C38.7544 73.0827 38.5544 72.5867 38.5544 72C38.5544 71.4133 38.7544 70.9173 39.1544 70.512C39.5597 70.1067 40.0477 69.904 40.6184 69.904C41.3277 69.904 41.8664 70.1973 42.2344 70.784V68.4ZM39.5384 73.128C39.8424 73.432 40.2157 73.584 40.6584 73.584C41.101 73.584 41.4744 73.432 41.7784 73.128C42.0824 72.8187 42.2344 72.4427 42.2344 72C42.2344 71.5573 42.0824 71.184 41.7784 70.88C41.4744 70.5707 41.101 70.416 40.6584 70.416C40.2157 70.416 39.8424 70.5707 39.5384 70.88C39.2344 71.184 39.0824 71.5573 39.0824 72C39.0824 72.4427 39.2344 72.8187 39.5384 73.128ZM47.3203 70H47.8483V73.84C47.8483 74.416 47.651 74.8693 47.2563 75.2C46.8616 75.5307 46.3896 75.696 45.8403 75.696C44.9016 75.696 44.2696 75.3707 43.9443 74.72L44.4083 74.456C44.6483 74.9413 45.1256 75.184 45.8403 75.184C46.299 75.184 46.659 75.0613 46.9203 74.816C47.187 74.576 47.3203 74.2507 47.3203 73.84V73.216C46.9523 73.8027 46.4136 74.096 45.7043 74.096C45.1336 74.096 44.6456 73.8933 44.2403 73.488C43.8403 73.0827 43.6403 72.5867 43.6403 72C43.6403 71.4133 43.8403 70.9173 44.2403 70.512C44.6456 70.1067 45.1336 69.904 45.7043 69.904C46.4136 69.904 46.9523 70.1973 47.3203 70.784V70ZM44.6243 73.128C44.9283 73.432 45.3016 73.584 45.7443 73.584C46.187 73.584 46.5603 73.432 46.8643 73.128C47.1683 72.8187 47.3203 72.4427 47.3203 72C47.3203 71.5573 47.1683 71.184 46.8643 70.88C46.5603 70.5707 46.187 70.416 45.7443 70.416C45.3016 70.416 44.9283 70.5707 44.6243 70.88C44.3203 71.184 44.1683 71.5573 44.1683 72C44.1683 72.4427 44.3203 72.8187 44.6243 73.128ZM50.8143 69.904C51.4063 69.904 51.8836 70.1147 52.2463 70.536C52.6143 70.952 52.7983 71.4453 52.7983 72.016C52.7983 72.0747 52.7929 72.1573 52.7823 72.264H49.2703C49.3236 72.6693 49.4943 72.992 49.7823 73.232C50.0756 73.4667 50.4356 73.584 50.8623 73.584C51.1663 73.584 51.4276 73.5227 51.6463 73.4C51.8703 73.272 52.0383 73.1067 52.1503 72.904L52.6143 73.176C52.4383 73.4587 52.1983 73.6827 51.8943 73.848C51.5903 74.0133 51.2436 74.096 50.8543 74.096C50.2249 74.096 49.7129 73.8987 49.3183 73.504C48.9236 73.1093 48.7263 72.608 48.7263 72C48.7263 71.4027 48.9209 70.904 49.3103 70.504C49.6996 70.104 50.2009 69.904 50.8143 69.904ZM50.8143 70.416C50.3983 70.416 50.0489 70.5413 49.7663 70.792C49.4889 71.0373 49.3236 71.3573 49.2703 71.752H52.2543C52.2009 71.3307 52.0383 71.0027 51.7663 70.768C51.4943 70.5333 51.1769 70.416 50.8143 70.416ZM54.1661 70.664C54.4115 70.1787 54.8328 69.936 55.4301 69.936V70.448C55.0675 70.448 54.7661 70.5547 54.5261 70.768C54.2861 70.9813 54.1661 71.3173 54.1661 71.776V74H53.6381V70H54.1661V70.664Z" fill="#2E3553"/>
</svg>
