<svg width="65" height="65" viewBox="0 0 65 65" fill="none" xmlns="http://www.w3.org/2000/svg">
<circle cx="32.5" cy="32.5" r="32.5" fill="#E7FFE8"/>
<path fill-rule="evenodd" clip-rule="evenodd" d="M16.4326 51.3336C16.4326 50.9657 16.7309 50.6675 17.0988 50.6675L47.8627 50.6675C48.2306 50.6675 48.5289 50.9657 48.5289 51.3336C48.5289 51.7015 48.2306 51.9998 47.8627 51.9998L17.0988 51.9998C16.7309 51.9998 16.4326 51.7015 16.4326 51.3336Z" fill="#003550"/>
<circle cx="49.9523" cy="51.3033" r="0.514751" fill="#003550"/>
<circle cx="15.0099" cy="51.3033" r="0.514751" fill="#003550"/>
<path d="M27.0312 28.7451V35.8911C27.0312 39.1688 29.6883 41.8259 32.966 41.8259C36.2437 41.8259 38.9008 39.1688 38.9008 35.8911V28.7451H37.8107V35.8911C37.8107 38.5667 35.6417 40.7358 32.966 40.7358C30.2904 40.7358 28.1213 38.5667 28.1213 35.8911V28.7451H27.0312Z" fill="#48BFAA"/>
<path d="M26.6064 28.9878V35.2859C26.6064 38.5636 29.2635 41.2207 32.5412 41.2207C35.8189 41.2207 38.476 38.5636 38.476 35.2859V28.9878H37.3859V35.2859C37.3859 37.9616 35.2169 40.1306 32.5412 40.1306C29.8656 40.1306 27.6965 37.9616 27.6965 35.2859V28.9878H26.6064Z" fill="#003550"/>
<circle cx="37.9006" cy="28.7756" r="0.999223" fill="#003550"/>
<circle cx="27.1818" cy="28.7756" r="0.999223" fill="#003550"/>
<path d="M33.2184 14.046L33.5971 14.0454L33.5929 15.1938C33.5784 15.195 33.5641 15.196 33.55 15.1968H33.2721C33.2577 15.1968 33.2439 15.1911 33.2337 15.1809C33.2235 15.1707 33.2178 15.1569 33.2178 15.1425L33.2184 14.046Z" fill="#D5F0F5"/>
<path d="M31.7864 16.2524L33.5461 16.2555L33.5479 17.0112C33.5479 17.0482 33.5294 17.0668 33.4924 17.0668L31.8268 17.0728C31.7713 17.0732 31.7451 17.0456 31.7483 16.9901L31.7864 16.2524Z" fill="#D5F0F5"/>
<path d="M33.813 17.9417C34.0019 18.2574 34.1956 18.5709 34.3942 18.8822C34.668 19.3112 34.8517 19.6301 34.9451 19.8391C35.1654 20.3325 35.312 20.8524 35.3849 21.3989C35.1243 21.6535 34.9139 21.9374 34.7536 22.2507C34.7407 22.2757 34.7204 22.2882 34.6926 22.2882L30.1521 22.2761C30.0309 22.2982 29.9735 22.2702 29.98 22.1921C30.0054 21.8929 30.0738 21.5274 30.1854 21.0957C30.2671 20.7791 30.3918 20.4815 30.5593 20.2028C30.5718 20.1823 30.5662 20.1702 30.5424 20.1666C30.5323 20.165 30.5196 20.1668 30.5043 20.172C30.5684 20.1458 30.6298 20.1128 30.6886 20.0729C30.8062 19.994 30.8531 19.8967 30.8293 19.7811C30.806 19.6668 30.785 19.5588 30.7665 19.4573C31.108 19.0079 31.4022 18.5288 31.6491 18.0202C31.6664 17.9843 31.6888 17.9634 31.7162 17.9574C31.7411 17.9521 31.7742 17.9491 31.8152 17.9483C32.5454 17.935 33.1018 17.9352 33.4844 17.9489C33.6398 17.9545 33.7494 17.9521 33.813 17.9417Z" fill="#D5F0F5"/>
<path d="M28.6564 23.2773L33.508 23.2864C33.6211 23.315 33.6592 23.4507 33.6221 23.6936C33.5955 23.8676 33.5873 24.0236 33.5974 24.1618L29.1602 24.1889C29.1087 24.1893 29.0827 24.2155 29.0823 24.2675L29.0781 25.1519C28.9979 25.1648 28.9492 25.1519 28.9319 25.1132C28.7982 24.8136 28.6679 24.5105 28.541 24.204L28.9766 24.1883C29.0289 24.1863 29.0581 24.1593 29.0642 24.1074C29.0867 23.906 29.095 23.6906 29.0889 23.461C29.0869 23.3925 29.0591 23.3394 29.0056 23.3015C28.9929 23.2928 28.9781 23.2878 28.9627 23.287L28.6564 23.2773Z" fill="#D5F0F5"/>
<path d="M42.1767 17.1791C42.4741 17.1684 42.6878 17.3694 42.8456 17.6057C43.3221 18.3207 43.6618 19.1219 43.8647 20.0096C43.8617 20.0936 43.858 20.1881 43.8534 20.2931C43.8483 20.4141 43.8286 20.508 43.7943 20.5748C43.6805 20.7947 43.2781 20.9219 43.0858 20.685C43.0145 20.5972 42.9632 20.4956 42.9318 20.3801C42.8165 19.9549 42.6774 19.5355 42.5143 19.1217L41.98 18.0695C41.8463 17.8863 41.7895 17.7202 41.8096 17.571C41.8398 17.3505 41.9622 17.2199 42.1767 17.1791Z" fill="#003550"/>
<path d="M22.6002 18.7035C22.7706 19.0273 22.6165 19.3185 22.3398 19.5191C21.8203 19.896 21.2881 20.2545 20.7432 20.5944C20.6981 20.6222 20.6353 20.648 20.5547 20.6717C20.1421 20.682 19.918 20.2652 20.0606 19.9136C20.1045 19.806 20.2015 19.6969 20.3517 19.5861C20.8523 19.2176 21.3354 18.8928 21.801 18.6117C22.0837 18.4414 22.3501 18.472 22.6002 18.7035Z" fill="#003550"/>
<path d="M23.5194 20.726C23.6233 20.9447 23.6245 21.137 23.523 21.3029C23.4731 21.3847 23.3408 21.497 23.1261 21.64C22.6783 21.938 22.232 22.2403 21.7874 22.5468C21.6968 22.6092 21.5746 22.6732 21.4207 22.7389C20.9622 22.7818 20.7067 22.3541 20.9024 21.956C20.9403 21.879 21.0554 21.7709 21.2479 21.6315C21.6322 21.3541 22.025 21.0715 22.4266 20.784C22.5987 20.6608 22.9213 20.4457 23.1406 20.5164C23.284 20.5623 23.4102 20.6322 23.5194 20.726Z" fill="#003550"/>
<path d="M24.4272 22.643C24.7341 22.9632 24.5546 23.3407 24.2369 23.5461C23.6843 23.903 23.1509 24.2511 22.6366 24.5906C22.5388 24.6551 22.4137 24.6939 22.2615 24.7072C21.8585 24.6257 21.6562 24.2324 21.9189 23.8784C22.0011 23.7676 22.1785 23.6247 22.4512 23.4495C22.8744 23.1776 23.2532 22.9237 23.5875 22.6877C23.8722 22.4867 24.1521 22.4718 24.4272 22.643Z" fill="#003550"/>
<path d="M43.8377 14.0898C43.8718 14.0939 43.8892 14.1065 43.8901 14.1275C43.888 14.1539 43.8815 14.1751 43.8706 14.1913C43.8596 14.2071 43.8598 14.2225 43.8712 14.2375C44.0145 14.4352 44.0904 14.6266 44.0989 14.8117C44.1342 15.5786 44.0447 16.3594 43.971 17.1646C43.9187 17.7382 43.8706 18.3118 43.8267 18.8855C43.8146 19.0475 43.8107 19.227 43.8152 19.4239C43.8192 19.5981 43.8154 19.7781 43.8036 19.9641C43.6072 19.1081 43.2782 18.3353 42.8167 17.6459C42.6639 17.418 42.4569 17.2241 42.1689 17.2345C42.2237 17.2381 42.2726 17.2316 42.3157 17.215C42.3347 17.2077 42.3453 17.1938 42.3473 17.1731C42.353 17.114 42.368 17.0578 42.3924 17.0048C42.4301 16.9217 42.4711 16.8391 42.5154 16.7569C42.56 16.6738 42.5929 16.5869 42.614 16.4962C42.6436 16.3698 42.6803 16.2541 42.7242 16.1492C42.7928 15.9835 42.8658 15.8142 42.9434 15.6412C43.1292 15.2251 43.3567 14.8411 43.6258 14.4891C43.6932 14.4008 43.7573 14.31 43.8182 14.2168C43.8438 14.1773 43.8383 14.1354 43.8377 14.0898Z" fill="#FFCA93"/>
<path d="M22.2233 16.7013C22.1967 16.713 22.1792 16.719 22.1708 16.7195C22.1088 16.7219 22.1055 16.7368 22.1611 16.7642C22.3544 16.8592 22.5242 16.9949 22.6704 17.1713C23.0336 17.6095 23.2366 18.1272 23.2793 18.7245C23.2978 18.9846 23.3514 19.244 23.44 19.5026C23.6399 20.0879 24.0374 20.5972 24.2682 21.1874C24.5219 21.8344 24.8778 22.3986 25.21 22.9955C25.2801 23.1219 25.3633 23.3003 25.4595 23.5307C25.538 23.7192 25.62 23.8982 25.7054 24.0678C25.7356 24.1278 25.8161 24.305 25.947 24.5994C26.0288 24.7834 26.1299 24.9602 26.2503 25.1298L25.7597 25.137C25.7553 25.1371 25.7509 25.1361 25.7469 25.1342C25.7429 25.1323 25.7394 25.1294 25.7367 25.1259C25.734 25.1224 25.7322 25.1183 25.7313 25.1139C25.7305 25.1095 25.7307 25.105 25.732 25.1008C25.764 24.9914 25.8063 24.8754 25.7996 24.7607C25.7879 24.575 25.7068 24.4427 25.5562 24.3638C25.294 24.2268 25.0358 24.2526 24.7817 24.4411C24.4921 24.6558 24.1893 24.8801 23.8731 25.1141C23.8363 25.1415 23.7913 25.1561 23.7451 25.1558L22.8305 25.1485C23.3814 24.755 23.9277 24.3571 24.4694 23.9548C24.6716 23.805 24.8041 23.6437 24.8669 23.4709C24.9204 23.3227 24.9152 23.1509 24.8512 22.9556C24.8226 22.869 24.7668 22.8002 24.6838 22.749C24.6049 22.6999 24.5193 22.6644 24.4271 22.6427C24.152 22.4715 23.8721 22.4864 23.5874 22.6874C23.2531 22.9234 22.8743 23.1773 22.4511 23.4492C22.1784 23.6244 22.001 23.7673 21.9189 23.8781C21.6561 24.2321 21.8585 24.6253 22.2614 24.7069C22.2066 24.715 22.1861 24.7804 22.1998 24.9032C22.2022 24.9242 22.1976 24.9433 22.1859 24.9606C22.1782 24.9719 22.169 24.9814 22.1581 24.989C22.1424 25.0003 22.1323 25.0154 22.1279 25.0343C22.1166 25.0871 22.1277 25.1231 22.1611 25.1425L21.6023 25.1443L20.8683 23.7119C20.8645 23.7045 20.8625 23.6963 20.8624 23.688C20.8624 23.6796 20.8644 23.6714 20.8681 23.664C20.8719 23.6565 20.8774 23.6501 20.8842 23.6452C20.8909 23.6403 20.8987 23.6371 20.907 23.6358C21.1261 23.602 21.3413 23.511 21.5528 23.3628C22.0026 23.0474 22.5197 22.683 23.1041 22.2693C23.2874 22.1397 23.4571 22.0104 23.6134 21.8815C23.795 21.7317 23.8987 21.5625 23.9245 21.3741C23.943 21.242 23.9233 21.1111 23.8653 20.9814C23.7835 20.7986 23.6683 20.7134 23.5197 20.7259C23.4106 20.632 23.2843 20.5622 23.141 20.5162C22.9217 20.4456 22.5991 20.6606 22.4269 20.7839C22.0254 21.0714 21.6325 21.3539 21.2483 21.6314C21.0558 21.7708 20.9406 21.8789 20.9028 21.9558C20.707 22.3539 20.9626 22.7816 21.4211 22.7387C21.3107 22.9691 21.0868 23.0434 20.7493 22.9616C20.5536 22.9145 20.318 22.4035 20.2509 22.2301C20.1718 22.0235 20.0612 21.8386 19.9688 21.6362C19.9646 21.627 19.9626 21.6169 19.9629 21.6068C19.9632 21.5966 19.9659 21.5867 19.9707 21.5777C19.9755 21.5688 19.9823 21.5611 19.9905 21.5552C19.9988 21.5493 20.0083 21.5454 20.0184 21.5438C20.3196 21.4971 20.6057 21.3779 20.8768 21.1862C21.3504 20.8515 21.8123 20.5203 22.2626 20.1924C22.4458 20.0591 22.6321 19.8872 22.8214 19.6765C23.0165 19.4591 23.057 19.2084 22.9132 18.9534C22.8149 18.7794 22.7106 18.6961 22.6003 18.7033C22.3502 18.4718 22.0838 18.4411 21.8011 18.6115C21.3355 18.8926 20.8524 19.2174 20.3518 19.5859C20.2016 19.6967 20.1045 19.8058 20.0606 19.9133C19.9181 20.2649 20.1422 20.6818 20.5548 20.6715C20.3603 20.9578 20.1122 21.0176 19.8105 20.8509C19.6752 20.776 19.5882 20.6586 19.5496 20.4987C19.527 20.4041 19.5006 20.3096 19.4704 20.2154C19.4177 20.0519 19.3939 19.8952 19.3991 19.7454C19.4028 19.6471 19.405 19.5491 19.4058 19.4512C19.4076 19.2966 19.4553 19.1673 19.5006 19.0235C19.5345 18.9148 19.5637 18.8064 19.5882 18.6985C19.612 18.5946 19.6529 18.4901 19.7109 18.385C19.7149 18.3777 19.7211 18.3735 19.7296 18.3723C19.7417 18.3711 19.7497 18.3648 19.7538 18.3535C19.9257 17.8582 20.2235 17.4842 20.6472 17.2317C21.0709 16.9796 21.5262 16.8036 22.0131 16.7037C22.0699 16.6921 22.14 16.6913 22.2233 16.7013Z" fill="#FFCA93"/>
<path d="M41.9996 18.0869L42.5185 19.1005C42.4929 19.2284 42.4835 19.3299 42.4904 19.4052C42.5681 20.2379 42.5382 21.0666 42.4007 21.8913C42.3942 21.9285 42.3956 21.9702 42.405 22.0163C42.4208 22.0988 42.4094 22.1415 42.3708 22.1444C41.9716 21.9081 41.541 21.7942 41.0791 21.8027C41.1707 21.1265 41.3149 20.4625 41.5119 19.8106C41.5827 19.5758 41.7243 19.2929 41.7933 19.0216C41.8051 18.9747 41.822 18.9292 41.844 18.8851C41.8664 18.8409 41.8834 18.7966 41.8952 18.7521C41.9551 18.5267 41.9899 18.305 41.9996 18.0869Z" fill="#FFCA93"/>
<path d="M35.6892 25.1709L34.9915 25.1721C34.9694 25.1721 34.9601 25.162 34.9636 25.1419L35.178 23.9734C35.44 23.9446 35.7044 23.9656 35.9713 24.0364C35.9752 24.0376 35.9788 24.0394 35.9819 24.0419C35.985 24.0443 35.9875 24.0473 35.9893 24.0506C35.9911 24.054 35.9921 24.0576 35.9924 24.0614C35.9926 24.0651 35.9919 24.0688 35.9905 24.0723C35.8445 24.4197 35.744 24.7859 35.6892 25.1709Z" fill="#FFCA93"/>
<path d="M43.8924 14.1593C43.8969 14.1569 43.9013 14.1543 43.9058 14.1515C43.909 14.1499 43.9123 14.1501 43.9155 14.1521C44.3318 14.3931 44.5703 14.8165 44.6677 15.2894C44.6949 15.4223 44.7097 15.6182 44.7121 15.8771C44.7186 16.6441 44.6999 17.4444 44.6561 18.2779C44.6415 18.5489 44.6166 18.8294 44.5813 19.1193C44.5464 19.4068 44.5178 19.6901 44.4955 19.9691C44.4894 20.0404 44.4839 20.0996 44.4279 20.1509C43.722 20.7943 43.1106 21.4942 42.5938 22.2504C42.5889 22.2577 42.5812 22.2628 42.5725 22.2646C42.5637 22.2664 42.5546 22.2648 42.5469 22.26L42.3516 22.1386C42.3901 22.1358 42.4015 22.0933 42.3856 22.0112C42.3763 21.9653 42.3749 21.9238 42.3814 21.8868C42.5185 21.0661 42.5483 20.2415 42.4708 19.4128C42.4639 19.3379 42.4733 19.2369 42.4988 19.1096C42.6566 19.5062 42.7913 19.9083 42.9029 20.3158C42.9333 20.4265 42.983 20.524 43.052 20.6081C43.2382 20.8352 43.6277 20.7132 43.7378 20.5024C43.7711 20.4384 43.7902 20.3484 43.795 20.2324C43.7995 20.1318 43.8031 20.0412 43.806 19.9606C43.8177 19.7758 43.8216 19.5968 43.8175 19.4237C43.8131 19.228 43.8169 19.0496 43.8291 18.8886C43.8729 18.3184 43.921 17.7482 43.9733 17.1781C44.047 16.3778 44.1364 15.6016 44.1011 14.8394C44.0926 14.6554 44.0167 14.4651 43.8735 14.2686C43.8622 14.2537 43.862 14.2384 43.8729 14.2227C43.8839 14.2066 43.8904 14.1855 43.8924 14.1593Z" fill="#FFA16A"/>
<path d="M22.2744 16.6118C22.3473 16.6187 22.3969 16.6253 22.423 16.6318C23.3262 16.8589 24.1254 17.3682 24.5785 18.1958C24.6824 18.3851 24.7801 18.581 24.8715 18.7836C25.2956 19.7223 25.7535 20.6581 26.1782 21.609C26.6405 22.644 27.103 23.654 27.5658 24.6391C27.6306 24.7773 27.6977 24.9172 27.7669 25.059C27.7847 25.0956 27.7734 25.1142 27.7331 25.1146L26.2506 25.1297C26.1302 24.9601 26.0291 24.7833 25.9474 24.5993C25.8165 24.3049 25.7359 24.1277 25.7057 24.0677C25.6204 23.8981 25.5384 23.7191 25.4599 23.5306C25.3636 23.3002 25.2805 23.1218 25.2104 22.9954C24.8781 22.3985 24.5223 21.8343 24.2686 21.1873C24.0378 20.5971 23.6403 20.0878 23.4404 19.5024C23.3518 19.2439 23.2982 18.9845 23.2797 18.7244C23.237 18.1271 23.034 17.6094 22.6707 17.1712C22.5245 16.9948 22.3548 16.8591 22.1615 16.7641C22.1059 16.7367 22.1091 16.7218 22.1711 16.7193C22.1796 16.7189 22.1971 16.7129 22.2237 16.7012C22.2305 16.6964 22.2384 16.6936 22.2473 16.6928C22.2601 16.6916 22.2686 16.6847 22.2726 16.6722C22.2791 16.6529 22.2797 16.6328 22.2744 16.6118Z" fill="#FFA16A"/>
<path d="M39.01 21.8437C39.1169 21.9928 39.2149 22.1463 39.3039 22.3043C39.4435 22.5507 39.5422 22.7018 39.6002 22.7576C39.8886 23.0327 40.2773 23.0212 40.66 22.8952C40.7486 22.8661 40.8383 22.8499 40.9294 22.8467C42.2647 22.7958 42.8365 23.9975 42.6045 25.1466C42.6029 25.1538 42.5989 25.1603 42.5931 25.1649C42.5873 25.1696 42.5801 25.1721 42.5726 25.1721L35.6169 25.169C35.6675 24.7913 35.7602 24.4319 35.8949 24.0909C35.8962 24.0875 35.8968 24.0838 35.8966 24.0802C35.8964 24.0765 35.8954 24.073 35.8938 24.0697C35.8921 24.0664 35.8898 24.0634 35.8869 24.061C35.8841 24.0586 35.8807 24.0568 35.8771 24.0557C35.631 23.9862 35.3871 23.9656 35.1455 23.9939L35.2992 23.3988L35.9555 23.4376C35.9822 23.4392 36.0087 23.433 36.0318 23.4197C36.0549 23.4065 36.0735 23.3867 36.0853 23.363C36.1841 23.1647 36.2808 22.9756 36.3755 22.7958C36.5751 22.417 36.9743 22.174 37.3747 22.0049C37.5653 21.9245 37.7806 21.8758 38.0206 21.8588C38.3055 21.839 38.5369 21.836 38.7149 21.8497C38.792 21.8558 38.8679 21.8683 38.9426 21.8873C38.9855 21.8982 39.0079 21.8837 39.01 21.8437Z" fill="#FFA16A"/>
<path d="M44.2432 26.164L45.5003 26.1616C45.5208 26.1612 45.5333 26.1711 45.5378 26.1912C45.5627 26.298 45.5752 26.4067 45.5752 26.5175C45.5728 33.8253 45.5692 41.3361 45.5613 48.9587C45.5609 49.3904 45.5321 49.7066 45.4749 49.9071C45.3364 50.3936 45.008 50.8115 44.4896 51.1606C44.4663 51.1763 44.4546 51.1701 44.4546 51.1419L44.4498 49.2788L44.4582 49.7476C44.4598 49.8435 44.4947 49.8576 44.5627 49.7899L44.6739 49.68C44.7328 49.6219 44.7692 49.5448 44.7766 49.4625C44.7846 49.3755 44.7881 49.2682 44.7869 49.1405C44.7736 47.7257 44.7776 46.3566 44.7989 45.0332C44.8199 43.7694 44.8195 41.4889 44.7977 38.1917C44.7949 37.7777 44.7941 37.375 44.7953 36.9835C44.7993 35.9239 44.801 34.7107 44.8001 33.3438C44.7985 30.9705 44.8002 28.6125 44.805 26.2698C44.805 26.2086 44.7746 26.1773 44.7138 26.1761L44.2432 26.164Z" fill="#E7FFE8"/>
<path d="M43.4177 50.2676L43.4086 51.1816C43.4085 51.2082 43.3978 51.2337 43.3789 51.2525C43.36 51.2713 43.3344 51.2819 43.3077 51.2819L21.7678 51.2891C21.7487 51.2891 21.7297 51.2853 21.7121 51.2779C21.6945 51.2705 21.6785 51.2596 21.6651 51.2459C21.6517 51.2323 21.6412 51.2161 21.6341 51.1983C21.6271 51.1805 21.6237 51.1614 21.6241 51.1423L21.6404 50.2356C22.4648 50.2235 23.2892 50.2124 24.1136 50.2023C24.499 50.1975 24.9017 50.1965 25.3218 50.1993C26.7293 50.2094 28.0531 50.214 29.2931 50.2132C33.7522 50.21 38.2043 50.2112 42.6493 50.2168C42.7975 50.2172 42.9867 50.2275 43.2171 50.2476C43.2807 50.2533 43.3476 50.2599 43.4177 50.2676Z" fill="#FFA16A"/>
<path d="M30.5428 14.0474L30.5332 15.1897L30.0529 15.1867L30.0469 14.0522L30.5428 14.0474Z" fill="#74C8E1"/>
<path d="M30.9248 14.0464L31.4093 14.0476L31.4165 15.1906L30.9266 15.1869L30.9248 14.0464Z" fill="#74C8E1"/>
<path d="M31.7969 14.0456L32.3049 14.0444L32.2989 15.1904L31.8096 15.1892L31.7969 14.0456Z" fill="#74C8E1"/>
<path d="M32.6807 14.0444L33.2189 14.0456L33.2183 15.1421C33.2183 15.1565 33.224 15.1703 33.2342 15.1805C33.2444 15.1907 33.2583 15.1965 33.2727 15.1965H33.5506L32.6819 15.194L32.6807 14.0444Z" fill="#74C8E1"/>
<path d="M34.0403 14.0469L34.4958 14.0505L34.4874 15.1107C34.487 15.159 34.4626 15.1832 34.4143 15.1832H34.2131C34.1346 15.1832 34.0951 15.1439 34.0947 15.0654L34.0893 14.1894C34.0889 14.1665 34.0826 14.1451 34.0705 14.1254C34.0564 14.1012 34.0381 14.0894 34.0156 14.0898C33.9813 14.0902 33.9793 14.0821 34.0095 14.0656C34.02 14.06 34.0303 14.0537 34.0403 14.0469Z" fill="#74C8E1"/>
<path d="M34.8359 14.0596C35.0981 14.0487 35.3253 14.2179 35.3253 14.4855C35.3249 14.746 35.3237 14.975 35.3216 15.1723C35.3215 15.1796 35.3185 15.1865 35.3133 15.1916C35.3081 15.1967 35.3011 15.1995 35.2938 15.1995L34.9713 15.2007C34.9636 14.8564 34.9614 14.5104 34.9646 14.1629C34.965 14.121 34.9221 14.0866 34.8359 14.0596Z" fill="#74C8E1"/>
<path d="M30.9045 16.2446L31.7871 16.2519L31.749 16.9895C31.7458 17.0451 31.772 17.0727 31.8276 17.0722L33.4931 17.0662C33.5301 17.0662 33.5487 17.0477 33.5487 17.0106L33.5469 16.2549L34.6626 16.2694C34.6828 16.2698 34.693 16.2801 34.6934 16.3002L34.7134 17.0644C34.3706 17.0898 34.011 17.0851 33.6344 17.0505C33.6251 17.0496 33.6157 17.0508 33.6069 17.0541C33.5981 17.0573 33.5901 17.0625 33.5836 17.0692C33.577 17.0759 33.572 17.084 33.569 17.0929C33.566 17.1018 33.5651 17.1113 33.5662 17.1206C33.5831 17.2652 33.6143 17.4029 33.6598 17.5338C33.7081 17.6715 33.7746 17.8008 33.8139 17.9416C33.7502 17.952 33.6407 17.9544 33.4852 17.9488C33.1026 17.9351 32.5463 17.9349 31.8161 17.9482C31.775 17.949 31.742 17.952 31.717 17.9573C31.6896 17.9633 31.6673 17.9842 31.65 18.0201C31.4031 18.5287 31.1089 19.0078 30.7674 19.4572C30.5813 19.3054 30.3864 19.1866 30.1826 19.1008C30.1778 19.0988 30.1736 19.0957 30.1702 19.0917C30.1669 19.0878 30.1644 19.0831 30.1632 19.0781C30.1619 19.0731 30.1618 19.0679 30.1628 19.0628C30.1639 19.0577 30.1661 19.053 30.1693 19.0489C30.3699 18.7964 30.5521 18.4869 30.716 18.1204C30.8123 17.9057 30.8755 17.6302 30.9057 17.294C30.9367 16.9488 30.9363 16.599 30.9045 16.2446Z" fill="#74C8E1"/>
<path d="M30.5049 20.1718C30.5202 20.1666 30.5329 20.1647 30.543 20.1664C30.5667 20.17 30.5724 20.1821 30.5599 20.2026C30.3923 20.4813 30.2677 20.7789 30.1859 21.0955C30.0744 21.5272 30.0059 21.8927 29.9805 22.1919C29.9741 22.27 30.0315 22.298 30.1527 22.2759H29.1016C29.1414 22.0137 29.1757 21.7497 29.2043 21.4839C29.2643 20.9189 29.4372 20.4052 29.7232 19.9428C29.7285 19.9342 29.7355 19.9267 29.7438 19.9209C29.7521 19.9151 29.7616 19.9111 29.7715 19.9091C29.7815 19.9072 29.7918 19.9072 29.8018 19.9094C29.8118 19.9116 29.8212 19.9157 29.8295 19.9217C29.9334 19.996 30.0246 20.0939 30.1388 20.1331C30.2552 20.1738 30.3772 20.1867 30.5049 20.1718Z" fill="#74C8E1"/>
<path d="M33.5078 23.2861L34.2998 23.2994C34.3203 23.2998 34.327 23.3095 34.3197 23.3284C34.2118 23.6144 34.1333 23.9053 34.0841 24.2013L33.5972 24.1615C33.5872 24.0233 33.5954 23.8673 33.622 23.6933C33.659 23.4504 33.621 23.3147 33.5078 23.2861Z" fill="#74C8E1"/>
<path d="M33.5974 24.1611C33.5702 24.195 33.5497 24.2203 33.5479 24.2669C33.539 24.5592 33.5541 24.851 33.5932 25.1422L29.0781 25.1513L29.0824 24.2669C29.0828 24.2149 29.1087 24.1887 29.1603 24.1883L33.5974 24.1611Z" fill="#74C8E1"/>
<path d="M33.598 14.0454L34.0408 14.0472C34.0307 14.0541 34.0204 14.0603 34.01 14.066C33.9798 14.0825 33.9818 14.0905 34.016 14.0901C34.0386 14.0897 34.0569 14.1016 34.071 14.1258C34.0831 14.1455 34.0893 14.1668 34.0897 14.1898L34.0952 15.0657C34.0956 15.1443 34.135 15.1835 34.2136 15.1835H34.4147C34.4631 15.1835 34.4874 15.1594 34.4878 15.111L34.4963 14.0508L34.8364 14.0599C34.9226 14.0869 34.9655 14.1213 34.9651 14.1632C34.9618 14.5108 34.9641 14.8567 34.9717 15.2011L33.5938 15.1938L33.598 14.0454Z" fill="#4AA9C7"/>
<path d="M39.3471 20.773C39.5195 20.2539 39.6179 19.856 39.6422 19.5795C39.6594 19.3832 39.6376 19.2077 39.5765 19.0532C39.2891 18.3212 38.9124 17.6185 38.4463 16.9452C38.4417 16.9384 38.4348 16.9332 38.4268 16.9302C38.4188 16.9273 38.41 16.9268 38.4016 16.9288C38.3932 16.9307 38.3858 16.9351 38.3802 16.9413C38.3747 16.9475 38.3714 16.9552 38.3707 16.9632L38.3641 17.0364L38.3555 16.784C38.3553 16.7785 38.357 16.773 38.3601 16.7682C38.3633 16.7635 38.3679 16.7598 38.3734 16.7574C38.3788 16.7551 38.3848 16.7544 38.3907 16.7552C38.3966 16.7561 38.4021 16.7586 38.4065 16.7623C38.5419 16.8814 38.6668 17.0184 38.7813 17.1734C39.2235 17.7715 39.611 18.3617 39.944 18.9441C39.9869 19.0189 40.0001 19.1019 39.9838 19.1933C39.8772 19.8029 39.7618 20.3785 39.6376 20.9199C39.6369 20.9227 39.6355 20.9252 39.6336 20.9274C39.6316 20.9295 39.6291 20.9312 39.6263 20.9322C39.6235 20.9333 39.6204 20.9337 39.6174 20.9333C39.6144 20.933 39.6115 20.9321 39.609 20.9305L39.3471 20.773Z" fill="#4AA9C7"/>
<path d="M34.7141 17.065C34.7326 17.547 34.8921 18.0065 35.1925 18.4435C35.3725 18.7057 35.5548 18.9715 35.7392 19.2409C36.028 19.6638 36.2316 20.1175 36.3403 20.6068C36.3471 20.6362 36.3377 20.6586 36.3119 20.6739C35.9736 20.8785 35.6651 21.1203 35.3864 21.3994C35.3135 20.8529 35.1669 20.3329 34.9466 19.8396C34.8532 19.6306 34.6695 19.3116 34.3957 18.8827C34.1971 18.5714 34.0034 18.2579 33.8145 17.9421C33.7753 17.8014 33.7088 17.6721 33.6605 17.5343C33.615 17.4035 33.5838 17.2657 33.5669 17.1211C33.5657 17.1118 33.5667 17.1024 33.5697 17.0935C33.5727 17.0846 33.5777 17.0765 33.5842 17.0698C33.5908 17.063 33.5987 17.0579 33.6076 17.0546C33.6164 17.0514 33.6258 17.0502 33.6351 17.0511C34.0117 17.0857 34.3713 17.0903 34.7141 17.065Z" fill="#4AA9C7"/>
<path d="M43.5453 24.6998C43.8609 24.1456 44.3072 23.4445 44.8841 22.5964C45.1728 22.172 45.4742 21.6503 45.7881 21.0315C45.7893 21.0286 45.8959 20.8367 46.1077 20.4559C46.2333 20.2301 46.3388 19.9861 46.4241 19.7242L46.7922 19.4943C46.8338 19.4683 46.8441 19.4777 46.8231 19.5226C46.5752 20.0529 46.3268 20.5947 46.078 21.148C45.9104 21.5215 45.7692 21.9213 45.592 22.2872C45.5013 22.4736 45.4164 22.6636 45.3374 22.8572C45.2334 23.1128 45.0915 23.3509 44.9819 23.6053C44.7402 24.1653 44.4908 24.7036 44.2336 25.22C44.2224 25.2421 44.2053 25.2607 44.1842 25.2737C44.163 25.2867 44.1387 25.2936 44.1139 25.2936L43.5421 25.293C43.5367 25.293 43.5314 25.2919 43.5264 25.2898C43.5215 25.2876 43.517 25.2845 43.5133 25.2805C43.5097 25.2765 43.5068 25.2718 43.5051 25.2667C43.5033 25.2616 43.5026 25.2562 43.5031 25.2508L43.5453 24.6998Z" fill="#4AA9C7"/>
<path d="M33.5979 24.1616L34.0848 24.2015L33.9585 25.1095C33.9557 25.1288 33.9444 25.1387 33.9247 25.1391L33.5937 25.1427C33.5546 24.8515 33.5395 24.5597 33.5484 24.2673C33.5502 24.2208 33.5707 24.1955 33.5979 24.1616Z" fill="#4AA9C7"/>
<path fill-rule="evenodd" clip-rule="evenodd" d="M47.6762 17.8879C46.9968 18.1892 46.2955 18.5921 45.5721 19.0967C45.5496 19.1125 45.5399 19.1066 45.5432 19.0792C45.6757 17.8904 45.7248 16.6801 45.6906 15.4486C45.6652 14.5545 45.1596 13.5348 44.3005 13.1995C43.8311 13.0164 43.3418 13.008 42.8881 13.2212C42.0732 13.6042 41.6829 14.3811 41.3495 15.1767C40.9854 16.0458 40.6874 16.9105 40.4554 17.7707C40.4401 17.8275 40.4179 17.8301 40.3889 17.7786C40.0487 17.1741 39.6379 16.6219 39.1566 16.1221C38.89 15.8455 38.6048 15.5597 38.3012 15.2649C38.0601 15.0317 37.688 14.8342 37.453 15.2045C37.4089 15.274 37.3986 15.3743 37.3998 15.4552C37.4204 17.0819 37.5318 18.6966 37.7339 20.2995C37.7404 20.3507 37.718 20.377 37.6669 20.3787L37.4059 20.3877C37.3511 20.3897 37.3169 20.3644 37.3032 20.3116C37.1486 19.724 36.9065 19.1872 36.5771 18.7011C36.4123 18.4582 36.2355 18.2045 36.0467 17.9399C35.6733 17.4167 35.651 16.9196 35.6715 16.307C35.6718 16.2947 35.6763 16.2829 35.684 16.2734C35.6864 16.2705 35.6891 16.2678 35.692 16.2654C35.6985 16.2601 35.7062 16.2564 35.7144 16.2544C36.1155 16.1578 36.3169 15.9043 36.3185 15.4939C36.3197 15.0988 36.3181 14.7337 36.3137 14.3986C36.3046 13.6634 35.7295 13.0817 35.0058 13.0207C34.8483 13.0078 34.6905 13.0011 34.5322 13.0007C33.1721 12.9991 31.7166 13.0001 30.1657 13.0038C29.9716 13.0046 29.7924 13.0267 29.6281 13.0702C29.0777 13.2158 28.6706 13.8115 28.6434 14.36C28.6337 14.5601 28.6285 14.8427 28.6277 15.2075C28.6269 15.485 28.6557 15.6862 28.7141 15.811C28.8172 16.0313 28.9881 16.1666 29.227 16.217C29.2515 16.2222 29.2654 16.2373 29.2686 16.2623C29.3488 16.9409 29.1899 17.5573 28.792 18.1115C28.6329 18.3326 28.4769 18.5597 28.3238 18.7929C27.7467 19.6704 27.4146 20.6141 27.3276 21.6237C27.3236 21.67 27.3111 21.6724 27.2902 21.631C27.1315 21.3132 26.9759 20.9836 26.8232 20.642C26.6959 20.3566 26.5652 20.0742 26.4344 19.7917C26.2011 19.2876 25.9676 18.7831 25.7527 18.2601C25.3069 17.1759 24.5304 16.3821 23.4233 15.8787C22.9404 15.6588 22.4284 15.5384 21.8871 15.5174C20.6479 15.4695 19.6197 15.8775 18.8025 16.7414C17.6602 17.9496 17.3177 19.7184 17.9755 21.2413C18.46 22.3621 18.9485 23.4719 19.4411 24.5705C19.518 24.7428 19.6033 24.9232 19.6969 25.1118H20.7985C20.7976 25.1102 20.7968 25.1086 20.7961 25.107C20.4888 24.432 20.2087 23.789 19.9558 23.1781C19.8151 22.8386 19.6584 22.4905 19.5001 22.1387C19.2772 21.6434 19.0511 21.1409 18.8617 20.6457C18.6406 20.0675 18.628 19.4665 18.7754 18.8654C19.0073 17.9198 19.5742 17.2305 20.4759 16.7975C21.0226 16.5347 21.6382 16.4888 22.2326 16.6121C22.3055 16.6189 22.3551 16.6256 22.3812 16.632C23.2844 16.8591 24.0836 17.3684 24.5367 18.196C24.6406 18.3853 24.7383 18.5812 24.8297 18.7838C25.0276 19.2219 25.2328 19.6593 25.4386 20.0978C25.6739 20.5992 25.9098 21.102 26.1364 21.6092C26.5987 22.6442 27.0612 23.6543 27.524 24.6394C27.5888 24.7775 27.6559 24.9175 27.7251 25.0592C27.7389 25.0876 27.7352 25.1052 27.7141 25.1118H28.8893C28.7558 24.8126 28.6257 24.5099 28.499 24.2038C28.3681 23.9642 28.2566 23.6972 28.1643 23.4028C28.1365 23.3138 28.1692 23.2701 28.2622 23.2717L28.6144 23.2771L33.4659 23.2862L34.2579 23.2995C34.2785 23.2999 34.2851 23.3096 34.2778 23.3285C34.1699 23.6144 34.0914 23.9054 34.0423 24.2014L33.916 25.1094C33.9159 25.1102 33.9157 25.111 33.9156 25.1118H34.9956L35.19 23.9731L35.3417 23.3798C35.6286 22.3372 36.3711 21.5174 37.4669 21.3646C38.0452 21.2836 38.5573 21.4387 39.0032 21.8297C39.1087 21.9783 39.2053 22.1314 39.2931 22.2888C39.4309 22.5345 39.5283 22.6851 39.5855 22.7407C39.87 23.015 40.2536 23.0035 40.6312 22.8778C40.7186 22.8488 40.8072 22.8327 40.897 22.8295C42.2106 22.7789 42.7754 23.9695 42.5519 25.1118H43.6034L43.6432 24.5917C43.6259 24.5103 43.6054 24.3569 43.5817 24.1313C43.5611 23.9344 43.4934 23.6867 43.3787 23.3883L43.2331 23.0446C43.2254 23.026 43.2274 23.0085 43.2391 22.992C43.6507 22.4121 44.0843 21.8873 44.5397 21.4177C44.8168 21.1326 45.1648 20.8029 45.5836 20.4288C45.7894 20.2222 46.0623 20.0188 46.4022 19.8187L46.755 19.5982C46.7949 19.5732 46.8047 19.5822 46.7846 19.6253C46.547 20.134 46.309 20.6537 46.0705 21.1845C46.0018 21.3379 45.9376 21.4958 45.8735 21.6539C45.7877 21.8652 45.7019 22.0766 45.6048 22.2774C45.5178 22.4562 45.4364 22.6384 45.3607 22.8241C45.3073 22.9556 45.2434 23.0822 45.1794 23.2091C45.1241 23.3188 45.0688 23.4286 45.02 23.5417C44.7884 24.079 44.5494 24.5953 44.3029 25.0907C44.2992 25.0982 44.2947 25.1052 44.2896 25.1118H45.4484C45.6731 24.6148 45.916 24.0884 46.1769 23.5327C46.5341 22.7723 46.8665 21.9987 47.199 21.2246C47.309 20.9685 47.4191 20.7123 47.5301 20.4566C47.657 20.1636 47.7765 19.866 47.8962 19.5681C48.0316 19.2309 48.1673 18.8932 48.3142 18.5609C48.3404 18.5018 48.3591 18.4354 48.3771 18.3711C48.3823 18.3526 48.3875 18.3342 48.3927 18.3162C48.5444 17.8064 48.0109 17.7393 47.6762 17.8879ZM25.6896 25.1118C25.6894 25.1099 25.6894 25.1079 25.6896 25.106C25.6897 25.1043 25.6901 25.1026 25.6905 25.1009C25.6952 25.0851 25.7 25.0691 25.7049 25.0529C25.7338 24.958 25.7639 24.8589 25.7582 24.7608C25.7465 24.5752 25.6654 24.4429 25.5147 24.3639C25.2525 24.227 24.9944 24.2528 24.7403 24.4412C24.4517 24.6552 24.1499 24.8787 23.835 25.1118H25.6896ZM29.6226 14.4754C29.6234 14.2192 29.7507 14.0783 30.0044 14.0525L30.5004 14.0477L30.8828 14.0464L31.3673 14.0477L31.7551 14.0458L32.2632 14.0446H32.6383L33.1766 14.0458L33.5553 14.0452L33.9981 14.047L34.4536 14.0507L34.7937 14.0597C35.0559 14.0489 35.2831 14.218 35.2831 14.4856C35.2827 14.7462 35.2815 14.9752 35.2795 15.1725C35.2793 15.1798 35.2763 15.1867 35.2711 15.1918C35.2659 15.1968 35.2589 15.1997 35.2517 15.1997L34.9291 15.2009L33.5511 15.1936C33.5366 15.1948 33.5223 15.1959 33.5082 15.1967L32.6395 15.1942L32.2571 15.1906L31.7678 15.1894L31.3745 15.1906L30.8846 15.187L30.4907 15.19L30.0105 15.187L29.6649 15.1882C29.6531 15.1882 29.6417 15.1835 29.6333 15.1751C29.629 15.1708 29.6257 15.1658 29.6235 15.1603C29.6214 15.155 29.6202 15.1493 29.6202 15.1435C29.6214 14.9196 29.6222 14.6969 29.6226 14.4754ZM42.31 22.1155C41.9149 21.8803 41.4888 21.7669 41.0317 21.7753L40.4905 21.8678C40.4849 21.8686 40.4793 21.8681 40.474 21.8663C40.4687 21.8644 40.464 21.8613 40.4602 21.8572C40.4564 21.853 40.4538 21.848 40.4524 21.8426C40.451 21.8372 40.451 21.8315 40.4524 21.8261C40.624 21.1531 40.7798 20.4844 40.92 19.8199C41.0178 19.3555 41.2001 18.7166 41.4667 17.903C41.5134 17.7601 41.5557 17.6111 41.5935 17.456C41.7269 16.9146 41.9332 16.3892 42.1496 15.8382L42.1559 15.8219C42.2925 15.4743 42.4407 15.1449 42.6006 14.8336C42.8162 14.4137 43.2814 13.9625 43.7876 14.0972C43.8215 14.1012 43.8388 14.1137 43.8396 14.1346C43.844 14.1322 43.8485 14.1296 43.8529 14.1268C43.8561 14.1252 43.8593 14.1254 43.8625 14.1274C44.2757 14.3684 44.5126 14.7919 44.6092 15.2649C44.6362 15.3978 44.6509 15.5938 44.6533 15.8527C44.6598 16.6199 44.6412 17.4204 44.5977 18.254C44.5832 18.5251 44.5585 18.8056 44.5234 19.0955C44.4888 19.3831 44.4604 19.6664 44.4383 19.9455C44.4322 20.0168 44.4268 20.076 44.3712 20.1273C43.6705 20.7709 43.0635 21.4709 42.5504 22.2272C42.5456 22.2345 42.538 22.2396 42.5293 22.2414C42.5206 22.2432 42.5115 22.2416 42.5039 22.2369L42.31 22.1155ZM30.1107 22.2761H29.0596L28.3238 22.281C28.298 22.281 28.2855 22.2679 28.2863 22.2417C28.329 21.0017 28.7032 19.8887 29.4088 18.9028C29.8021 18.3537 30.2237 17.7375 30.2461 17.0386C30.2541 16.7816 30.2576 16.5269 30.2563 16.2744C30.2563 16.2714 30.2567 16.2685 30.2575 16.2657C30.2577 16.2649 30.258 16.2641 30.2583 16.2633C30.2597 16.2598 30.2618 16.2566 30.2644 16.2539C30.2671 16.2512 30.2702 16.2491 30.2737 16.2476C30.2772 16.2461 30.2809 16.2454 30.2847 16.2454L30.8623 16.2448L31.7449 16.252L33.5046 16.255L34.6204 16.2695C34.6405 16.2699 34.6508 16.2802 34.6512 16.3004L34.6711 17.0645C34.6897 17.5466 34.8491 18.0061 35.1496 18.4431C35.3296 18.7053 35.5118 18.9711 35.6963 19.2405C35.9851 19.6634 36.1886 20.1171 36.2974 20.6064C36.3042 20.6358 36.2947 20.6582 36.269 20.6735C35.9307 20.878 35.6222 21.1199 35.3435 21.399C35.0829 21.6535 34.8725 21.9374 34.7122 22.2508C34.6993 22.2757 34.679 22.2882 34.6512 22.2882L30.1107 22.2761ZM38.7947 20.4632L38.4546 17.1521L38.4468 16.9063C38.4466 16.9008 38.4481 16.8955 38.451 16.8909C38.4539 16.8863 38.4581 16.8826 38.4631 16.8804C38.468 16.8781 38.4735 16.8774 38.4789 16.8782C38.4843 16.8791 38.4893 16.8815 38.4933 16.8851C38.6165 17.0011 38.7303 17.1346 38.8346 17.2856C39.2373 17.8684 39.5903 18.4435 39.8936 19.011C39.9326 19.0839 39.9447 19.1648 39.9298 19.2538C39.8328 19.8479 39.7277 20.4087 39.6145 20.9362C39.6142 20.9375 39.6138 20.9387 39.6133 20.9398C39.6126 20.9411 39.6118 20.9424 39.6108 20.9435C39.6091 20.9456 39.6068 20.9472 39.6042 20.9482C39.6016 20.9492 39.5989 20.9496 39.5961 20.9493C39.5934 20.949 39.5908 20.9481 39.5885 20.9465L39.3499 20.7931L38.8255 20.5091C38.807 20.4995 38.7967 20.4842 38.7947 20.4632Z" fill="#003550"/>
<path fill-rule="evenodd" clip-rule="evenodd" d="M19.764 25.1724H43.7453C45.0831 25.1724 46.1677 26.2569 46.1677 27.5947V48.1242C46.1677 49.462 45.0831 50.5466 43.7453 50.5466H20.7935C19.4556 50.5466 18.3711 49.462 18.3711 48.1242V26.5652C18.3711 25.796 18.9947 25.1724 19.764 25.1724ZM19.764 26.4441C19.6971 26.4441 19.6428 26.4983 19.6428 26.5652V48.1242C19.6428 48.7597 20.158 49.2748 20.7935 49.2748H43.7453C44.3808 49.2748 44.8959 48.7597 44.8959 48.1242V27.5947C44.8959 26.9593 44.3808 26.4441 43.7453 26.4441H19.764Z" fill="#48BFAA"/>
<path fill-rule="evenodd" clip-rule="evenodd" d="M19.7034 26.4441V49.5776C19.7034 49.8452 19.9203 50.0621 20.1879 50.0621H45.017C45.2846 50.0621 45.5015 49.8452 45.5015 49.5776V26.4441H19.7034ZM19.2795 25.1118C18.7778 25.1118 18.3711 25.5185 18.3711 26.0202V49.5776C18.3711 50.581 19.1845 51.3944 20.1879 51.3944H45.017C46.0204 51.3944 46.8338 50.581 46.8338 49.5776V26.0202C46.8338 25.5185 46.4271 25.1118 45.9254 25.1118H19.2795Z" fill="#003550"/>
<path fill-rule="evenodd" clip-rule="evenodd" d="M43.8663 51.3945C43.4984 51.3945 43.2002 51.0963 43.2002 50.7284L43.2002 42.2501C43.2002 41.8822 43.4984 41.584 43.8663 41.584C44.2342 41.584 44.5325 41.8822 44.5325 42.2501L44.5325 50.7284C44.5325 51.0963 44.2342 51.3945 43.8663 51.3945Z" fill="#003550"/>
<path d="M21.6408 38.1017C21.6408 38.386 21.4104 38.6164 21.1261 38.6164C20.8418 38.6164 20.6113 38.386 20.6113 38.1017C20.6113 37.8174 20.8418 37.5869 21.1261 37.5869C21.4104 37.5869 21.6408 37.8174 21.6408 38.1017Z" fill="#003550"/>
<path d="M43.6108 40.9775C43.3442 40.7117 43.337 40.4564 43.5891 40.2115C43.8964 40.0701 44.112 40.136 44.2361 40.409C44.29 40.5286 44.2922 40.644 44.2427 40.7552C44.1316 41.0047 43.8609 41.088 43.6108 40.9775Z" fill="#003550"/>
<path fill-rule="evenodd" clip-rule="evenodd" d="M21.1564 51.3945C20.7885 51.3945 20.4902 51.0963 20.4902 50.7284L20.4902 39.8278C20.4902 39.4599 20.7885 39.1616 21.1564 39.1616C21.5243 39.1616 21.8225 39.4599 21.8225 39.8278L21.8225 50.7284C21.8225 51.0963 21.5243 51.3945 21.1564 51.3945Z" fill="#003550"/>
</svg>
