<svg width="65" height="65" viewBox="0 0 65 65" fill="none" xmlns="http://www.w3.org/2000/svg">
<circle cx="32.5" cy="32.5" r="32.5" fill="#F7E7FF"/>
<path d="M16.5742 18.5893C16.5742 16.5072 18.2621 14.8193 20.3442 14.8193H41.9765C44.0586 14.8193 45.7465 16.5072 45.7465 18.5893V46.3939C45.7465 48.476 44.0586 50.1639 41.9765 50.1639H20.3442C18.2621 50.1639 16.5742 48.476 16.5742 46.3939V18.5893Z" fill="white"/>
<path fill-rule="evenodd" clip-rule="evenodd" d="M41.3917 16.2493H20.3442C19.0519 16.2493 18.0042 17.297 18.0042 18.5893V45.4193C18.0042 46.7117 19.0519 47.7593 20.3442 47.7593H41.3917C42.6841 47.7593 43.7317 46.7117 43.7317 45.4193V18.5893C43.7317 17.297 42.6841 16.2493 41.3917 16.2493ZM20.3442 14.8193C18.2621 14.8193 16.5742 16.5072 16.5742 18.5893V45.4193C16.5742 47.5014 18.2621 49.1893 20.3442 49.1893H41.3917C43.4738 49.1893 45.1617 47.5014 45.1617 45.4193V18.5893C45.1617 16.5072 43.4738 14.8193 41.3917 14.8193H20.3442Z" fill="#9B63B8"/>
<path fill-rule="evenodd" clip-rule="evenodd" d="M43.1458 17.2239H21.8384C20.546 17.2239 19.4984 18.2716 19.4984 19.5639V46.8487C19.4984 48.1411 20.546 49.1887 21.8384 49.1887H43.1458C44.4381 49.1887 45.4858 48.1411 45.4858 46.8487V19.5639C45.4858 18.2716 44.4381 17.2239 43.1458 17.2239ZM21.8384 15.7939C19.7562 15.7939 18.0684 17.4818 18.0684 19.5639V46.8487C18.0684 48.9309 19.7562 50.6187 21.8384 50.6187H43.1458C45.2279 50.6187 46.9158 48.9309 46.9158 46.8487V19.5639C46.9158 17.4818 45.2279 15.7939 43.1458 15.7939H21.8384Z" fill="#9B63B8"/>
<path d="M16.5742 18.5893C16.5742 16.5072 18.2621 14.8193 20.3442 14.8193H41.9765C44.0586 14.8193 45.7465 16.5072 45.7465 18.5893V46.3939C45.7465 48.476 44.0586 50.1639 41.9765 50.1639H20.3442C18.2621 50.1639 16.5742 48.476 16.5742 46.3939V18.5893Z" fill="#F7E7FF"/>
<path fill-rule="evenodd" clip-rule="evenodd" d="M41.9765 16.2493H20.3442C19.0519 16.2493 18.0042 17.297 18.0042 18.5893V46.3939C18.0042 47.6862 19.0519 48.7339 20.3442 48.7339H41.9765C43.2688 48.7339 44.3165 47.6862 44.3165 46.3939V18.5893C44.3165 17.297 43.2688 16.2493 41.9765 16.2493ZM20.3442 14.8193C18.2621 14.8193 16.5742 16.5072 16.5742 18.5893V46.3939C16.5742 48.476 18.2621 50.1639 20.3442 50.1639H41.9765C44.0586 50.1639 45.7465 48.476 45.7465 46.3939V18.5893C45.7465 16.5072 44.0586 14.8193 41.9765 14.8193H20.3442Z" fill="#003550"/>
<path d="M24.2319 19.6555C24.2319 19.9215 24.1262 20.1767 23.9381 20.3648C23.7499 20.5529 23.4948 20.6586 23.2287 20.6586C22.9627 20.6586 22.7075 20.5529 22.5194 20.3648C22.3313 20.1767 22.2256 19.9215 22.2256 19.6555C22.2256 19.3894 22.3313 19.1343 22.5194 18.9462C22.7075 18.758 22.9627 18.6523 23.2287 18.6523C23.4948 18.6523 23.7499 18.758 23.9381 18.9462C24.1262 19.1343 24.2319 19.3894 24.2319 19.6555ZM23.4905 19.6782C23.4905 19.6426 23.4835 19.6074 23.4699 19.5746C23.4563 19.5418 23.4363 19.5119 23.4112 19.4868C23.3861 19.4617 23.3562 19.4417 23.3234 19.4281C23.2906 19.4145 23.2554 19.4075 23.2198 19.4075C23.148 19.4075 23.0792 19.4361 23.0284 19.4868C22.9777 19.5376 22.9492 19.6064 22.9492 19.6782C22.9492 19.75 22.9777 19.8188 23.0284 19.8695C23.0792 19.9203 23.148 19.9488 23.2198 19.9488C23.2554 19.9488 23.2906 19.9418 23.3234 19.9282C23.3562 19.9146 23.3861 19.8947 23.4112 19.8695C23.4363 19.8444 23.4563 19.8146 23.4699 19.7817C23.4835 19.7489 23.4905 19.7137 23.4905 19.6782Z" fill="#003550"/>
<path d="M38.6719 22.1256C38.5423 22.1072 38.4177 22.0626 38.3053 21.9944C38.1928 21.9263 38.0947 21.8359 38.0165 21.7284C37.9384 21.6209 37.8816 21.4984 37.8496 21.3679C37.8176 21.2375 37.8109 21.1015 37.8299 20.968C37.8683 20.6982 38.0091 20.4543 38.2213 20.2898C38.4335 20.1254 38.6997 20.054 38.9614 20.0912C39.091 20.1096 39.2155 20.1542 39.328 20.2224C39.4404 20.2905 39.5385 20.3809 39.6167 20.4884C39.6949 20.5959 39.7516 20.7184 39.7836 20.8489C39.8157 20.9793 39.8224 21.1153 39.8033 21.2488C39.7649 21.5186 39.6242 21.7625 39.412 21.927C39.1998 22.0914 38.9335 22.1628 38.6719 22.1256ZM38.7839 21.4125C38.8551 21.417 38.9253 21.3909 38.979 21.3399C39.0328 21.2889 39.0657 21.2173 39.0705 21.1407C39.0753 21.0641 39.0517 20.9889 39.0047 20.9316C38.9578 20.8743 38.8914 20.8396 38.8202 20.8351C38.749 20.8306 38.6788 20.8567 38.625 20.9077C38.5713 20.9587 38.5384 21.0303 38.5336 21.1069C38.5287 21.1835 38.5524 21.2587 38.5993 21.316C38.6463 21.3733 38.7127 21.408 38.7839 21.4125Z" fill="#003550"/>
<path d="M21.4126 21.4913C21.4034 21.564 21.3797 21.6342 21.3427 21.6978C21.3058 21.7614 21.2564 21.8172 21.1973 21.862C21.1383 21.9068 21.0707 21.9397 20.9986 21.9589C20.9264 21.9781 20.851 21.9831 20.7767 21.9737C20.7023 21.9643 20.6306 21.9407 20.5654 21.9042C20.5003 21.8677 20.443 21.819 20.397 21.7609C20.3509 21.7029 20.3169 21.6365 20.297 21.5657C20.277 21.4949 20.2715 21.4211 20.2807 21.3483C20.2899 21.2756 20.3136 21.2054 20.3505 21.1418C20.3875 21.0782 20.4369 21.0224 20.4959 20.9776C20.555 20.9328 20.6225 20.8999 20.6947 20.8807C20.7669 20.8616 20.8423 20.8565 20.9166 20.8659C20.9909 20.8753 21.0627 20.8989 21.1279 20.9354C21.193 20.972 21.2502 21.0206 21.2963 21.0787C21.3423 21.1368 21.3763 21.2031 21.3963 21.2739C21.4162 21.3447 21.4218 21.4186 21.4126 21.4913Z" fill="#9B63B8"/>
<path d="M23.2786 22.513C23.301 22.5792 23.3091 22.6495 23.3024 22.72C23.2957 22.7905 23.2743 22.8597 23.2395 22.9236C23.2047 22.9876 23.1571 23.0451 23.0994 23.0929C23.0418 23.1406 22.9753 23.1777 22.9036 23.2019C22.8319 23.2262 22.7566 23.2372 22.6818 23.2342C22.607 23.2313 22.5343 23.2145 22.4677 23.1849C22.4012 23.1552 22.3422 23.1132 22.2941 23.0613C22.2459 23.0094 22.2096 22.9486 22.1872 22.8824C22.1648 22.8162 22.1567 22.7458 22.1634 22.6754C22.1701 22.6049 22.1915 22.5357 22.2263 22.4717C22.2612 22.4077 22.3088 22.3502 22.3664 22.3025C22.424 22.2547 22.4906 22.2177 22.5622 22.1934C22.6339 22.1692 22.7093 22.1582 22.7841 22.1611C22.8588 22.164 22.9316 22.1808 22.9981 22.2105C23.0646 22.2402 23.1236 22.2822 23.1718 22.334C23.2199 22.3859 23.2562 22.4467 23.2786 22.513Z" fill="#9B63B8"/>
<path d="M20.7098 26.6597C20.7041 26.4595 20.538 26.3639 20.3557 26.3663C19.9862 26.3728 19.5851 26.3007 19.6305 25.817C19.6548 25.5593 19.7861 25.4213 20.0243 25.4029C20.2058 25.3888 20.3824 25.3756 20.5542 25.3632C20.6006 25.3597 20.6438 25.3387 20.6751 25.3045C20.7065 25.2703 20.7235 25.2255 20.7228 25.1792C20.7203 24.9297 20.6547 24.497 20.9399 24.3649C21.2746 24.2101 21.6894 24.3568 21.6805 24.7692C21.6757 24.9686 21.6125 25.4515 21.9771 25.368C22.2294 25.3102 22.4349 25.3391 22.5937 25.4548C23.0256 25.77 22.7558 26.2796 22.2842 26.3307C22.1116 26.3493 21.7567 26.2999 21.73 26.5535C21.6959 26.8768 21.6757 27.3865 21.2365 27.3995C20.807 27.4116 20.7187 27.0024 20.7098 26.6597ZM21.5452 25.8486C21.5452 25.8037 21.5364 25.7592 21.5192 25.7177C21.502 25.6762 21.4768 25.6385 21.4451 25.6068C21.4133 25.575 21.3756 25.5498 21.3341 25.5326C21.2926 25.5155 21.2482 25.5066 21.2033 25.5066C21.1126 25.5066 21.0256 25.5426 20.9615 25.6068C20.8973 25.6709 20.8613 25.7579 20.8613 25.8486C20.8613 25.9392 20.8973 26.0262 20.9615 26.0903C21.0256 26.1545 21.1126 26.1905 21.2033 26.1905C21.2482 26.1905 21.2926 26.1817 21.3341 26.1645C21.3756 26.1473 21.4133 26.1221 21.4451 26.0903C21.4768 26.0586 21.502 26.0209 21.5192 25.9794C21.5364 25.9379 21.5452 25.8935 21.5452 25.8486Z" fill="#9B63B8"/>
<path d="M42.217 26.2695C41.7082 26.2306 42.3094 27.3439 41.4578 27.331C40.8654 27.3229 40.974 26.7986 40.9416 26.4088C40.9383 26.3659 40.9197 26.3256 40.8892 26.2951C40.8588 26.2647 40.8184 26.2461 40.7755 26.2427C40.5608 26.2265 40.3112 26.2743 40.1151 26.1844C39.7659 26.024 39.7408 25.5669 40.0406 25.3384C40.2942 25.1456 40.5267 25.1383 40.8241 25.1569C40.8452 25.1583 40.8663 25.1553 40.8862 25.148C40.906 25.1407 40.9241 25.1294 40.9392 25.1147C40.9543 25.1 40.9662 25.0824 40.974 25.0628C40.9818 25.0433 40.9854 25.0224 40.9846 25.0014C40.9748 24.7186 40.9416 24.204 41.2576 24.0833C41.6766 23.9229 41.9553 24.294 41.9634 24.6699C41.9661 24.7812 41.9666 24.893 41.965 25.0054C41.9647 25.0292 41.9694 25.0529 41.9787 25.0748C41.9879 25.0967 42.0016 25.1165 42.0189 25.133C42.0361 25.1494 42.0566 25.1621 42.079 25.1702C42.1014 25.1784 42.1252 25.1819 42.149 25.1804C42.2943 25.1713 42.4358 25.1783 42.5735 25.2015C42.828 25.2428 43.0994 25.4924 43.0678 25.7695C43.0176 26.2127 42.5995 26.2978 42.217 26.2695ZM41.8211 25.6021C41.798 25.5099 41.7358 25.4316 41.6483 25.3844C41.5607 25.3371 41.455 25.3248 41.3543 25.35C41.3045 25.3626 41.2574 25.3839 41.2157 25.413C41.174 25.442 41.1386 25.4781 41.1115 25.5192C41.0843 25.5603 41.066 25.6056 41.0575 25.6526C41.049 25.6995 41.0505 25.7471 41.062 25.7927C41.0851 25.8849 41.1473 25.9632 41.2349 26.0104C41.3224 26.0577 41.4281 26.07 41.5288 26.0448C41.5787 26.0322 41.6258 26.0109 41.6674 25.9818C41.7091 25.9528 41.7445 25.9167 41.7717 25.8756C41.7988 25.8345 41.8172 25.7892 41.8256 25.7422C41.8341 25.6953 41.8326 25.6477 41.8211 25.6021Z" fill="#9B63B8"/>
<path d="M28.8968 22.5561C28.597 23.3348 28.819 24.2391 29.3052 24.9375C29.8076 25.6571 30.5352 25.9812 31.3812 26.059C31.6037 26.079 31.997 26.1357 32.1947 26.059C32.5058 25.9374 32.5488 26.2453 32.5083 26.4982C32.4418 26.9155 31.9775 27.0216 31.6056 27.0232C30.9185 27.0259 30.2754 26.8671 29.6763 26.5468C28.7526 26.0525 28.0865 24.9651 27.8807 23.949C27.7543 23.3267 27.8088 22.7016 28.0444 22.0739C28.5403 20.7521 29.468 19.9591 30.8277 19.6949C31.3901 19.5852 31.9435 19.622 32.488 19.8051C33.2708 20.0668 32.7773 20.9687 32.1947 20.7021C32.0937 20.6562 31.9883 20.6254 31.8787 20.6097C31.2315 20.519 30.6619 20.6232 30.1698 20.9225C29.5142 21.3212 29.1658 21.8568 28.8968 22.5561Z" fill="#003550"/>
<path d="M34.0837 24.1007C34.3835 23.322 34.1615 22.4177 33.6753 21.7192C33.1729 20.9997 32.4453 20.6756 31.5993 20.5978C31.3768 20.5778 30.9835 20.5211 30.7858 20.5978C30.4746 20.7193 30.4317 20.4114 30.4722 20.1586C30.5386 19.7413 31.0029 19.6351 31.3749 19.6335C32.062 19.6308 32.7051 19.7896 33.3042 20.11C34.2279 20.6042 34.894 21.6917 35.0998 22.7078C35.2262 23.3301 35.1716 23.9551 34.9361 24.5828C34.4402 25.9047 33.5124 26.6977 32.1527 26.9618C31.5904 27.0715 31.037 27.0348 30.4924 26.8516C29.7097 26.5899 29.9098 25.7804 30.4924 26.047C30.5935 26.0929 30.9921 26.0313 31.1018 26.047C31.7489 26.1378 32.3186 26.0335 32.8107 25.7342C33.4662 25.3356 33.8147 24.8 34.0837 24.1007Z" fill="#003550"/>
<path d="M31.3218 23.501C31.3296 23.5092 31.3389 23.5158 31.3494 23.5202C31.3598 23.5246 31.3711 23.5268 31.3825 23.5265C31.3939 23.5263 31.4051 23.5237 31.4154 23.5189C31.4258 23.5141 31.435 23.5071 31.4426 23.4985C31.771 23.1247 32.1119 22.7604 32.4652 22.4054C32.6029 22.2661 32.7155 22.0862 32.8987 22.0052C33.3046 21.8245 33.6895 22.3576 33.4578 22.6988C33.2925 22.9435 33.098 23.1242 32.8995 23.3316C32.5467 23.6989 32.2088 24.0628 31.8858 24.4231C31.7297 24.5965 31.5679 24.6724 31.4004 24.6508C31.28 24.6351 31.1601 24.5714 31.0407 24.4595C30.4049 23.8659 29.9975 23.4575 29.8187 23.2344C29.6545 23.0296 29.6796 22.8327 29.8941 22.6437C30.1542 22.4144 30.4524 22.6064 30.6574 22.8138C30.8875 23.0461 31.109 23.2752 31.3218 23.501Z" fill="#003550"/>
<path d="M43.2481 29.0968C43.2481 29.2159 43.2008 29.33 43.1166 29.4142C43.0325 29.4984 42.9183 29.5457 42.7992 29.5457H19.4108C19.2918 29.5457 19.1776 29.4984 19.0934 29.4142C19.0092 29.33 18.9619 29.2159 18.9619 29.0968V29.0871C18.9619 28.968 19.0092 28.8538 19.0934 28.7697C19.1776 28.6855 19.2918 28.6382 19.4108 28.6382H42.7992C42.9183 28.6382 43.0325 28.6855 43.1166 28.7697C43.2008 28.8538 43.2481 28.968 43.2481 29.0871V29.0968Z" fill="#003550"/>
<path d="M37.1699 14.5268C37.1699 13.6836 37.8535 13 38.6968 13C39.54 13 40.2236 13.6836 40.2236 14.5268V16.476C40.2236 17.3192 39.54 18.0028 38.6968 18.0028C37.8535 18.0028 37.1699 17.3192 37.1699 16.476V14.5268Z" fill="white"/>
<path fill-rule="evenodd" clip-rule="evenodd" d="M39.3786 16.476V14.5268C39.3786 14.1503 39.0733 13.845 38.6968 13.845C38.3202 13.845 38.0149 14.1503 38.0149 14.5268V16.476C38.0149 16.8525 38.3202 17.1578 38.6968 17.1578C39.0733 17.1578 39.3786 16.8525 39.3786 16.476ZM38.6968 13C37.8535 13 37.1699 13.6836 37.1699 14.5268V16.476C37.1699 17.3192 37.8535 18.0028 38.6968 18.0028C39.54 18.0028 40.2236 17.3192 40.2236 16.476V14.5268C40.2236 13.6836 39.54 13 38.6968 13Z" fill="#003550"/>
<path d="M22.3564 14.5268C22.3564 13.6836 23.04 13 23.8833 13C24.7265 13 25.4101 13.6836 25.4101 14.5268V16.476C25.4101 17.3192 24.7265 18.0028 23.8833 18.0028C23.04 18.0028 22.3564 17.3192 22.3564 16.476V14.5268Z" fill="white"/>
<path fill-rule="evenodd" clip-rule="evenodd" d="M24.5651 16.476V14.5268C24.5651 14.1503 24.2598 13.845 23.8833 13.845C23.5067 13.845 23.2014 14.1503 23.2014 14.5268V16.476C23.2014 16.8525 23.5067 17.1578 23.8833 17.1578C24.2598 17.1578 24.5651 16.8525 24.5651 16.476ZM23.8833 13C23.04 13 22.3564 13.6836 22.3564 14.5268V16.476C22.3564 17.3192 23.04 18.0028 23.8833 18.0028C24.7265 18.0028 25.4101 17.3192 25.4101 16.476V14.5268C25.4101 13.6836 24.7265 13 23.8833 13Z" fill="#003550"/>
<path d="M18.9785 32.1022C18.9785 31.3843 19.5605 30.8022 20.2785 30.8022H24.1757C24.8936 30.8022 25.4757 31.3843 25.4757 32.1022V35.9994C25.4757 36.7174 24.8936 37.2994 24.1757 37.2994H20.2785C19.5605 37.2994 18.9785 36.7174 18.9785 35.9994V32.1022Z" fill="#9EE8E9"/>
<path fill-rule="evenodd" clip-rule="evenodd" d="M24.1757 31.7772H20.2785C20.099 31.7772 19.9535 31.9228 19.9535 32.1022V35.9994C19.9535 36.1789 20.099 36.3244 20.2785 36.3244H24.1757C24.3552 36.3244 24.5007 36.1789 24.5007 35.9994V32.1022C24.5007 31.9228 24.3552 31.7772 24.1757 31.7772ZM20.2785 30.8022C19.5605 30.8022 18.9785 31.3843 18.9785 32.1022V35.9994C18.9785 36.7174 19.5605 37.2994 20.2785 37.2994H24.1757C24.8936 37.2994 25.4757 36.7174 25.4757 35.9994V32.1022C25.4757 31.3843 24.8936 30.8022 24.1757 30.8022H20.2785Z" fill="#003550"/>
<path d="M26.2549 32.1022C26.2549 31.3843 26.8369 30.8022 27.5549 30.8022H31.452C32.17 30.8022 32.752 31.3843 32.752 32.1022V35.9994C32.752 36.7174 32.17 37.2994 31.452 37.2994H27.5549C26.8369 37.2994 26.2549 36.7174 26.2549 35.9994V32.1022Z" fill="#9EE8E9"/>
<path fill-rule="evenodd" clip-rule="evenodd" d="M31.452 31.7772H27.5549C27.3754 31.7772 27.2299 31.9228 27.2299 32.1022V35.9994C27.2299 36.1789 27.3754 36.3244 27.5549 36.3244H31.452C31.6315 36.3244 31.777 36.1789 31.777 35.9994V32.1022C31.777 31.9228 31.6315 31.7772 31.452 31.7772ZM27.5549 30.8022C26.8369 30.8022 26.2549 31.3843 26.2549 32.1022V35.9994C26.2549 36.7174 26.8369 37.2994 27.5549 37.2994H31.452C32.17 37.2994 32.752 36.7174 32.752 35.9994V32.1022C32.752 31.3843 32.17 30.8022 31.452 30.8022H27.5549Z" fill="#003550"/>
<path d="M33.1416 32.1022C33.1416 31.3843 33.7236 30.8022 34.4416 30.8022H38.3388C39.0567 30.8022 39.6388 31.3843 39.6388 32.1022V35.9994C39.6388 36.7174 39.0567 37.2994 38.3388 37.2994H34.4416C33.7236 37.2994 33.1416 36.7174 33.1416 35.9994V32.1022Z" fill="white"/>
<path fill-rule="evenodd" clip-rule="evenodd" d="M38.3388 31.7772H34.4416C34.2621 31.7772 34.1166 31.9228 34.1166 32.1022V35.9994C34.1166 36.1789 34.2621 36.3244 34.4416 36.3244H38.3388C38.5183 36.3244 38.6638 36.1789 38.6638 35.9994V32.1022C38.6638 31.9228 38.5183 31.7772 38.3388 31.7772ZM34.4416 30.8022C33.7236 30.8022 33.1416 31.3843 33.1416 32.1022V35.9994C33.1416 36.7174 33.7236 37.2994 34.4416 37.2994H38.3388C39.0567 37.2994 39.6388 36.7174 39.6388 35.9994V32.1022C39.6388 31.3843 39.0567 30.8022 38.3388 30.8022H34.4416Z" fill="#003550"/>
<path d="M18.9785 39.7688C18.9785 39.0508 19.5605 38.4688 20.2785 38.4688H24.1757C24.8936 38.4688 25.4757 39.0508 25.4757 39.7687V43.6659C25.4757 44.3839 24.8936 44.9659 24.1757 44.9659H20.2785C19.5605 44.9659 18.9785 44.3839 18.9785 43.6659V39.7688Z" fill="white"/>
<path fill-rule="evenodd" clip-rule="evenodd" d="M24.1757 39.4438H20.2785C20.099 39.4438 19.9535 39.5893 19.9535 39.7688V43.6659C19.9535 43.8454 20.099 43.9909 20.2785 43.9909H24.1757C24.3552 43.9909 24.5007 43.8454 24.5007 43.6659V39.7687C24.5007 39.5893 24.3552 39.4438 24.1757 39.4438ZM20.2785 38.4688C19.5605 38.4688 18.9785 39.0508 18.9785 39.7688V43.6659C18.9785 44.3839 19.5605 44.9659 20.2785 44.9659H24.1757C24.8936 44.9659 25.4757 44.3839 25.4757 43.6659V39.7687C25.4757 39.0508 24.8936 38.4688 24.1757 38.4688H20.2785Z" fill="#003550"/>
<path d="M26.2549 39.7688C26.2549 39.0508 26.8369 38.4688 27.5549 38.4688H31.452C32.17 38.4688 32.752 39.0508 32.752 39.7687V43.6659C32.752 44.3839 32.17 44.9659 31.452 44.9659H27.5549C26.8369 44.9659 26.2549 44.3839 26.2549 43.6659V39.7688Z" fill="white"/>
<path fill-rule="evenodd" clip-rule="evenodd" d="M31.452 39.4438H27.5549C27.3754 39.4438 27.2299 39.5893 27.2299 39.7688V43.6659C27.2299 43.8454 27.3754 43.9909 27.5549 43.9909H31.452C31.6315 43.9909 31.777 43.8454 31.777 43.6659V39.7687C31.777 39.5893 31.6315 39.4438 31.452 39.4438ZM27.5549 38.4688C26.8369 38.4688 26.2549 39.0508 26.2549 39.7688V43.6659C26.2549 44.3839 26.8369 44.9659 27.5549 44.9659H31.452C32.17 44.9659 32.752 44.3839 32.752 43.6659V39.7687C32.752 39.0508 32.17 38.4688 31.452 38.4688H27.5549Z" fill="#003550"/>
<path d="M32.752 35.7402L34.2788 35.0905L36.1955 33.791L37.17 32.784L37.9822 32.2317L39.7689 32.4266L40.3212 31.8744L42.2703 31.647L43.2449 32.784L42.9525 34.0509L43.7322 34.6682L44.9666 34.4083L45.8437 35.4478L47.3056 36.5848L47.9228 37.6568V39.9633L45.8437 51.0735L44.9666 51.5608L33.5966 51.3983L32.5895 48.3447L31.1602 39.3136L32.0048 38.339V37.0071L32.752 35.7402Z" fill="white"/>
<path d="M39.4443 39.5086V51.5283H45.6166L47.9556 39.5086L47.4358 38.3391L47.9556 36.8447L46.2014 36.13C45.4876 35.9516 44.7662 36.3934 44.6008 37.1103L44.3172 38.3391L43.6025 38.7289L42.2381 39.5086L41.8483 38.7289H40.6138L39.4443 39.5086Z" fill="#9B63B8"/>
<path d="M22.4664 33.6069C22.8545 33.222 23.2151 32.8379 23.6259 32.4928C23.8479 32.3048 24.1445 32.6005 24.2247 32.7901C24.3033 32.9741 24.1883 33.1888 24.057 33.3193C23.4655 33.907 22.9012 34.5117 22.3643 35.1335C22.2843 35.2253 22.193 35.318 22.0904 35.4114C21.5564 35.8952 20.9852 35.3158 20.6505 34.8629C20.4811 34.6319 20.5127 34.3694 20.7388 34.1968C21.0143 33.9869 21.2858 34.1725 21.4689 34.3945C21.5645 34.5112 21.6582 34.5112 21.7501 34.3945C21.9402 34.1541 22.179 33.8916 22.4664 33.6069Z" fill="#003550"/>
<path d="M29.6724 33.6006C30.0606 33.2157 30.4211 32.8316 30.832 32.4864C31.054 32.2984 31.3506 32.5942 31.4308 32.7838C31.5094 32.9677 31.3943 33.1825 31.263 33.3129C30.6715 33.9007 30.1073 34.5054 29.5703 35.1272C29.4904 35.219 29.3991 35.3116 29.2965 35.4051C28.7625 35.8888 28.1912 35.3095 27.8566 34.8565C27.6872 34.6256 27.7188 34.3631 27.9449 34.1905C28.2204 33.9806 28.4918 34.1662 28.675 34.3882C28.7706 34.5049 28.8643 34.5049 28.9561 34.3882C29.1463 34.1478 29.385 33.8853 29.6724 33.6006Z" fill="#003550"/>
<path fill-rule="evenodd" clip-rule="evenodd" d="M31.7245 46.2947L32.1787 48.7108C32.203 48.7983 32.2283 48.8855 32.2545 48.9724C32.2568 48.9804 32.2572 48.9889 32.2557 48.997C32.2542 49.0052 32.2508 49.0129 32.2458 49.0195C32.2436 49.0225 32.2411 49.0252 32.2383 49.0277L32.4797 50.3119C32.5133 50.4792 32.5504 50.6459 32.5908 50.8118C32.6637 51.1121 32.8454 51.4025 33.1361 51.6829L33.5947 51.9292C33.8059 51.9778 34.0555 52.0013 34.3434 51.9997C37.073 51.9802 40.4847 51.9802 44.5783 51.9997C44.9937 52.0018 45.2468 51.9924 45.3375 51.9713C46.1316 51.7841 46.4241 50.7996 46.5157 50.1044C46.5384 49.9288 46.5632 49.7633 46.5902 49.6077C46.9921 47.2897 47.4324 44.9425 47.911 42.5662C48.1039 41.6095 48.2865 40.6509 48.4588 39.6905C48.5252 39.3218 48.3948 39.0033 48.1865 38.7157C48.1282 38.6355 48.1282 38.5318 48.1719 38.4467C48.2497 38.1723 48.2948 37.9926 48.3073 37.9078C48.4466 36.9703 47.941 36.0522 47.0165 35.7727C46.9306 35.7468 46.8439 35.7492 46.7644 35.7127C46.7527 35.7074 46.7423 35.6997 46.7339 35.6902C46.7256 35.6806 46.7194 35.6695 46.7158 35.6576C46.5458 35.1014 46.3399 34.7605 45.9968 34.4035L45.9567 34.3692C45.7742 34.2128 45.5661 34.0889 45.3416 34.0031C45.19 33.9451 45.0333 33.9054 44.8748 33.8839C44.8708 33.8869 44.8663 33.8892 44.8616 33.8909C44.8549 33.8932 44.8478 33.8942 44.8408 33.8936C44.5275 33.8709 44.215 33.9006 43.9033 33.9827C43.8342 34.0265 43.772 34.0511 43.7169 34.0565C43.7147 34.0567 43.7125 34.0568 43.7103 34.0569L43.6875 34.066C43.6511 34.0806 43.6131 34.0485 43.6215 34.0101L43.6249 33.9949C43.6234 33.9903 43.6224 33.9856 43.6217 33.9808C43.6197 33.9659 43.6215 33.9506 43.627 33.9365C43.6357 33.9143 43.6442 33.8919 43.6523 33.8692L43.7439 33.4507C43.8001 33.1939 43.799 32.9279 43.7407 32.6715C43.7224 32.5908 43.6985 32.5117 43.6693 32.4346C43.6687 32.4331 43.6681 32.4317 43.6675 32.4302C43.6255 32.3317 43.5795 32.2366 43.529 32.1454C43.5135 32.1196 43.4973 32.0942 43.4805 32.0691L43.3451 31.8679C43.3089 31.814 43.2705 31.7622 43.2302 31.7125C42.9837 31.4259 42.6706 31.2026 42.2779 31.0633C41.914 30.9342 41.4952 30.9 41.0941 30.9625C41.046 30.973 40.998 30.9851 40.9502 30.999L40.9246 31.0065C40.6131 31.0969 40.3275 31.26 40.0913 31.4823L39.954 31.6116C39.9171 31.6463 39.8848 31.6856 39.858 31.7285C39.6967 31.9866 39.3657 32.0797 39.0936 31.9436L38.7582 31.776C38.5702 31.6819 38.3574 31.6494 38.1499 31.683L37.8845 31.7259C37.7337 31.7503 37.5879 31.7987 37.4525 31.8694C37.1446 32.03 36.9059 32.2975 36.7812 32.6217L36.7331 32.7468C36.6809 32.8827 36.5662 32.985 36.4253 33.0215C36.0124 33.1285 35.6696 33.4158 35.4918 33.8035L35.476 33.8381C35.4377 33.9216 35.3632 33.9829 35.2739 34.0045L34.8258 34.1127C34.5947 34.1684 34.3818 34.2827 34.2076 34.4445C34.0826 34.5606 33.9373 34.6526 33.7789 34.7159L33.0439 35.0099C32.6405 35.1798 32.2925 35.459 32.0393 35.8161L31.7436 36.233C31.508 36.5654 31.3881 36.9591 31.3918 37.3556C31.3934 37.3601 31.3944 37.3649 31.3948 37.3698C31.4191 37.6393 31.4755 37.8967 31.5641 38.142C31.5755 38.1733 31.5674 38.1987 31.5398 38.2182C31.4258 38.2976 31.3008 38.3751 31.1646 38.4507C31.1246 38.4728 31.0825 38.4897 31.0384 38.5013C30.9831 38.5389 30.9308 38.5808 30.8819 38.6266L30.7549 38.7457C30.5779 38.9115 30.4775 39.1432 30.4775 39.3858C30.4775 39.4073 30.4783 39.4289 30.4799 39.4504C30.4841 39.4581 30.4864 39.4668 30.4864 39.4757C30.4863 39.487 30.4863 39.4983 30.4863 39.5095C30.4875 39.5177 30.4888 39.5259 30.4901 39.5341L30.8674 41.7345L31.4957 45.0771L31.7278 46.2369C31.7325 46.2609 31.7314 46.2802 31.7245 46.2947ZM40.3307 32.4221C40.4587 32.2892 40.6132 32.185 40.7942 32.1093C41.1188 31.9494 41.4333 31.9011 41.7374 31.9643C42.4845 32.1188 42.8361 32.5955 42.7924 33.3945C42.7917 33.4119 42.7874 33.4276 42.7795 33.4417C42.7746 33.4504 42.7684 33.4584 42.7608 33.4658L42.5744 33.6489C42.2398 34.0678 42.5104 34.4624 42.9917 34.5119C43.0075 34.5133 43.0223 34.5197 43.0342 34.5302C43.046 34.5407 43.0541 34.5547 43.0574 34.5702C43.0619 34.5908 43.0663 34.6118 43.0707 34.633C43.1003 34.7741 43.1317 34.9239 43.2218 35.0345C43.486 35.357 43.832 35.2938 44.1205 35.0564C44.2274 34.9681 44.34 34.8789 44.4851 34.8676C44.8865 34.8373 45.2192 34.9786 45.4834 35.2914C45.666 35.4966 45.7321 35.7184 45.6819 35.9566C45.6419 36.1452 45.6252 36.2594 45.6317 36.2994C45.6795 36.5765 46.0336 36.882 46.3285 36.7726C46.5025 36.7083 46.6794 36.7202 46.8593 36.8082C47.1429 36.9465 47.3055 37.1669 47.3471 37.4694C47.3827 37.7277 47.3141 37.94 47.1412 38.1063C47.1202 38.1258 47.0956 38.1336 47.0675 38.1298C46.409 38.0429 45.8461 38.233 45.3788 38.7003C45.372 38.7069 45.3638 38.712 45.3547 38.715C45.3457 38.718 45.3361 38.7189 45.3267 38.7176C45.3219 38.717 45.3172 38.7158 45.3128 38.7141C45.3085 38.7124 45.3044 38.7103 45.3006 38.7077C45.2928 38.7025 45.2863 38.6955 45.2816 38.6873C45.1844 38.5199 45.0337 38.4032 44.8295 38.3373C44.8189 38.3337 44.81 38.3264 44.8046 38.3166C44.7992 38.3069 44.7977 38.2954 44.8003 38.2846C44.9002 37.8557 44.8681 37.4362 44.7039 37.0262C44.6587 36.9127 44.5897 36.8231 44.5191 36.7315C44.4808 36.6818 44.4421 36.6315 44.4065 36.5765C43.7566 35.793 42.5679 35.5223 41.6936 36.1486C41.6639 36.1703 41.642 36.1638 41.628 36.1292C41.2747 35.276 40.3672 34.7744 39.4442 34.9834C39.105 35.0607 38.8187 35.2352 38.5853 35.5069C38.322 35.8124 38.2353 36.4396 38.7733 36.54C39.1104 36.6032 39.2514 36.3942 39.3486 36.1252C39.3558 36.1053 39.366 36.0868 39.3786 36.0701C39.3861 36.0602 39.3945 36.0509 39.4037 36.0424C39.4283 36.0196 39.4581 36.0029 39.4904 35.9939C40.0322 35.8432 40.4468 35.9963 40.7342 36.4533C40.8023 36.5624 40.8042 36.6562 40.8065 36.7662C40.8071 36.7951 40.8077 36.8251 40.8096 36.8569C40.8363 37.2847 41.4546 37.7036 41.8119 37.369C41.8444 37.3386 41.8779 37.3059 41.9124 37.2722C42.1038 37.0852 42.3276 36.8666 42.5898 36.8398C42.9115 36.8074 43.2737 36.8366 43.5135 37.0756C43.7442 37.3063 43.8766 37.5696 43.9106 37.8657C43.9276 38.0139 43.8377 38.1145 43.6926 38.1233C43.18 38.1558 42.7694 38.3778 42.461 38.7894C42.4536 38.7994 42.4439 38.8073 42.4327 38.8126C42.4266 38.8155 42.4201 38.8175 42.4135 38.8187C42.408 38.8196 42.4024 38.8199 42.3968 38.8197C42.3844 38.819 42.3723 38.8153 42.3616 38.8089C42.3509 38.8025 42.3419 38.7936 42.3354 38.7829C41.944 38.1266 41.0284 37.9929 40.3493 38.1849C40.0193 38.2778 39.757 38.481 39.5625 38.7943C39.5609 38.7969 39.559 38.7993 39.5569 38.8015C39.554 38.8045 39.5507 38.8072 39.547 38.8093C39.5407 38.813 39.5336 38.8151 39.5262 38.8155C39.5217 38.8158 39.5172 38.8153 39.5128 38.8143C39.51 38.8136 39.5073 38.8127 39.5047 38.8116C39.4979 38.8086 39.4919 38.804 39.4872 38.7983C39.0226 38.2279 38.4038 38.0072 37.6308 38.1363C37.2656 38.1968 36.951 38.3894 36.6868 38.714C36.6441 38.7665 36.6001 38.7678 36.5547 38.7181L36.5317 38.6929C36.4652 38.6203 36.4022 38.5513 36.3157 38.4961C36.1471 38.388 35.9799 38.2803 35.8141 38.1728C35.7866 38.1555 35.7714 38.1306 35.7687 38.0982C35.7501 37.8867 35.7315 37.6275 35.8481 37.4435C35.893 37.3728 35.9699 37.3313 36.0467 37.2899C36.1528 37.2327 36.2585 37.1756 36.2792 37.0416C36.2933 36.9476 36.2749 36.862 36.2241 36.7848C36.0205 36.4763 35.7482 36.4177 35.4073 36.6089C34.8671 36.912 34.6759 37.3954 34.8337 38.0593C34.8347 38.0638 34.8353 38.0683 34.8355 38.0729C34.8356 38.0781 34.8352 38.0833 34.8342 38.0884C34.8323 38.0981 34.8284 38.1072 34.8227 38.1151C34.817 38.123 34.8097 38.1296 34.8012 38.1344C34.7928 38.1392 34.7834 38.1421 34.7737 38.1428C34.3761 38.1774 34.0547 38.3543 33.8094 38.6735C33.8049 38.6795 33.7991 38.6843 33.7924 38.6877C33.7857 38.6911 33.7784 38.6929 33.7708 38.6931C33.7633 38.6932 33.7558 38.6917 33.7489 38.6886C33.742 38.6855 33.7358 38.6809 33.7308 38.6751C33.5121 38.4142 33.2393 38.2376 32.9124 38.1452C32.816 38.1177 32.6629 38.0091 32.5989 37.9054C32.3233 37.4597 32.1751 37.0692 32.4627 36.5506C32.6621 36.1924 33.2033 35.7824 33.6279 36.0612C33.8702 36.2208 34.4001 36.3439 34.452 35.9234C34.4871 35.6419 34.6262 35.4094 34.8693 35.2257C35.5508 34.7112 36.5296 34.93 36.8999 35.6835C37.002 35.8902 37.0198 36.1454 36.904 36.3512L36.8982 36.3615C36.8445 36.4577 36.7845 36.5651 36.7986 36.677C36.8643 37.2094 37.425 37.343 37.741 36.9022C38.0284 36.502 38.0878 36.0579 37.9193 35.5701C37.6881 34.8997 37.2602 34.4476 36.6357 34.2137C36.6154 34.206 36.5972 34.1935 36.5829 34.1771C36.5686 34.1607 36.5586 34.141 36.5538 34.1198C36.5499 34.103 36.5495 34.0857 36.5523 34.0688C36.5531 34.0644 36.5541 34.0599 36.5553 34.0556C36.5611 34.0346 36.5721 34.0154 36.5871 33.9998C36.7476 33.8344 36.955 33.8028 37.1762 33.8093C37.3796 33.815 37.549 33.6675 37.5279 33.4601C37.4717 32.9123 37.7313 32.6225 38.3066 32.5907C38.769 32.5647 39.142 32.7308 39.4256 33.089C39.5812 33.2867 39.6233 33.5152 39.5739 33.7559C39.5164 34.0362 39.821 34.2048 40.0633 34.2072C40.9571 34.2145 40.5803 33.0233 40.3129 32.5785C40.2984 32.554 40.2923 32.5255 40.2956 32.4973C40.2971 32.4837 40.3008 32.4704 40.3064 32.458C40.3124 32.4449 40.3206 32.4327 40.3307 32.4221ZM33.3848 42.3247C33.5072 43.665 33.6409 44.9631 33.8175 46.2765C33.8932 46.8378 33.9661 47.4104 34.0363 47.9944C34.0964 48.4948 34.1657 49.003 34.2354 49.5133C34.2991 49.9804 34.3631 50.4493 34.4204 50.9155C34.4244 50.9475 34.4166 50.9798 34.3986 51.0063C34.3805 51.0329 34.3534 51.0519 34.3223 51.0597C33.6863 51.221 33.4942 50.5906 33.4027 50.1011C32.99 47.8934 32.5894 45.769 32.201 43.7282C32.1134 43.2665 32.0261 42.7741 31.9372 42.2733C31.8042 41.5233 31.6677 40.7542 31.522 40.0405C31.4701 39.7861 31.4658 39.6081 31.509 39.5065C31.6176 39.2553 31.8453 39.0908 32.1192 39.0584C32.5221 39.0104 32.8484 39.1562 33.098 39.496C33.1839 39.6127 33.2293 39.7318 33.2341 39.8533C33.273 40.8311 33.3233 41.6549 33.3848 42.3247ZM36.1447 40.0138C36.162 41.6608 36.1887 42.9676 36.2249 43.934C36.2557 44.7675 36.3216 45.8582 36.4226 47.206L36.69 50.7834C36.6965 50.8699 36.6971 50.9482 36.6917 51.0184C36.6908 51.0288 36.6861 51.0385 36.6785 51.0455C36.6708 51.0526 36.6608 51.0565 36.6503 51.0565H35.4195C35.4144 51.0565 35.4095 51.0556 35.4048 51.0537C35.4006 51.0521 35.3967 51.0497 35.3932 51.0467C35.3859 51.0403 35.3812 51.0314 35.3798 51.0217C35.1351 49.2033 34.9001 47.3713 34.6748 45.5254C34.4588 43.7552 34.3107 42.1062 34.2308 40.5786C34.2124 40.2301 34.2132 39.9398 34.2332 39.7075C34.2484 39.5238 34.3529 39.3672 34.5468 39.2375C34.8223 39.0538 35.1451 39.0201 35.5151 39.1362C35.6734 39.1859 35.7979 39.261 35.8887 39.3615C36.0567 39.5473 36.142 39.7648 36.1447 40.0138ZM38.4054 39.1435C38.6834 39.2367 38.9978 39.5584 39.0115 39.8931C39.0277 40.2836 39.0361 40.6501 39.0367 40.9926C39.0426 44.3726 39.0442 47.714 39.0415 51.0168C39.0415 51.0241 39.0386 51.0311 39.0335 51.0363C39.0305 51.0392 39.027 51.0414 39.0231 51.0428C39.0202 51.0438 39.0171 51.0443 39.014 51.0443L37.6681 51.033C37.659 51.0328 37.6504 51.0293 37.6439 51.0231C37.6375 51.0169 37.6336 51.0086 37.6332 50.9998C37.6061 50.6229 37.5805 50.2409 37.5547 49.8566C37.5125 49.2288 37.4699 48.5949 37.4201 47.9676C37.2732 46.1115 37.1827 44.7837 37.1487 43.9842C37.0925 42.6569 37.0649 41.2949 37.066 39.8979C37.0666 39.6262 37.2221 39.399 37.5328 39.2164C37.7964 39.0609 38.0873 39.0366 38.4054 39.1435ZM44.4632 44.2322C44.2806 45.6999 44.104 47.1344 43.9333 48.5357C43.8328 49.3632 43.7493 50.1808 43.6829 50.9884C43.682 50.9984 43.6788 51.008 43.6736 51.0164C43.6706 51.0212 43.667 51.0256 43.6627 51.0295C43.6512 51.0401 43.6361 51.046 43.6205 51.046L42.4034 51.0387C42.3944 51.0387 42.3855 51.0369 42.3772 51.0332C42.369 51.0296 42.3616 51.0242 42.3555 51.0175C42.3494 51.0108 42.3447 51.0029 42.3418 50.9943C42.3389 50.9856 42.3378 50.9765 42.3386 50.9673C42.5255 48.8157 42.6827 46.5102 42.8102 44.0507C42.8761 42.7898 42.9158 41.4737 42.9293 40.1021C42.9342 39.6159 43.1489 39.2983 43.5735 39.1492C44.3003 38.8947 44.8943 39.3396 44.8392 40.1167C44.7209 41.7951 44.5956 43.1669 44.4632 44.2322ZM40.7658 39.1127C40.9911 39.0873 41.2177 39.12 41.4457 39.2108C41.6342 39.2858 41.7954 39.439 41.9294 39.6702C41.9986 39.7896 42.0323 39.9641 42.0307 40.1937C42.0156 42.0357 41.9394 43.8683 41.8022 45.6915C41.7136 46.8686 41.6247 48.0627 41.5356 49.2738C41.4924 49.8562 41.4389 50.4307 41.3752 50.9973C41.3734 51.0121 41.3662 51.0257 41.3549 51.0354C41.3437 51.0451 41.3293 51.0503 41.3144 51.05L39.9831 51.0427C39.9687 51.0427 39.9549 51.0369 39.9447 51.0266C39.9345 51.0162 39.9288 51.0022 39.9288 50.9876C39.9391 47.3818 39.9491 43.7352 39.9588 40.0478C39.9604 39.4855 40.2294 39.1738 40.7658 39.1127ZM44.8953 48.4373C44.9879 47.7153 45.0811 46.9895 45.1666 46.2531C45.2182 45.807 45.2623 45.3563 45.3066 44.9024C45.366 44.2951 45.426 43.6822 45.5053 43.0678C45.6344 42.0646 45.7116 41.1566 45.737 40.3436C45.7489 39.9438 45.8005 39.674 45.8918 39.5341C46.1073 39.204 46.4352 39.0611 46.8755 39.1054C47.1259 39.1306 47.5026 39.3672 47.4921 39.6759C47.4894 39.7548 47.4813 39.8339 47.4678 39.9133C47.3592 40.5497 47.2387 41.1903 47.1064 41.8353C46.8336 43.1599 46.5781 44.5123 46.3399 45.8925C46.2453 46.4397 46.1481 46.9734 46.0482 47.4936C45.8877 48.3304 45.7424 49.1564 45.6122 49.9715C45.549 50.3686 45.4996 50.603 45.4639 50.6749C45.3386 50.9282 45.1069 51.0608 44.7687 51.0727C44.7315 51.0738 44.6952 51.0617 44.6661 51.0386C44.6371 51.0154 44.6171 50.9827 44.6099 50.9463C44.6002 50.8977 44.5988 50.8431 44.6058 50.7826C44.6948 49.9996 44.7948 49.2207 44.8953 48.4373Z" fill="#003550"/>
</svg>
