<svg width="22" height="22" viewBox="0 0 22 22" fill="none" xmlns="http://www.w3.org/2000/svg">
<circle cx="11" cy="11" r="11" fill="#F7E7FF"/>
<path d="M5.61035 6.29211C5.61035 5.5874 6.18164 5.01611 6.88635 5.01611H14.208C14.9128 5.01611 15.484 5.5874 15.484 6.29211V15.7029C15.484 16.4076 14.9128 16.9789 14.208 16.9789H6.88635C6.18164 16.9789 5.61035 16.4076 5.61035 15.7029V6.29211Z" fill="white"/>
<path fill-rule="evenodd" clip-rule="evenodd" d="M14.0101 5.50011H6.88635C6.44894 5.50011 6.09435 5.8547 6.09435 6.29211V15.373C6.09435 15.8104 6.44894 16.165 6.88635 16.165H14.0101C14.4475 16.165 14.8021 15.8104 14.8021 15.373V6.29211C14.8021 5.8547 14.4475 5.50011 14.0101 5.50011ZM6.88635 5.01611C6.18164 5.01611 5.61035 5.5874 5.61035 6.29211V15.373C5.61035 16.0777 6.18164 16.649 6.88635 16.649H14.0101C14.7148 16.649 15.2861 16.0777 15.2861 15.373V6.29211C15.2861 5.5874 14.7148 5.01611 14.0101 5.01611H6.88635Z" fill="#9B63B8"/>
<path fill-rule="evenodd" clip-rule="evenodd" d="M14.6039 5.83019H7.39221C6.9548 5.83019 6.60021 6.18478 6.60021 6.62219V15.857C6.60021 16.2945 6.9548 16.649 7.39221 16.649H14.6039C15.0414 16.649 15.3959 16.2945 15.3959 15.857V6.62219C15.3959 6.18478 15.0414 5.83019 14.6039 5.83019ZM7.39221 5.34619C6.6875 5.34619 6.11621 5.91748 6.11621 6.62219V15.857C6.11621 16.5618 6.68749 17.133 7.39221 17.133H14.6039C15.3087 17.133 15.8799 16.5618 15.8799 15.857V6.62219C15.8799 5.91748 15.3087 5.34619 14.6039 5.34619H7.39221Z" fill="#9B63B8"/>
<path d="M5.61035 6.29211C5.61035 5.5874 6.18164 5.01611 6.88635 5.01611H14.208C14.9128 5.01611 15.484 5.5874 15.484 6.29211V15.7029C15.484 16.4076 14.9128 16.9789 14.208 16.9789H6.88635C6.18164 16.9789 5.61035 16.4076 5.61035 15.7029V6.29211Z" fill="#F7E7FF"/>
<path fill-rule="evenodd" clip-rule="evenodd" d="M14.208 5.50011H6.88635C6.44894 5.50011 6.09435 5.8547 6.09435 6.29211V15.7029C6.09435 16.1403 6.44894 16.4949 6.88635 16.4949H14.208C14.6454 16.4949 15 16.1403 15 15.7029V6.29211C15 5.8547 14.6454 5.50011 14.208 5.50011ZM6.88635 5.01611C6.18164 5.01611 5.61035 5.5874 5.61035 6.29211V15.7029C5.61035 16.4076 6.18164 16.9789 6.88635 16.9789H14.208C14.9128 16.9789 15.484 16.4076 15.484 15.7029V6.29211C15.484 5.5874 14.9128 5.01611 14.208 5.01611H6.88635Z" fill="#003550"/>
<path d="M8.20249 6.65252C8.20249 6.74256 8.16672 6.82892 8.10305 6.8926C8.03937 6.95627 7.95301 6.99204 7.86296 6.99204C7.77292 6.99204 7.68656 6.95627 7.62288 6.8926C7.55921 6.82892 7.52344 6.74256 7.52344 6.65252C7.52344 6.56247 7.55921 6.47611 7.62288 6.41243C7.68656 6.34876 7.77292 6.31299 7.86296 6.31299C7.95301 6.31299 8.03937 6.34876 8.10305 6.41243C8.16672 6.47611 8.20249 6.56247 8.20249 6.65252ZM7.95155 6.66019C7.95155 6.64816 7.94918 6.63625 7.94458 6.62514C7.93997 6.61403 7.93323 6.60393 7.92472 6.59542C7.91621 6.58692 7.90612 6.58017 7.895 6.57557C7.88389 6.57096 7.87198 6.56859 7.85995 6.56859C7.83565 6.56859 7.81235 6.57824 7.79518 6.59542C7.778 6.6126 7.76835 6.6359 7.76835 6.66019C7.76835 6.68449 7.778 6.70779 7.79518 6.72497C7.81235 6.74214 7.83565 6.75179 7.85995 6.75179C7.87198 6.75179 7.88389 6.74943 7.895 6.74482C7.90612 6.74022 7.91621 6.73347 7.92472 6.72497C7.93323 6.71646 7.93997 6.70636 7.94458 6.69525C7.94918 6.68413 7.95155 6.67222 7.95155 6.66019Z" fill="#003550"/>
<path d="M13.0893 7.48871C13.0455 7.48247 13.0033 7.46738 12.9653 7.44432C12.9272 7.42125 12.894 7.39065 12.8675 7.35426C12.8411 7.31788 12.8219 7.27643 12.811 7.23227C12.8002 7.18811 12.7979 7.14211 12.8044 7.0969C12.8174 7.00559 12.865 6.92302 12.9368 6.86737C13.0086 6.81172 13.0987 6.78754 13.1873 6.80014C13.2312 6.80638 13.2733 6.82147 13.3114 6.84454C13.3495 6.86761 13.3827 6.89821 13.4091 6.93459C13.4356 6.97097 13.4548 7.01243 13.4656 7.05659C13.4765 7.10075 13.4787 7.14675 13.4723 7.19196C13.4593 7.28327 13.4116 7.36583 13.3398 7.42148C13.268 7.47713 13.1779 7.50132 13.0893 7.48871ZM13.1272 7.24735C13.1513 7.24887 13.1751 7.24003 13.1933 7.22278C13.2115 7.20552 13.2226 7.18127 13.2243 7.15536C13.2259 7.12944 13.2179 7.10398 13.202 7.08459C13.1861 7.06519 13.1636 7.05344 13.1395 7.05192C13.1154 7.0504 13.0917 7.05925 13.0735 7.0765C13.0553 7.09375 13.0441 7.118 13.0425 7.14392C13.0409 7.16984 13.0489 7.19529 13.0648 7.21469C13.0807 7.23409 13.1031 7.24584 13.1272 7.24735Z" fill="#003550"/>
<path d="M7.24785 7.27377C7.24474 7.29839 7.2367 7.32214 7.2242 7.34367C7.2117 7.3652 7.19498 7.38409 7.175 7.39925C7.15501 7.41441 7.13215 7.42555 7.10772 7.43204C7.08329 7.43852 7.05777 7.44022 7.03261 7.43705C7.00746 7.43387 6.98316 7.42587 6.96111 7.41352C6.93906 7.40116 6.91969 7.38468 6.9041 7.36503C6.88851 7.34537 6.87701 7.32292 6.87026 7.29896C6.8635 7.275 6.86163 7.25 6.86474 7.22538C6.86785 7.20076 6.87588 7.17701 6.88838 7.15548C6.90088 7.13395 6.9176 7.11506 6.93759 7.0999C6.95758 7.08474 6.98044 7.0736 7.00487 7.06711C7.0293 7.06063 7.05482 7.05892 7.07997 7.0621C7.10513 7.06528 7.12943 7.07328 7.15148 7.08563C7.17353 7.09799 7.1929 7.11447 7.20849 7.13412C7.22407 7.15378 7.23557 7.17623 7.24233 7.20019C7.24908 7.22415 7.25096 7.24915 7.24785 7.27377Z" fill="#9B63B8"/>
<path d="M7.8792 7.61973C7.88679 7.64215 7.88953 7.66596 7.88725 7.68981C7.88498 7.71366 7.87774 7.73708 7.86596 7.75873C7.85417 7.78038 7.83806 7.79985 7.81856 7.81601C7.79905 7.83217 7.77653 7.84472 7.75227 7.85293C7.72802 7.86114 7.7025 7.86485 7.67719 7.86386C7.65188 7.86287 7.62726 7.85719 7.60475 7.84714C7.58223 7.8371 7.56226 7.82289 7.54597 7.80533C7.52968 7.78776 7.51739 7.76718 7.5098 7.74477C7.50221 7.72236 7.49948 7.69855 7.50175 7.6747C7.50403 7.65085 7.51126 7.62743 7.52305 7.60577C7.53484 7.58412 7.55094 7.56466 7.57045 7.54849C7.58995 7.53233 7.61248 7.51979 7.63673 7.51158C7.66099 7.50337 7.6865 7.49965 7.71181 7.50065C7.73712 7.50164 7.76174 7.50732 7.78426 7.51736C7.80677 7.5274 7.82675 7.54161 7.84304 7.55918C7.85933 7.57674 7.87162 7.59732 7.8792 7.61973Z" fill="#9B63B8"/>
<path d="M7.01005 9.02314C7.00813 8.9554 6.95191 8.92304 6.8902 8.92386C6.76514 8.92606 6.62939 8.90165 6.64475 8.73792C6.65298 8.6507 6.6974 8.60399 6.77804 8.59777C6.83947 8.59302 6.89926 8.58854 6.9574 8.58434C6.97308 8.58315 6.98772 8.57604 6.99832 8.56447C7.00893 8.5529 7.01469 8.53774 7.01444 8.52208C7.01362 8.43761 6.99141 8.29116 7.08794 8.24645C7.20121 8.19407 7.34163 8.24371 7.33861 8.38331C7.33697 8.45077 7.31557 8.61423 7.43899 8.58598C7.52437 8.56642 7.59394 8.5762 7.64769 8.61533C7.79387 8.72201 7.70255 8.89452 7.54293 8.9118C7.48451 8.9181 7.36439 8.90137 7.35534 8.98722C7.34382 9.09664 7.33696 9.26915 7.18832 9.27354C7.04296 9.27765 7.01307 9.13915 7.01005 9.02314ZM7.29281 8.74861C7.29281 8.73342 7.28982 8.71837 7.284 8.70432C7.27818 8.69028 7.26966 8.67752 7.25891 8.66678C7.24817 8.65603 7.23541 8.6475 7.22136 8.64169C7.20732 8.63587 7.19227 8.63288 7.17708 8.63288C7.14638 8.63288 7.11694 8.64507 7.09524 8.66678C7.07353 8.68848 7.06134 8.71792 7.06134 8.74861C7.06134 8.77931 7.07353 8.80875 7.09524 8.83045C7.11694 8.85216 7.14638 8.86435 7.17708 8.86435C7.19227 8.86435 7.20732 8.86135 7.22136 8.85554C7.23541 8.84972 7.24817 8.8412 7.25891 8.83045C7.26966 8.8197 7.27818 8.80695 7.284 8.7929C7.28982 8.77886 7.29281 8.76381 7.29281 8.74861Z" fill="#9B63B8"/>
<path d="M14.2893 8.89111C14.1171 8.87794 14.3206 9.25477 14.0323 9.25038C13.8319 9.24764 13.8686 9.0702 13.8576 8.93828C13.8565 8.92375 13.8502 8.91009 13.8399 8.89979C13.8296 8.88948 13.816 8.88319 13.8014 8.88206C13.7287 8.87657 13.6443 8.89275 13.5779 8.86231C13.4597 8.80801 13.4512 8.65333 13.5527 8.57599C13.6385 8.51072 13.7172 8.50825 13.8179 8.51456C13.825 8.51502 13.8322 8.51399 13.8389 8.51153C13.8456 8.50906 13.8517 8.50523 13.8568 8.50026C13.8619 8.49529 13.866 8.48931 13.8686 8.48271C13.8712 8.4761 13.8725 8.46901 13.8722 8.4619C13.8689 8.36619 13.8576 8.19203 13.9646 8.15117C14.1064 8.09687 14.2007 8.22248 14.2035 8.34973C14.2044 8.38739 14.2046 8.42524 14.204 8.46327C14.2039 8.47133 14.2055 8.47933 14.2086 8.48676C14.2118 8.49419 14.2164 8.50089 14.2223 8.50645C14.2281 8.51201 14.235 8.5163 14.2426 8.51906C14.2502 8.52183 14.2582 8.523 14.2663 8.52251C14.3155 8.5194 14.3634 8.52178 14.41 8.52964C14.4961 8.54363 14.588 8.6281 14.5773 8.72189C14.5603 8.87191 14.4188 8.90071 14.2893 8.89111ZM14.1553 8.66521C14.1475 8.63403 14.1265 8.60753 14.0968 8.59153C14.0672 8.57554 14.0314 8.57136 13.9973 8.57992C13.9805 8.58416 13.9645 8.59139 13.9504 8.60122C13.9363 8.61104 13.9243 8.62326 13.9151 8.63717C13.9059 8.65108 13.8997 8.66642 13.8969 8.68231C13.894 8.69819 13.8945 8.71432 13.8984 8.72976C13.9062 8.76094 13.9273 8.78744 13.9569 8.80344C13.9865 8.81943 14.0223 8.82361 14.0564 8.81505C14.0733 8.81081 14.0892 8.80358 14.1033 8.79375C14.1174 8.78393 14.1294 8.77171 14.1386 8.7578C14.1478 8.74388 14.154 8.72855 14.1569 8.71266C14.1597 8.69678 14.1592 8.68065 14.1553 8.66521Z" fill="#9B63B8"/>
<path d="M9.78137 7.63524C9.67989 7.8988 9.75504 8.20487 9.91959 8.44127C10.0896 8.68481 10.3359 8.79451 10.6222 8.82084C10.6976 8.82761 10.8307 8.8468 10.8976 8.82084C11.0029 8.7797 11.0174 8.88392 11.0037 8.96949C10.9812 9.11073 10.8241 9.14665 10.6982 9.1472C10.4656 9.14812 10.248 9.09436 10.0452 8.98594C9.73255 8.81865 9.50711 8.4506 9.43745 8.10668C9.39467 7.89606 9.41314 7.68451 9.49285 7.47206C9.6607 7.02466 9.97472 6.75625 10.4349 6.66685C10.6252 6.62973 10.8126 6.64216 10.9969 6.70415C11.2618 6.79273 11.0948 7.09798 10.8976 7.00775C10.8634 6.9922 10.8277 6.98178 10.7906 6.97648C10.5716 6.94576 10.3788 6.98105 10.2122 7.08234C9.99035 7.21728 9.87242 7.39856 9.78137 7.63524Z" fill="#003550"/>
<path d="M11.537 8.15822C11.6385 7.89466 11.5633 7.58859 11.3988 7.35218C11.2287 7.10865 10.9824 6.99894 10.6961 6.97262C10.6208 6.96585 10.4877 6.94665 10.4208 6.97262C10.3155 7.01375 10.3009 6.90954 10.3146 6.82397C10.3371 6.68273 10.4943 6.6468 10.6202 6.64625C10.8527 6.64534 11.0704 6.69909 11.2732 6.80752C11.5858 6.97481 11.8112 7.34286 11.8809 7.68677C11.9237 7.8974 11.9052 8.10894 11.8255 8.3214C11.6577 8.7688 11.3436 9.0372 10.8834 9.12661C10.6931 9.16372 10.5058 9.15129 10.3215 9.08931C10.0566 9.00073 10.1243 8.72675 10.3215 8.81698C10.3557 8.83252 10.4906 8.81167 10.5277 8.81698C10.7468 8.84769 10.9396 8.81241 11.1061 8.71111C11.328 8.57618 11.4459 8.3949 11.537 8.15822Z" fill="#003550"/>
<path d="M10.6025 7.95512C10.6051 7.95792 10.6083 7.96014 10.6118 7.96163C10.6154 7.96312 10.6192 7.96385 10.623 7.96377C10.6269 7.9637 10.6307 7.96281 10.6342 7.96118C10.6377 7.95955 10.6408 7.9572 10.6434 7.9543C10.7545 7.82777 10.8699 7.70445 10.9895 7.58433C11.0361 7.53716 11.0742 7.47627 11.1362 7.44885C11.2736 7.38769 11.4039 7.56815 11.3254 7.68361C11.2695 7.76643 11.2037 7.82759 11.1365 7.8978C11.0171 8.02213 10.9027 8.14527 10.7934 8.26722C10.7406 8.32591 10.6858 8.3516 10.6291 8.34428C10.5883 8.33898 10.5478 8.31741 10.5073 8.27956C10.2922 8.07862 10.1543 7.9404 10.0938 7.86489C10.0382 7.79559 10.0467 7.72895 10.1193 7.66496C10.2073 7.58734 10.3082 7.65234 10.3776 7.72255C10.4555 7.80117 10.5305 7.87869 10.6025 7.95512Z" fill="#003550"/>
<path d="M14.6389 9.84908C14.6389 9.88937 14.6229 9.92802 14.5944 9.95651C14.5659 9.985 14.5272 10.001 14.487 10.001H6.57088C6.53059 10.001 6.49194 9.985 6.46345 9.95651C6.43495 9.92802 6.41895 9.88937 6.41895 9.84908V9.84578C6.41895 9.80549 6.43495 9.76684 6.46345 9.73835C6.49194 9.70985 6.53059 9.69385 6.57088 9.69385H14.487C14.5272 9.69385 14.5659 9.70985 14.5944 9.73835C14.6229 9.76684 14.6389 9.80549 14.6389 9.84578V9.84908Z" fill="#003550"/>
<path d="M12.5811 4.91765C12.5811 4.63225 12.8124 4.40088 13.0978 4.40088C13.3832 4.40088 13.6146 4.63225 13.6146 4.91765V5.57736C13.6146 5.86277 13.3832 6.09414 13.0978 6.09414C12.8124 6.09414 12.5811 5.86277 12.5811 5.57736V4.91765Z" fill="white"/>
<path fill-rule="evenodd" clip-rule="evenodd" d="M13.3286 5.57736V4.91765C13.3286 4.7902 13.2253 4.68688 13.0978 4.68688C12.9704 4.68688 12.8671 4.7902 12.8671 4.91765V5.57736C12.8671 5.70482 12.9704 5.80814 13.0978 5.80814C13.2253 5.80814 13.3286 5.70482 13.3286 5.57736ZM13.0978 4.40088C12.8124 4.40088 12.5811 4.63225 12.5811 4.91765V5.57736C12.5811 5.86277 12.8124 6.09414 13.0978 6.09414C13.3832 6.09414 13.6146 5.86277 13.6146 5.57736V4.91765C13.6146 4.63225 13.3832 4.40088 13.0978 4.40088Z" fill="#003550"/>
<path d="M7.56738 4.91765C7.56738 4.63225 7.79875 4.40088 8.08416 4.40088C8.36956 4.40088 8.60093 4.63225 8.60093 4.91765V5.57736C8.60093 5.86277 8.36956 6.09414 8.08416 6.09414C7.79875 6.09414 7.56738 5.86277 7.56738 5.57736V4.91765Z" fill="white"/>
<path fill-rule="evenodd" clip-rule="evenodd" d="M8.31493 5.57736V4.91765C8.31493 4.7902 8.21161 4.68688 8.08416 4.68688C7.9567 4.68688 7.85338 4.7902 7.85338 4.91765V5.57736C7.85338 5.70482 7.9567 5.80814 8.08416 5.80814C8.21161 5.80814 8.31493 5.70482 8.31493 5.57736ZM8.08416 4.40088C7.79875 4.40088 7.56738 4.63225 7.56738 4.91765V5.57736C7.56738 5.86277 7.79875 6.09414 8.08416 6.09414C8.36956 6.09414 8.60093 5.86277 8.60093 5.57736V4.91765C8.60093 4.63225 8.36956 4.40088 8.08416 4.40088Z" fill="#003550"/>
<path d="M6.42383 10.8658C6.42383 10.6228 6.62082 10.4258 6.86383 10.4258H8.18287C8.42587 10.4258 8.62287 10.6228 8.62287 10.8658V12.1848C8.62287 12.4278 8.42587 12.6248 8.18287 12.6248H6.86383C6.62082 12.6248 6.42383 12.4278 6.42383 12.1848V10.8658Z" fill="#9EE8E9"/>
<path fill-rule="evenodd" clip-rule="evenodd" d="M8.18287 10.7558H6.86383C6.80308 10.7558 6.75383 10.805 6.75383 10.8658V12.1848C6.75383 12.2456 6.80308 12.2948 6.86383 12.2948H8.18287C8.24362 12.2948 8.29287 12.2456 8.29287 12.1848V10.8658C8.29287 10.805 8.24362 10.7558 8.18287 10.7558ZM6.86383 10.4258C6.62082 10.4258 6.42383 10.6228 6.42383 10.8658V12.1848C6.42383 12.4278 6.62082 12.6248 6.86383 12.6248H8.18287C8.42587 12.6248 8.62287 12.4278 8.62287 12.1848V10.8658C8.62287 10.6228 8.42587 10.4258 8.18287 10.4258H6.86383Z" fill="#003550"/>
<path d="M8.88672 10.8658C8.88672 10.6228 9.08371 10.4258 9.32672 10.4258H10.6458C10.8888 10.4258 11.0858 10.6228 11.0858 10.8658V12.1848C11.0858 12.4278 10.8888 12.6248 10.6458 12.6248H9.32672C9.08371 12.6248 8.88672 12.4278 8.88672 12.1848V10.8658Z" fill="#9EE8E9"/>
<path fill-rule="evenodd" clip-rule="evenodd" d="M10.6458 10.7558H9.32672C9.26597 10.7558 9.21672 10.805 9.21672 10.8658V12.1848C9.21672 12.2456 9.26597 12.2948 9.32672 12.2948H10.6458C10.7065 12.2948 10.7558 12.2456 10.7558 12.1848V10.8658C10.7558 10.805 10.7065 10.7558 10.6458 10.7558ZM9.32672 10.4258C9.08371 10.4258 8.88672 10.6228 8.88672 10.8658V12.1848C8.88672 12.4278 9.08371 12.6248 9.32672 12.6248H10.6458C10.8888 12.6248 11.0858 12.4278 11.0858 12.1848V10.8658C11.0858 10.6228 10.8888 10.4258 10.6458 10.4258H9.32672Z" fill="#003550"/>
<path d="M11.2178 10.8658C11.2178 10.6228 11.4148 10.4258 11.6578 10.4258H12.9768C13.2198 10.4258 13.4168 10.6228 13.4168 10.8658V12.1848C13.4168 12.4278 13.2198 12.6248 12.9768 12.6248H11.6578C11.4148 12.6248 11.2178 12.4278 11.2178 12.1848V10.8658Z" fill="white"/>
<path fill-rule="evenodd" clip-rule="evenodd" d="M12.9768 10.7558H11.6578C11.597 10.7558 11.5478 10.805 11.5478 10.8658V12.1848C11.5478 12.2456 11.597 12.2948 11.6578 12.2948H12.9768C13.0376 12.2948 13.0868 12.2456 13.0868 12.1848V10.8658C13.0868 10.805 13.0376 10.7558 12.9768 10.7558ZM11.6578 10.4258C11.4148 10.4258 11.2178 10.6228 11.2178 10.8658V12.1848C11.2178 12.4278 11.4148 12.6248 11.6578 12.6248H12.9768C13.2198 12.6248 13.4168 12.4278 13.4168 12.1848V10.8658C13.4168 10.6228 13.2198 10.4258 12.9768 10.4258H11.6578Z" fill="#003550"/>
<path d="M6.42383 13.461C6.42383 13.218 6.62082 13.021 6.86383 13.021H8.18287C8.42587 13.021 8.62287 13.218 8.62287 13.461V14.78C8.62287 15.023 8.42587 15.22 8.18287 15.22H6.86383C6.62082 15.22 6.42383 15.023 6.42383 14.78V13.461Z" fill="white"/>
<path fill-rule="evenodd" clip-rule="evenodd" d="M8.18287 13.351H6.86383C6.80308 13.351 6.75383 13.4002 6.75383 13.461V14.78C6.75383 14.8408 6.80308 14.89 6.86383 14.89H8.18287C8.24362 14.89 8.29287 14.8408 8.29287 14.78V13.461C8.29287 13.4002 8.24362 13.351 8.18287 13.351ZM6.86383 13.021C6.62082 13.021 6.42383 13.218 6.42383 13.461V14.78C6.42383 15.023 6.62082 15.22 6.86383 15.22H8.18287C8.42587 15.22 8.62287 15.023 8.62287 14.78V13.461C8.62287 13.218 8.42587 13.021 8.18287 13.021H6.86383Z" fill="#003550"/>
<path d="M8.88672 13.461C8.88672 13.218 9.08371 13.021 9.32672 13.021H10.6458C10.8888 13.021 11.0858 13.218 11.0858 13.461V14.78C11.0858 15.023 10.8888 15.22 10.6458 15.22H9.32672C9.08371 15.22 8.88672 15.023 8.88672 14.78V13.461Z" fill="white"/>
<path fill-rule="evenodd" clip-rule="evenodd" d="M10.6458 13.351H9.32672C9.26597 13.351 9.21672 13.4002 9.21672 13.461V14.78C9.21672 14.8408 9.26597 14.89 9.32672 14.89H10.6458C10.7065 14.89 10.7558 14.8408 10.7558 14.78V13.461C10.7558 13.4002 10.7065 13.351 10.6458 13.351ZM9.32672 13.021C9.08371 13.021 8.88672 13.218 8.88672 13.461V14.78C8.88672 15.023 9.08371 15.22 9.32672 15.22H10.6458C10.8888 15.22 11.0858 15.023 11.0858 14.78V13.461C11.0858 13.218 10.8888 13.021 10.6458 13.021H9.32672Z" fill="#003550"/>
<path d="M11.0856 12.0973L11.6024 11.8774L12.2511 11.4376L12.581 11.0967L12.8559 10.9098L13.4606 10.9758L13.6475 10.7889L14.3072 10.7119L14.6371 11.0967L14.5381 11.5256L14.802 11.7345L15.2198 11.6465L15.5167 11.9984L16.0115 12.3832L16.2204 12.746V13.5267L15.5167 17.287L15.2198 17.452L11.3715 17.397L11.0307 16.3634L10.5469 13.3068L10.8328 12.9769V12.5261L11.0856 12.0973Z" fill="white"/>
<path d="M13.3506 13.3726V17.4408H15.4397L16.2313 13.3726L16.0554 12.9768L16.2313 12.471L15.6376 12.2291C15.396 12.1687 15.1518 12.3182 15.0958 12.5609L14.9999 12.9768L14.758 13.1087L14.2962 13.3726L14.1642 13.1087H13.7464L13.3506 13.3726Z" fill="#9B63B8"/>
<path d="M7.60412 11.375C7.73549 11.2447 7.85753 11.1147 7.99658 10.9979C8.07173 10.9343 8.1721 11.0344 8.19926 11.0985C8.22586 11.1608 8.18691 11.2335 8.14248 11.2776C7.94228 11.4766 7.75131 11.6812 7.56957 11.8917C7.54251 11.9228 7.51161 11.9541 7.47687 11.9858C7.29614 12.1495 7.10279 11.9534 6.98952 11.8001C6.9322 11.7219 6.9429 11.6331 7.01941 11.5747C7.11266 11.5036 7.20454 11.5664 7.26652 11.6416C7.29888 11.6811 7.3306 11.6811 7.36168 11.6416C7.42604 11.5602 7.50685 11.4713 7.60412 11.375Z" fill="#003550"/>
<path d="M10.0436 11.373C10.1749 11.2428 10.297 11.1128 10.436 10.9959C10.5112 10.9323 10.6116 11.0324 10.6387 11.0966C10.6653 11.1588 10.6264 11.2315 10.5819 11.2757C10.3817 11.4746 10.1908 11.6793 10.009 11.8897C9.98196 11.9208 9.95106 11.9522 9.91632 11.9838C9.73559 12.1475 9.54224 11.9514 9.42897 11.7981C9.37165 11.72 9.38235 11.6311 9.45887 11.5727C9.55211 11.5017 9.64399 11.5645 9.70597 11.6396C9.73833 11.6791 9.77005 11.6791 9.80114 11.6396C9.86549 11.5583 9.94631 11.4694 10.0436 11.373Z" fill="#003550"/>
<path fill-rule="evenodd" clip-rule="evenodd" d="M10.7385 15.6694L10.8922 16.4871C10.9004 16.5168 10.909 16.5463 10.9178 16.5757C10.9186 16.5784 10.9187 16.5812 10.9182 16.584C10.9177 16.5868 10.9166 16.5894 10.9149 16.5916C10.9141 16.5926 10.9133 16.5935 10.9123 16.5944L10.994 17.029C11.0054 17.0857 11.018 17.1421 11.0316 17.1982C11.0563 17.2999 11.1179 17.3982 11.2162 17.4931L11.3714 17.5764C11.4429 17.5929 11.5274 17.6008 11.6249 17.6003C12.5487 17.5937 13.7034 17.5937 15.089 17.6003C15.2296 17.601 15.3152 17.5978 15.3459 17.5907C15.6147 17.5273 15.7137 17.1941 15.7447 16.9588C15.7524 16.8994 15.7608 16.8433 15.7699 16.7907C15.906 16.0061 16.055 15.2117 16.217 14.4074C16.2822 14.0836 16.344 13.7592 16.4024 13.4341C16.4249 13.3093 16.3807 13.2015 16.3102 13.1042C16.2905 13.077 16.2905 13.0419 16.3053 13.0131C16.3316 12.9202 16.3469 12.8594 16.3511 12.8307C16.3983 12.5134 16.2271 12.2027 15.9142 12.1081C15.8851 12.0993 15.8558 12.1001 15.8289 12.0878C15.8249 12.086 15.8214 12.0833 15.8186 12.0801C15.8157 12.0769 15.8136 12.0732 15.8124 12.0691C15.7549 11.8809 15.6852 11.7655 15.5691 11.6447L15.5555 11.633C15.4937 11.5801 15.4233 11.5382 15.3473 11.5091C15.296 11.4895 15.243 11.476 15.1893 11.4688C15.188 11.4698 15.1865 11.4706 15.1849 11.4712C15.1826 11.4719 15.1802 11.4723 15.1778 11.4721C15.0718 11.4644 14.966 11.4744 14.8605 11.5022C14.8371 11.5171 14.8161 11.5254 14.7974 11.5272C14.7967 11.5273 14.7959 11.5273 14.7952 11.5273L14.7875 11.5304C14.7751 11.5354 14.7623 11.5245 14.7651 11.5115L14.7663 11.5064C14.7658 11.5048 14.7654 11.5032 14.7652 11.5016C14.7645 11.4965 14.7651 11.4914 14.767 11.4866C14.7699 11.4791 14.7728 11.4715 14.7756 11.4638L14.8066 11.3222C14.8256 11.2352 14.8252 11.1452 14.8055 11.0584C14.7993 11.0311 14.7912 11.0043 14.7813 10.9782C14.7811 10.9778 14.7809 10.9773 14.7807 10.9768C14.7665 10.9434 14.7509 10.9112 14.7338 10.8804C14.7286 10.8716 14.7231 10.863 14.7174 10.8546L14.6716 10.7865C14.6593 10.7682 14.6463 10.7507 14.6327 10.7339C14.5492 10.6368 14.4433 10.5613 14.3104 10.5141C14.1872 10.4704 14.0455 10.4588 13.9097 10.48C13.8934 10.4836 13.8772 10.4877 13.861 10.4924L13.8523 10.4949C13.7469 10.5255 13.6502 10.5807 13.5703 10.6559L13.5238 10.6997C13.5113 10.7114 13.5004 10.7247 13.4913 10.7393C13.4367 10.8266 13.3247 10.8581 13.2326 10.8121L13.1191 10.7553C13.0555 10.7235 12.9834 10.7125 12.9132 10.7239L12.8234 10.7384C12.7724 10.7466 12.723 10.763 12.6772 10.7869C12.573 10.8413 12.4922 10.9319 12.45 11.0416L12.4337 11.0839C12.416 11.1299 12.3772 11.1645 12.3295 11.1769C12.1897 11.2131 12.0737 11.3103 12.0136 11.4416L12.0082 11.4533C11.9952 11.4815 11.97 11.5023 11.9398 11.5096L11.7881 11.5462C11.7099 11.5651 11.6378 11.6038 11.5789 11.6585C11.5366 11.6978 11.4874 11.7289 11.4338 11.7504L11.185 11.8499C11.0485 11.9074 10.9307 12.0019 10.845 12.1228L10.7449 12.2639C10.6652 12.3764 10.6246 12.5096 10.6258 12.6438C10.6264 12.6454 10.6267 12.647 10.6268 12.6486C10.6351 12.7399 10.6542 12.827 10.6842 12.91C10.688 12.9206 10.6853 12.9292 10.6759 12.9358C10.6374 12.9626 10.595 12.9889 10.549 13.0145C10.5354 13.022 10.5212 13.0277 10.5062 13.0316C10.4875 13.0443 10.4698 13.0585 10.4533 13.074L10.4103 13.1143C10.3504 13.1704 10.3164 13.2489 10.3164 13.331C10.3164 13.3383 10.3167 13.3456 10.3172 13.3528C10.3186 13.3554 10.3194 13.3584 10.3194 13.3614C10.3194 13.3652 10.3194 13.369 10.3194 13.3728C10.3198 13.3756 10.3202 13.3784 10.3207 13.3811L10.4483 14.1259L10.661 15.2572L10.7396 15.6498C10.7412 15.6579 10.7408 15.6644 10.7385 15.6694ZM13.6513 10.974C13.6947 10.929 13.7469 10.8938 13.8082 10.8682C13.9181 10.814 14.0245 10.7977 14.1274 10.8191C14.3803 10.8714 14.4993 11.0327 14.4845 11.3031C14.4843 11.309 14.4828 11.3144 14.4801 11.3191C14.4785 11.3221 14.4764 11.3248 14.4738 11.3273L14.4107 11.3892C14.2975 11.531 14.3891 11.6646 14.552 11.6813C14.5573 11.6818 14.5623 11.684 14.5663 11.6875C14.5703 11.6911 14.5731 11.6958 14.5742 11.7011C14.5757 11.7081 14.5772 11.7152 14.5787 11.7223C14.5887 11.7701 14.5993 11.8208 14.6299 11.8582C14.7193 11.9674 14.8364 11.946 14.934 11.8656C14.9702 11.8357 15.0083 11.8056 15.0574 11.8017C15.1933 11.7915 15.3059 11.8393 15.3953 11.9452C15.4571 12.0146 15.4795 12.0897 15.4625 12.1703C15.449 12.2341 15.4433 12.2728 15.4455 12.2863C15.4617 12.3801 15.5815 12.4835 15.6814 12.4465C15.7402 12.4247 15.8001 12.4288 15.861 12.4586C15.957 12.5054 16.012 12.58 16.0261 12.6824C16.0382 12.7698 16.0149 12.8416 15.9564 12.8979C15.9493 12.9045 15.941 12.9072 15.9315 12.9059C15.7086 12.8764 15.5181 12.9408 15.3599 13.0989C15.3576 13.1012 15.3548 13.1029 15.3518 13.1039C15.3487 13.1049 15.3455 13.1052 15.3423 13.1048C15.3407 13.1046 15.3391 13.1042 15.3376 13.1036C15.3361 13.1031 15.3347 13.1023 15.3334 13.1015C15.3308 13.0997 15.3286 13.0973 15.327 13.0946C15.2941 13.0379 15.2431 12.9984 15.174 12.9761C15.1704 12.9749 15.1674 12.9724 15.1656 12.9691C15.1638 12.9658 15.1632 12.9619 15.1641 12.9583C15.1979 12.8131 15.1871 12.6711 15.1315 12.5323C15.1162 12.4939 15.0928 12.4636 15.0689 12.4326C15.056 12.4158 15.0429 12.3987 15.0308 12.3801C14.8109 12.1149 14.4085 12.0233 14.1126 12.2353C14.1026 12.2426 14.0952 12.2404 14.0904 12.2287C13.9708 11.94 13.6637 11.7702 13.3513 11.8409C13.2365 11.8671 13.1396 11.9261 13.0606 12.0181C12.9714 12.1215 12.9421 12.3338 13.1242 12.3678C13.2383 12.3892 13.286 12.3184 13.3189 12.2274C13.3214 12.2207 13.3248 12.2144 13.3291 12.2087C13.3316 12.2054 13.3344 12.2022 13.3376 12.1994C13.3459 12.1916 13.356 12.186 13.3669 12.1829C13.5503 12.1319 13.6906 12.1838 13.7879 12.3384C13.8109 12.3754 13.8116 12.4071 13.8124 12.4443C13.8126 12.4541 13.8128 12.4643 13.8134 12.475C13.8225 12.6198 14.0317 12.7616 14.1527 12.6483C14.1636 12.6381 14.175 12.627 14.1867 12.6156C14.2514 12.5523 14.3272 12.4783 14.4159 12.4693C14.5248 12.4583 14.6474 12.4682 14.7286 12.5491C14.8067 12.6271 14.8515 12.7163 14.863 12.8165C14.8687 12.8667 14.8383 12.9007 14.7892 12.9037C14.6157 12.9146 14.4767 12.9898 14.3723 13.1291C14.3699 13.1325 14.3666 13.1352 14.3628 13.137C14.3607 13.1379 14.3585 13.1386 14.3563 13.139C14.3544 13.1393 14.3525 13.1394 14.3506 13.1394C14.3464 13.1391 14.3423 13.1379 14.3387 13.1357C14.3351 13.1336 14.332 13.1305 14.3298 13.1269C14.1974 12.9048 13.8875 12.8595 13.6576 12.9245C13.5459 12.956 13.4572 13.0247 13.3913 13.1308C13.3908 13.1316 13.3901 13.1325 13.3894 13.1332C13.3884 13.1342 13.3873 13.1351 13.3861 13.1358C13.3839 13.1371 13.3815 13.1378 13.379 13.1379C13.3775 13.138 13.376 13.1379 13.3745 13.1375C13.3736 13.1373 13.3726 13.137 13.3718 13.1366C13.3695 13.1356 13.3674 13.1341 13.3658 13.1321C13.2086 12.9391 12.9991 12.8644 12.7375 12.9081C12.6139 12.9285 12.5074 12.9937 12.418 13.1036C12.4036 13.1213 12.3887 13.1218 12.3733 13.105L12.3655 13.0965C12.343 13.0719 12.3217 13.0485 12.2924 13.0298C12.2353 12.9933 12.1788 12.9568 12.1226 12.9204C12.1133 12.9146 12.1082 12.9061 12.1073 12.8952C12.101 12.8236 12.0947 12.7358 12.1341 12.6736C12.1493 12.6496 12.1754 12.6356 12.2013 12.6216C12.2372 12.6022 12.2731 12.5829 12.2801 12.5375C12.2848 12.5057 12.2786 12.4768 12.2614 12.4506C12.1925 12.3462 12.1003 12.3264 11.985 12.3911C11.8021 12.4937 11.7374 12.6573 11.7908 12.882C11.7911 12.8835 11.7913 12.8851 11.7914 12.8866C11.7915 12.8884 11.7913 12.8901 11.791 12.8919C11.7903 12.8951 11.789 12.8982 11.7871 12.9009C11.7852 12.9036 11.7827 12.9058 11.7798 12.9074C11.7769 12.909 11.7738 12.91 11.7705 12.9103C11.6359 12.922 11.5271 12.9818 11.4441 13.0899C11.4426 13.0919 11.4406 13.0935 11.4384 13.0947C11.4361 13.0958 11.4336 13.0965 11.4311 13.0965C11.4285 13.0966 11.426 13.096 11.4236 13.095C11.4213 13.0939 11.4192 13.0924 11.4175 13.0904C11.3435 13.0021 11.2511 12.9423 11.1405 12.9111C11.1079 12.9018 11.0561 12.865 11.0344 12.8299C10.9411 12.6791 10.891 12.5469 10.9883 12.3714C11.0558 12.2501 11.239 12.1114 11.3827 12.2057C11.4647 12.2597 11.6441 12.3014 11.6616 12.1591C11.6735 12.0638 11.7206 11.9851 11.8029 11.9229C12.0335 11.7488 12.3648 11.8228 12.4901 12.0779C12.5247 12.1478 12.5307 12.2342 12.4915 12.3039L12.4896 12.3074C12.4714 12.3399 12.4511 12.3763 12.4558 12.4141C12.4781 12.5943 12.6678 12.6396 12.7748 12.4904C12.8721 12.3549 12.8922 12.2046 12.8351 12.0395C12.7569 11.8126 12.6121 11.6596 12.4007 11.5804C12.3938 11.5778 12.3877 11.5736 12.3828 11.568C12.378 11.5625 12.3746 11.5558 12.373 11.5486C12.3717 11.543 12.3715 11.5371 12.3725 11.5314C12.3727 11.5299 12.3731 11.5284 12.3735 11.5269C12.3755 11.5198 12.3792 11.5133 12.3843 11.508C12.4386 11.452 12.5088 11.4414 12.5837 11.4435C12.6525 11.4455 12.7098 11.3956 12.7027 11.3253C12.6837 11.14 12.7715 11.0419 12.9662 11.0311C13.1227 11.0223 13.249 11.0785 13.345 11.1997C13.3976 11.2667 13.4119 11.344 13.3952 11.4255C13.3757 11.5203 13.4788 11.5774 13.5608 11.5782C13.8633 11.5807 13.7358 11.1775 13.6453 11.027C13.6404 11.0187 13.6383 11.009 13.6394 10.9995C13.64 10.9949 13.6412 10.9904 13.6431 10.9862C13.6451 10.9817 13.6479 10.9776 13.6513 10.974ZM11.3004 14.3257C11.3418 14.7793 11.3871 15.2187 11.4469 15.6632C11.4725 15.8532 11.4971 16.047 11.5209 16.2446C11.5412 16.414 11.5647 16.586 11.5883 16.7587C11.6099 16.9168 11.6315 17.0755 11.6509 17.2333C11.6523 17.2442 11.6496 17.2551 11.6435 17.2641C11.6374 17.2731 11.6282 17.2795 11.6177 17.2821C11.4024 17.3367 11.3374 17.1233 11.3065 16.9577C11.1668 16.2105 11.0312 15.4915 10.8997 14.8007C10.8701 14.6444 10.8405 14.4778 10.8104 14.3083C10.7654 14.0544 10.7192 13.7941 10.6699 13.5526C10.6524 13.4664 10.6509 13.4062 10.6655 13.3718C10.7023 13.2868 10.7793 13.2311 10.872 13.2202C11.0084 13.2039 11.1189 13.2533 11.2033 13.3683C11.2324 13.4078 11.2478 13.4481 11.2494 13.4892C11.2626 13.8202 11.2796 14.099 11.3004 14.3257ZM12.2345 13.5435C12.2404 14.101 12.2494 14.5433 12.2617 14.8704C12.2721 15.1525 12.2944 15.5216 12.3286 15.9778L12.4191 17.1886C12.4213 17.2179 12.4215 17.2444 12.4196 17.2682C12.4194 17.2717 12.4178 17.275 12.4152 17.2773C12.4126 17.2797 12.4092 17.2811 12.4057 17.2811H11.9891C11.9874 17.2811 11.9857 17.2807 11.9841 17.2801C11.9827 17.2796 11.9814 17.2788 11.9802 17.2777C11.9777 17.2756 11.9761 17.2725 11.9756 17.2693C11.8928 16.6538 11.8133 16.0337 11.737 15.409C11.6639 14.8098 11.6138 14.2517 11.5867 13.7347C11.5805 13.6167 11.5808 13.5185 11.5876 13.4398C11.5927 13.3777 11.6281 13.3247 11.6937 13.2808C11.7869 13.2186 11.8962 13.2072 12.0214 13.2465C12.075 13.2633 12.1171 13.2887 12.1479 13.3227C12.2047 13.3856 12.2336 13.4592 12.2345 13.5435ZM12.9997 13.249C13.0938 13.2805 13.2002 13.3894 13.2048 13.5027C13.2103 13.6348 13.2132 13.7589 13.2133 13.8748C13.2153 15.0188 13.2159 16.1497 13.215 17.2676C13.215 17.2701 13.214 17.2725 13.2123 17.2742C13.2113 17.2752 13.2101 17.2759 13.2088 17.2764C13.2078 17.2768 13.2067 17.2769 13.2057 17.2769L12.7501 17.2731C12.7471 17.273 12.7441 17.2718 12.742 17.2698C12.7398 17.2677 12.7385 17.2648 12.7383 17.2619C12.7292 17.1343 12.7205 17.005 12.7117 16.8749C12.6975 16.6624 12.683 16.4479 12.6662 16.2356C12.6165 15.6074 12.5858 15.158 12.5743 14.8874C12.5553 14.4381 12.546 13.9771 12.5464 13.5043C12.5465 13.4123 12.5992 13.3354 12.7043 13.2736C12.7935 13.221 12.892 13.2128 12.9997 13.249ZM15.05 14.9713C14.9882 15.468 14.9284 15.9536 14.8707 16.4278C14.8367 16.7079 14.8084 16.9847 14.7859 17.258C14.7856 17.2614 14.7845 17.2646 14.7828 17.2675C14.7817 17.2691 14.7805 17.2706 14.7791 17.2719C14.7752 17.2755 14.7701 17.2775 14.7648 17.2775L14.3529 17.275C14.3498 17.275 14.3468 17.2744 14.344 17.2732C14.3412 17.2719 14.3387 17.2701 14.3366 17.2679C14.3346 17.2656 14.333 17.2629 14.332 17.26C14.331 17.2571 14.3307 17.254 14.3309 17.2509C14.3942 16.5226 14.4474 15.7423 14.4905 14.9098C14.5128 14.4831 14.5263 14.0376 14.5309 13.5734C14.5325 13.4089 14.6052 13.3013 14.7489 13.2509C14.9949 13.1648 15.1959 13.3153 15.1773 13.5783C15.1372 14.1464 15.0948 14.6107 15.05 14.9713ZM13.7986 13.2385C13.8748 13.23 13.9515 13.241 14.0287 13.2717C14.0925 13.2971 14.1471 13.349 14.1924 13.4272C14.2158 13.4676 14.2273 13.5267 14.2267 13.6044C14.2216 14.2279 14.1958 14.8481 14.1494 15.4652C14.1194 15.8636 14.0893 16.2678 14.0591 16.6777C14.0445 16.8748 14.0264 17.0692 14.0048 17.261C14.0042 17.266 14.0018 17.2706 13.998 17.2739C13.9942 17.2772 13.9893 17.279 13.9843 17.2789L13.5337 17.2764C13.5288 17.2764 13.5241 17.2744 13.5207 17.2709C13.5172 17.2674 13.5153 17.2627 13.5153 17.2577C13.5188 16.0373 13.5222 14.8031 13.5254 13.555C13.526 13.3647 13.617 13.2592 13.7986 13.2385ZM15.1963 16.3945C15.2276 16.1502 15.2591 15.9045 15.2881 15.6553C15.3055 15.5043 15.3205 15.3517 15.3355 15.1981C15.3556 14.9926 15.3759 14.7851 15.4027 14.5772C15.4464 14.2376 15.4726 13.9303 15.4811 13.6551C15.4852 13.5198 15.5026 13.4285 15.5335 13.3812C15.6065 13.2694 15.7175 13.2211 15.8665 13.2361C15.9512 13.2446 16.0787 13.3247 16.0752 13.4291C16.0743 13.4558 16.0715 13.4826 16.067 13.5095C16.0302 13.7249 15.9894 13.9417 15.9446 14.16C15.8523 14.6083 15.7658 15.0661 15.6852 15.5332C15.6532 15.7184 15.6203 15.8991 15.5865 16.0752C15.5322 16.3584 15.483 16.6379 15.4389 16.9138C15.4175 17.0482 15.4008 17.1276 15.3887 17.1519C15.3463 17.2376 15.2679 17.2825 15.1534 17.2865C15.1408 17.2869 15.1285 17.2828 15.1187 17.275C15.1089 17.2671 15.1021 17.2561 15.0997 17.2437C15.0964 17.2273 15.0959 17.2088 15.0983 17.1884C15.1284 16.9233 15.1622 16.6597 15.1963 16.3945Z" fill="#003550"/>
</svg>
