<svg width="22" height="22" viewBox="0 0 22 22" fill="none" xmlns="http://www.w3.org/2000/svg">
<circle cx="11" cy="11" r="11" fill="#FFE7E7"/>
<rect x="4.75293" y="5.56592" width="12.188" height="10.758" rx="5.379" fill="#FDBAB9"/>
<path d="M4.75293 8.42615C4.75293 7.61208 5.41286 6.95215 6.22693 6.95215H14.6309C15.445 6.95215 16.1049 7.61208 16.1049 8.42615V14.8501C16.1049 15.6642 15.445 16.3241 14.6309 16.3241H6.22693C5.41286 16.3241 4.75293 15.6642 4.75293 14.8501V8.42615Z" fill="#FDBAB9"/>
<path d="M4.75293 6.95215V14.8171C4.75293 15.7406 5.50151 16.4891 6.42493 16.4891H15.1589C15.6344 16.4891 16.0634 16.2907 16.3679 15.9721H15.4382C15.3486 15.9937 15.2551 16.0051 15.1589 16.0051H6.42493C5.76882 16.0051 5.23693 15.4733 5.23693 14.8171V6.95215H4.75293Z" fill="#D65555"/>
<path d="M5.40252 6.95215C5.59537 7.06349 5.80848 7.13928 6.03179 7.17401C6.07088 7.18009 6.11038 7.18315 6.14993 7.18315H6.29293V6.95215H5.40252Z" fill="#D65555"/>
<path d="M6.11621 7.01807C6.11621 6.79937 6.29351 6.62207 6.51221 6.62207H15.0262C15.4636 6.62207 15.8182 6.97666 15.8182 7.41407H6.51221C6.29351 7.41407 6.11621 7.23678 6.11621 7.01807Z" fill="#D65555"/>
<path d="M5.9623 5.83008C5.35479 5.83008 4.8623 6.32256 4.8623 6.93008V7.12808H5.8743V7.08408C5.8743 6.59807 6.26829 6.20408 6.7543 6.20408H15.2243C15.7103 6.20408 16.1043 6.59807 16.1043 7.08408V10.3401H16.6323V6.93008C16.6323 6.32256 16.1398 5.83008 15.5323 5.83008H5.9623Z" fill="#D65555"/>
<path fill-rule="evenodd" clip-rule="evenodd" d="M15.9944 15.0697V8.62375C15.9944 7.96763 15.4625 7.43575 14.8064 7.43575H5.79739C5.75784 7.43575 5.71834 7.43269 5.67926 7.42661C5.38987 7.3816 5.11762 7.26766 4.88439 7.09672V15.0697C4.88439 15.7259 5.41628 16.2577 6.07239 16.2577H14.8064C15.4625 16.2577 15.9944 15.7259 15.9944 15.0697ZM4.41484 6.70619L4.40039 6.95175V15.0697C4.40039 15.9932 5.14897 16.7417 6.07239 16.7417H14.8064C15.7298 16.7417 16.4784 15.9932 16.4784 15.0697V8.62375C16.4784 7.70033 15.7298 6.95175 14.8064 6.95175H5.79739C5.78275 6.95175 5.76812 6.95062 5.75365 6.94837C5.44772 6.90078 5.16789 6.74818 4.96219 6.51678L4.94995 6.50301C4.84104 6.38048 4.65321 6.37001 4.53136 6.47968L4.51803 6.49167C4.45675 6.54682 4.41968 6.6239 4.41484 6.70619Z" fill="#003550"/>
<path d="M6.07239 5.74181H15.5764C16.2325 5.74181 16.7644 6.2737 16.7644 6.92981V14.7178C16.7644 15.3141 16.325 15.8078 15.7524 15.8929V16.3807C16.5931 16.2927 17.2484 15.5818 17.2484 14.7178V6.92981C17.2484 6.00639 16.4998 5.25781 15.5764 5.25781H6.07239C5.14897 5.25781 4.40039 6.00639 4.40039 6.92981V11.2198H4.88439V6.92981C4.88439 6.2737 5.41628 5.74181 6.07239 5.74181Z" fill="#003550"/>
<path d="M11.6162 11.6381C11.6162 10.824 12.2761 10.1641 13.0902 10.1641H17.0722C17.3638 10.1641 17.6002 10.4005 17.6002 10.6921V12.1221C17.6002 12.7296 17.1077 13.2221 16.5002 13.2221H13.0902C12.2761 13.2221 11.6162 12.5621 11.6162 11.7481V11.6381Z" fill="#FDBAB9"/>
<path fill-rule="evenodd" clip-rule="evenodd" d="M17.0722 10.6481H13.0902C12.5434 10.6481 12.1002 11.0913 12.1002 11.6381V11.7481C12.1002 12.2948 12.5434 12.7381 13.0902 12.7381H16.5002C16.8404 12.7381 17.1162 12.4623 17.1162 12.1221V10.6921C17.1162 10.6678 17.0965 10.6481 17.0722 10.6481ZM13.0902 10.1641C12.2761 10.1641 11.6162 10.824 11.6162 11.6381V11.7481C11.6162 12.5621 12.2761 13.2221 13.0902 13.2221H16.5002C17.1077 13.2221 17.6002 12.7296 17.6002 12.1221V10.6921C17.6002 10.4005 17.3638 10.1641 17.0722 10.1641H13.0902Z" fill="#003550"/>
<circle cx="13.3989" cy="11.7041" r="0.77" fill="#FDBAB9"/>
<path d="M5.34526 7.70251C5.38141 7.73579 5.41123 7.75747 5.43472 7.76756C5.48517 7.78925 5.53254 7.80868 5.57682 7.82585C5.62335 7.84407 5.65694 7.8626 5.67757 7.88142C5.74285 7.94106 5.73879 8.06418 5.68005 8.12065C5.60121 8.19678 5.46138 8.15251 5.36944 8.1141C5.29203 8.07826 5.22975 8.04422 5.18261 8.01199C5.0098 7.89385 5.09835 7.58639 5.34526 7.70251Z" fill="#003550"/>
<path d="M7.72253 8.18353C7.67147 8.18375 7.59557 8.16568 7.56462 8.1205C7.45732 7.96395 7.59309 7.82953 7.75754 7.82886C7.97095 7.8278 8.1854 7.82675 8.40092 7.82569C8.44158 7.82539 8.47735 7.83142 8.50822 7.84377C8.68601 7.91447 8.63563 8.1903 8.42848 8.18714C8.21161 8.18413 7.97629 8.18292 7.72253 8.18353Z" fill="#003550"/>
<path d="M12.6467 7.83589L12.0038 7.83477C11.9111 7.8346 11.8358 7.90962 11.8356 8.00232L11.8356 8.01542C11.8355 8.10812 11.9105 8.1834 12.0032 8.18356L12.6461 8.18468C12.7388 8.18484 12.8141 8.10983 12.8142 8.01713L12.8143 8.00403C12.8144 7.91133 12.7394 7.83605 12.6467 7.83589Z" fill="#003550"/>
<path d="M9.86014 7.84825L9.29539 7.84627C9.20506 7.84596 9.13158 7.91893 9.13127 8.00926L9.13121 8.02462C9.1309 8.11495 9.20387 8.18843 9.29419 8.18874L9.85895 8.19071C9.94928 8.19103 10.0228 8.11806 10.0231 8.02773L10.0231 8.01237C10.0234 7.92204 9.95047 7.84856 9.86014 7.84825Z" fill="#003550"/>
<path d="M11.1398 7.84619H10.6826C10.592 7.84619 10.5186 7.91962 10.5186 8.0102V8.02601C10.5186 8.11659 10.592 8.19002 10.6826 8.19002H11.1398C11.2304 8.19002 11.3038 8.11659 11.3038 8.02601V8.0102C11.3038 7.91962 11.2304 7.84619 11.1398 7.84619Z" fill="#003550"/>
<path d="M13.9054 7.8477L13.487 7.84697C13.3966 7.84681 13.3231 7.92001 13.323 8.01046L13.3229 8.02718C13.3228 8.11763 13.396 8.19108 13.4864 8.19124L13.9048 8.19197C13.9952 8.19213 14.0687 8.11893 14.0689 8.02848L14.0689 8.01176C14.069 7.92131 13.9958 7.84785 13.9054 7.8477Z" fill="#003550"/>
<path d="M6.82454 7.85307L6.41159 7.85162C6.3245 7.85132 6.25366 7.92167 6.25336 8.00875L6.25328 8.02954C6.25298 8.11662 6.32333 8.18746 6.41041 8.18777L6.82336 8.18921C6.91045 8.18951 6.98129 8.11916 6.98159 8.03208L6.98166 8.0113C6.98197 7.92421 6.91162 7.85337 6.82454 7.85307Z" fill="#003550"/>
<path d="M14.7293 8.16841C14.6606 8.14763 14.6225 8.10636 14.615 8.04462C14.5985 7.91111 14.7055 7.82865 14.8379 7.86344C14.934 7.88874 15.0186 7.92647 15.0916 7.97662C15.175 8.03377 15.2513 8.1465 15.1987 8.25041C15.1623 8.32248 15.0722 8.37669 14.9981 8.31932C14.91 8.25087 14.84 8.20185 14.7293 8.16841Z" fill="#003550"/>
<path d="M15.4115 8.62418L15.3943 8.62436C15.3092 8.62525 15.241 8.69495 15.2418 8.78003L15.2453 9.10984C15.2462 9.19492 15.3159 9.26317 15.401 9.26228L15.4181 9.2621C15.5032 9.26121 15.5715 9.19151 15.5706 9.10643L15.5671 8.77663C15.5662 8.69154 15.4965 8.62329 15.4115 8.62418Z" fill="#003550"/>
<path d="M13.7761 12.3717C13.6604 12.4367 13.5421 12.4688 13.4212 12.4679C13.1798 12.4663 12.9772 12.3778 12.8133 12.2025C12.652 12.0032 12.5938 11.791 12.6387 11.5657C12.7781 10.8676 13.6613 10.7063 14.0485 11.2962C14.1211 11.4069 14.1624 11.5257 14.1723 11.6526C14.1961 11.9594 14.0445 12.2192 13.7761 12.3717ZM13.758 11.7697C13.7699 11.6127 13.6967 11.4873 13.5382 11.3935C13.4777 11.3619 13.4125 11.352 13.3426 11.3639C13.2897 11.373 13.2449 11.3866 13.208 11.4048C13.0959 11.4604 13.0643 11.6285 13.0753 11.7423C13.1016 12.0145 13.4117 12.1123 13.6236 11.966C13.6833 11.9248 13.7281 11.8594 13.758 11.7697Z" fill="#003550"/>
<path d="M15.5741 13.6856C15.5745 13.8723 15.5741 14.0558 15.5727 14.2359C15.5723 14.2987 15.566 14.3437 15.554 14.371C15.5133 14.4618 15.392 14.4945 15.3131 14.4306C15.2669 14.3933 15.2437 14.3515 15.2436 14.3052C15.2428 14.1003 15.2431 13.8942 15.2445 13.6869C15.2458 13.5548 15.3857 13.4703 15.4986 13.5326C15.5521 13.5622 15.5772 13.6131 15.5741 13.6856Z" fill="#003550"/>
<path d="M15.2309 15.0061C15.2336 15.1227 15.3128 15.2155 15.4078 15.2133C15.5028 15.2112 15.5778 15.1149 15.5751 14.9983C15.5725 14.8817 15.4933 14.7889 15.3982 14.791C15.3032 14.7932 15.2283 14.8895 15.2309 15.0061Z" fill="#003550"/>
<path d="M5.40479 15.4124C5.4834 15.4669 5.72467 15.559 5.68988 15.6851C5.64922 15.8324 5.50215 15.85 5.37858 15.7998C5.23867 15.7444 5.14108 15.6566 5.08581 15.5364C5.02685 15.4081 5.18769 15.2719 5.31104 15.3417C5.3456 15.3614 5.37226 15.3891 5.40479 15.4124Z" fill="#003550"/>
<path d="M15.0115 15.4427C15.0709 15.4075 15.1324 15.3914 15.1886 15.4468C15.3922 15.6467 15.0621 15.8152 14.9254 15.8783C14.705 15.9802 14.5071 15.6594 14.7671 15.5611C14.8499 15.5299 14.9314 15.4905 15.0115 15.4427Z" fill="#003550"/>
<path d="M6.80406 15.5612L6.39566 15.5562C6.30658 15.5551 6.23349 15.6264 6.2324 15.7155L6.23221 15.7313C6.23112 15.8204 6.30245 15.8935 6.39152 15.8945L6.79993 15.8995C6.889 15.9006 6.96209 15.8293 6.96318 15.7402L6.96337 15.7244C6.96446 15.6353 6.89314 15.5622 6.80406 15.5612Z" fill="#003550"/>
<path d="M8.26172 15.5578L7.67482 15.5588C7.58474 15.559 7.51185 15.6321 7.512 15.7222L7.51203 15.7357C7.51218 15.8258 7.58534 15.8987 7.67541 15.8986L8.26231 15.8975C8.35239 15.8974 8.42529 15.8242 8.42513 15.7341L8.4251 15.7206C8.42495 15.6305 8.3518 15.5576 8.26172 15.5578Z" fill="#003550"/>
<path d="M9.65324 15.5586H9.1942C9.10474 15.5586 9.03223 15.6311 9.03223 15.7206V15.7359C9.03223 15.8254 9.10474 15.8979 9.1942 15.8979H9.65324C9.74269 15.8979 9.81521 15.8254 9.81521 15.7359V15.7206C9.81521 15.6311 9.74269 15.5586 9.65324 15.5586Z" fill="#003550"/>
<path d="M11.0501 15.5605L10.5201 15.5587C10.4308 15.5584 10.3581 15.6305 10.3578 15.7199L10.3578 15.7339C10.3575 15.8232 10.4296 15.8959 10.519 15.8962L11.0489 15.898C11.1383 15.8983 11.2109 15.8262 11.2112 15.7368L11.2113 15.7228C11.2116 15.6335 11.1394 15.5608 11.0501 15.5605Z" fill="#003550"/>
<path d="M12.6179 15.5572L11.9592 15.5583C11.8685 15.5585 11.7951 15.6321 11.7952 15.7228L11.7952 15.7364C11.7954 15.8271 11.869 15.9005 11.9598 15.9003L12.6185 15.8992C12.7092 15.899 12.7826 15.8254 12.7824 15.7347L12.7824 15.7211C12.7822 15.6304 12.7086 15.557 12.6179 15.5572Z" fill="#003550"/>
<path d="M13.9348 15.5596H13.4753C13.3913 15.5596 13.3232 15.6276 13.3232 15.7116V15.7455C13.3232 15.8295 13.3913 15.8975 13.4753 15.8975H13.9348C14.0187 15.8975 14.0868 15.8295 14.0868 15.7455V15.7116C14.0868 15.6276 14.0187 15.5596 13.9348 15.5596Z" fill="#003550"/>
</svg>
