<svg width="23" height="22" viewBox="0 0 23 22" fill="none" xmlns="http://www.w3.org/2000/svg">
<circle cx="11.2051" cy="11" r="11" fill="#E9F7FF"/>
<path d="M10.3467 4.77426C10.3467 4.40975 10.6422 4.11426 11.0067 4.11426H17.5407C17.9052 4.11426 18.2007 4.40975 18.2007 4.77426V15.4663C18.2007 15.8308 17.9052 16.1263 17.5407 16.1263H11.0067C10.6422 16.1263 10.3467 15.8308 10.3467 15.4663V4.77426Z" fill="white"/>
<path fill-rule="evenodd" clip-rule="evenodd" d="M17.5407 4.59826H11.0067C10.9095 4.59826 10.8307 4.67706 10.8307 4.77426V15.4663C10.8307 15.5635 10.9095 15.6423 11.0067 15.6423H17.5407C17.6379 15.6423 17.7167 15.5635 17.7167 15.4663V4.77426C17.7167 4.67706 17.6379 4.59826 17.5407 4.59826ZM11.0067 4.11426C10.6422 4.11426 10.3467 4.40975 10.3467 4.77426V15.4663C10.3467 15.8308 10.6422 16.1263 11.0067 16.1263H17.5407C17.9052 16.1263 18.2007 15.8308 18.2007 15.4663V4.77426C18.2007 4.40975 17.9052 4.11426 17.5407 4.11426H11.0067Z" fill="#58ACDB"/>
<path fill-rule="evenodd" clip-rule="evenodd" d="M17.8487 4.59826H11.0067C10.9095 4.59826 10.8307 4.67706 10.8307 4.77426V15.7303C10.8307 15.8275 10.9095 15.9063 11.0067 15.9063H17.8487C17.9459 15.9063 18.0247 15.8275 18.0247 15.7303V4.77426C18.0247 4.67706 17.9459 4.59826 17.8487 4.59826ZM11.0067 4.11426C10.6422 4.11426 10.3467 4.40975 10.3467 4.77426V15.7303C10.3467 16.0948 10.6422 16.3903 11.0067 16.3903H17.8487C18.2132 16.3903 18.5087 16.0948 18.5087 15.7303V4.77426C18.5087 4.40975 18.2132 4.11426 17.8487 4.11426H11.0067Z" fill="#003550"/>
<path d="M16.4626 7.75521C16.4626 8.87911 15.5515 9.79022 14.4276 9.79022C13.3037 9.79022 12.3926 8.87911 12.3926 7.75521C12.3926 6.63132 13.3037 5.72021 14.4276 5.72021C15.5515 5.72021 16.4626 6.63132 16.4626 7.75521Z" fill="#58ACDB"/>
<path fill-rule="evenodd" clip-rule="evenodd" d="M14.4276 9.30622C15.2842 9.30622 15.9786 8.61181 15.9786 7.75521C15.9786 6.89862 15.2842 6.20421 14.4276 6.20421C13.571 6.20421 12.8766 6.89862 12.8766 7.75521C12.8766 8.61181 13.571 9.30622 14.4276 9.30622ZM14.4276 9.79022C15.5515 9.79022 16.4626 8.87911 16.4626 7.75521C16.4626 6.63132 15.5515 5.72021 14.4276 5.72021C13.3037 5.72021 12.3926 6.63132 12.3926 7.75521C12.3926 8.87911 13.3037 9.79022 14.4276 9.79022Z" fill="#003550"/>
<path fill-rule="evenodd" clip-rule="evenodd" d="M11.6445 13.0901C11.6445 12.9565 11.7529 12.8481 11.8865 12.8481H16.9685C17.1022 12.8481 17.2105 12.9565 17.2105 13.0901C17.2105 13.2238 17.1022 13.3321 16.9685 13.3321H11.8865C11.7529 13.3321 11.6445 13.2238 11.6445 13.0901Z" fill="#003550"/>
<path fill-rule="evenodd" clip-rule="evenodd" d="M11.6445 11.8582C11.6445 11.7246 11.7529 11.6162 11.8865 11.6162H16.9685C17.1022 11.6162 17.2105 11.7246 17.2105 11.8582C17.2105 11.9919 17.1022 12.1002 16.9685 12.1002H11.8865C11.7529 12.1002 11.6445 11.9919 11.6445 11.8582Z" fill="#003550"/>
<path d="M14.1744 9.50383C14.1744 9.63749 14.2827 9.74583 14.4164 9.74583C14.55 9.74583 14.6584 9.63749 14.6584 9.50383V8.57983L16.0444 8.57983C16.178 8.57983 16.2864 8.47149 16.2864 8.33783C16.2864 8.20418 16.178 8.09583 16.0444 8.09583L14.6584 8.09583L14.6584 7.41383L16.0444 7.41383C16.178 7.41383 16.2864 7.30549 16.2864 7.17183C16.2864 7.03818 16.178 6.92983 16.0444 6.92983L14.6584 6.92983V6.26983C14.6584 6.13618 14.55 6.02783 14.4164 6.02783C14.2827 6.02783 14.1744 6.13618 14.1744 6.26983V6.92983L12.8104 6.92983C12.6767 6.92983 12.5684 7.03818 12.5684 7.17183C12.5684 7.30549 12.6767 7.41383 12.8104 7.41383H14.1744L14.1744 8.09583L12.8104 8.09583C12.6767 8.09583 12.5684 8.20418 12.5684 8.33783C12.5684 8.47149 12.6767 8.57983 12.8104 8.57983H14.1744V9.50383Z" fill="#003550"/>
<path d="M14.1316 16.995C14.1316 17.4749 13.7425 17.864 13.2626 17.864C12.7826 17.864 12.3936 17.4749 12.3936 16.995C12.3936 16.515 12.7826 16.126 13.2626 16.126C13.7425 16.126 14.1316 16.515 14.1316 16.995Z" fill="#003550"/>
<path d="M7.24484 16.995C7.24484 17.4749 6.85577 17.864 6.37584 17.864C5.8959 17.864 5.50684 17.4749 5.50684 16.995C5.50684 16.515 5.8959 16.126 6.37584 16.126C6.85577 16.126 7.24484 16.515 7.24484 16.995Z" fill="#003550"/>
<path fill-rule="evenodd" clip-rule="evenodd" d="M11.6006 8.4923H8.30063C8.20342 8.4923 8.12462 8.5711 8.12462 8.6683V9.1083H11.7766V8.6683C11.7766 8.5711 11.6978 8.4923 11.6006 8.4923ZM8.30063 8.0083C7.93612 8.0083 7.64062 8.30379 7.64062 8.6683V9.5923H12.2606V8.6683C12.2606 8.30379 11.9651 8.0083 11.6006 8.0083H8.30063Z" fill="#58ACDB"/>
<path fill-rule="evenodd" clip-rule="evenodd" d="M11.601 8.27209H8.03695C7.93975 8.27209 7.86095 8.35088 7.86095 8.44809V9.10809H11.777V8.44809C11.777 8.35088 11.6982 8.27209 11.601 8.27209ZM8.03695 7.78809C7.67245 7.78809 7.37695 8.08358 7.37695 8.44809V9.59209H12.261V8.44809C12.261 8.08358 11.9655 7.78809 11.601 7.78809H8.03695Z" fill="#003550"/>
<path d="M3.87891 10.7799C3.87891 9.85649 4.62749 9.10791 5.55091 9.10791H14.0429C14.9663 9.10791 15.7149 9.85649 15.7149 10.7799V15.4659C15.7149 16.3893 14.9663 17.1379 14.0429 17.1379H5.55091C4.62749 17.1379 3.87891 16.3893 3.87891 15.4659V10.7799Z" fill="white"/>
<path fill-rule="evenodd" clip-rule="evenodd" d="M14.0429 9.59191H5.55091C4.89479 9.59191 4.36291 10.1238 4.36291 10.7799V15.4659C4.36291 16.122 4.89479 16.6539 5.55091 16.6539H14.0429C14.699 16.6539 15.2309 16.122 15.2309 15.4659V10.7799C15.2309 10.1238 14.699 9.59191 14.0429 9.59191ZM5.55091 9.10791C4.62749 9.10791 3.87891 9.85649 3.87891 10.7799V15.4659C3.87891 16.3893 4.62749 17.1379 5.55091 17.1379H14.0429C14.9663 17.1379 15.7149 16.3893 15.7149 15.4659V10.7799C15.7149 9.85649 14.9663 9.10791 14.0429 9.10791H5.55091Z" fill="#58ACDB"/>
<path fill-rule="evenodd" clip-rule="evenodd" d="M14.3069 9.59191H5.55091C4.89479 9.59191 4.36291 10.1238 4.36291 10.7799V15.7519C4.36291 16.408 4.89479 16.9399 5.55091 16.9399H14.3069C14.963 16.9399 15.4949 16.408 15.4949 15.7519V10.7799C15.4949 10.1238 14.963 9.59191 14.3069 9.59191ZM5.55091 9.10791C4.62749 9.10791 3.87891 9.85649 3.87891 10.7799V15.7519C3.87891 16.6753 4.62749 17.4239 5.55091 17.4239H14.3069C15.2303 17.4239 15.9789 16.6753 15.9789 15.7519V10.7799C15.9789 9.85649 15.2303 9.10791 14.3069 9.10791H5.55091Z" fill="#003550"/>
<path fill-rule="evenodd" clip-rule="evenodd" d="M12.2396 9.59191H7.37755V16.9399H12.2396V9.59191ZM6.89355 9.10791V17.4239H12.7236V9.10791H6.89355Z" fill="#003550"/>
</svg>
