<svg width="22" height="22" viewBox="0 0 22 22" fill="none" xmlns="http://www.w3.org/2000/svg">
<circle cx="11" cy="11" r="11" fill="#D6EAE9"/>
<path d="M14.3223 16.2029C14.3223 16.4155 12.83 16.5879 10.9893 16.5879C9.14848 16.5879 7.65625 16.4155 7.65625 16.2029C7.65625 15.9902 9.14848 15.8179 10.9893 15.8179C12.83 15.8179 14.3223 15.9902 14.3223 16.2029Z" fill="#66AAA6"/>
<path d="M7.89844 15.4659C7.89844 14.992 8.28258 14.6079 8.75644 14.6079H13.2444C13.7183 14.6079 14.1024 14.992 14.1024 15.4659C14.1024 15.9398 13.7183 16.3239 13.2444 16.3239H8.75644C8.28258 16.3239 7.89844 15.9398 7.89844 15.4659Z" fill="white"/>
<path fill-rule="evenodd" clip-rule="evenodd" d="M13.2444 15.0919H8.75644C8.54988 15.0919 8.38244 15.2594 8.38244 15.4659C8.38244 15.6725 8.54988 15.8399 8.75644 15.8399H13.2444C13.451 15.8399 13.6184 15.6725 13.6184 15.4659C13.6184 15.2594 13.451 15.0919 13.2444 15.0919ZM8.75644 14.6079C8.28258 14.6079 7.89844 14.992 7.89844 15.4659C7.89844 15.9398 8.28258 16.3239 8.75644 16.3239H13.2444C13.7183 16.3239 14.1024 15.9398 14.1024 15.4659C14.1024 14.992 13.7183 14.6079 13.2444 14.6079H8.75644Z" fill="#003550"/>
<path d="M3.67383 7.28186C3.67383 6.79584 4.06782 6.40186 4.55383 6.40186H17.1818C17.6678 6.40186 18.0618 6.79584 18.0618 7.28186V14.4979C18.0618 14.9839 17.6678 15.3779 17.1818 15.3779H4.55383C4.06782 15.3779 3.67383 14.9839 3.67383 14.4979V7.28186Z" fill="white"/>
<path fill-rule="evenodd" clip-rule="evenodd" d="M17.1818 6.88586H4.55383C4.33512 6.88586 4.15783 7.06315 4.15783 7.28186V14.4979C4.15783 14.7166 4.33512 14.8939 4.55383 14.8939H17.1818C17.4005 14.8939 17.5778 14.7166 17.5778 14.4979V7.28186C17.5778 7.06315 17.4005 6.88586 17.1818 6.88586ZM4.55383 6.40186C4.06782 6.40186 3.67383 6.79584 3.67383 7.28186V14.4979C3.67383 14.9839 4.06782 15.3779 4.55383 15.3779H17.1818C17.6678 15.3779 18.0618 14.9839 18.0618 14.4979V7.28186C18.0618 6.79584 17.6678 6.40186 17.1818 6.40186H4.55383Z" fill="#66AAA6"/>
<path fill-rule="evenodd" clip-rule="evenodd" d="M17.4458 6.88586H4.55383C4.33512 6.88586 4.15783 7.06315 4.15783 7.28186V14.7179C4.15783 14.9366 4.33512 15.1139 4.55383 15.1139H17.4458C17.6645 15.1139 17.8418 14.9366 17.8418 14.7179V7.28186C17.8418 7.06315 17.6645 6.88586 17.4458 6.88586ZM4.55383 6.40186C4.06782 6.40186 3.67383 6.79584 3.67383 7.28186V14.7179C3.67383 15.2039 4.06782 15.5979 4.55383 15.5979H17.4458C17.9318 15.5979 18.3258 15.2039 18.3258 14.7179V7.28186C18.3258 6.79584 17.9318 6.40186 17.4458 6.40186H4.55383Z" fill="#003550"/>
<path d="M13.7944 11.0002C13.7944 12.6162 12.4844 13.9262 10.8684 13.9262C9.2524 13.9262 7.94238 12.6162 7.94238 11.0002C7.94238 9.38423 9.2524 8.07422 10.8684 8.07422C12.4844 8.07422 13.7944 9.38423 13.7944 11.0002Z" fill="#66AAA6"/>
<path d="M12.3371 10.7519C12.5283 10.8619 12.5283 11.1378 12.3371 11.2478L10.2963 12.4216C10.1057 12.5313 9.86772 12.3937 9.86772 12.1737L9.86772 9.82598C9.86772 9.60602 10.1057 9.46839 10.2963 9.57806L12.3371 10.7519Z" fill="white"/>
</svg>
