<svg width="22" height="22" viewBox="0 0 22 22" fill="none" xmlns="http://www.w3.org/2000/svg">
<path d="M22 11C22 17.0751 17.0751 22 11 22C4.92487 22 0 17.0751 0 11C0 4.92487 4.92487 0 11 0C17.0751 0 22 4.92487 22 11Z" fill="#F8DDF4"/>
<path d="M8.75401 6.06627C8.32125 5.97953 7.9864 6.06617 7.74947 6.3262C7.61241 6.47677 7.53581 6.63795 7.51967 6.80974C7.50258 6.99298 7.5574 7.17669 7.68413 7.36087C7.61579 7.33365 7.56426 7.30633 7.52952 7.27892C7.38684 7.16702 7.27147 7.06386 7.18341 6.96942C6.99266 6.7644 6.91559 6.5224 6.9522 6.2434C7.01782 5.74297 7.41744 5.3656 7.93787 5.45374C8.04902 5.47252 8.14956 5.5096 8.23949 5.56498C8.29825 5.60122 8.37748 5.67115 8.47717 5.77479C8.56466 5.86566 8.65694 5.96282 8.75401 6.06627Z" fill="#D9DEE6"/>
<path d="M14.2798 7.42135C14.2965 7.38831 14.3151 7.35696 14.3355 7.32729C14.3577 7.29556 14.3758 7.26393 14.3899 7.23239C14.4952 6.99639 14.5183 6.72406 14.3919 6.49708C14.2271 6.20081 13.8689 6.02114 13.5366 6.0355C13.4829 6.03776 13.4174 6.05024 13.34 6.07296C13.3329 6.07502 13.3211 6.0769 13.3045 6.07859C13.2755 6.08169 13.2471 6.09549 13.2313 6.12027C13.212 6.1505 13.1878 6.178 13.1589 6.20279C13.1334 6.22494 13.1081 6.25038 13.0829 6.2791C12.9445 6.43737 12.7925 6.57959 12.627 6.70576C12.7783 6.54261 12.9319 6.38387 13.088 6.22954C13.1625 6.15575 13.2343 6.08206 13.3034 6.00847C13.4467 5.85527 13.5884 5.69784 13.7639 5.57759C14.1485 5.31371 14.6555 5.46044 14.9092 5.82992C15.1348 6.15801 15.1066 6.63873 14.8616 6.93978C14.8085 7.00512 14.7506 7.06398 14.6878 7.11636C14.5927 7.19578 14.498 7.28449 14.3933 7.35123C14.3563 7.37489 14.3185 7.39826 14.2798 7.42135Z" fill="#D9DEE6"/>
<path d="M8.75398 6.06624L10.2663 7.60219C10.2723 7.60839 10.271 7.61148 10.2623 7.61148L8.02206 7.60979C8.00237 7.6098 7.98328 7.60303 7.96798 7.59064L7.68411 7.36084C7.55738 7.17666 7.50256 6.99295 7.51965 6.80971C7.53579 6.63792 7.61239 6.47674 7.74945 6.32617C7.98638 6.06614 8.32123 5.9795 8.75398 6.06624Z" fill="#FFFEF6"/>
<path d="M14.2799 7.42132C14.1999 7.47164 14.1242 7.52965 14.0526 7.59536C14.0389 7.60794 14.0115 7.61414 13.9704 7.61395C13.2269 7.60813 12.4839 7.60634 11.7414 7.6086C11.7398 7.60858 11.7383 7.60811 11.737 7.60725C11.7356 7.60638 11.7346 7.60515 11.734 7.60373C11.7334 7.6023 11.7332 7.60074 11.7336 7.59925C11.7339 7.59776 11.7346 7.5964 11.7357 7.59536L12.6271 6.70572C12.7927 6.57956 12.9446 6.43734 13.083 6.27907C13.1082 6.25034 13.1335 6.22491 13.1591 6.20275C13.188 6.17797 13.2121 6.15046 13.2314 6.12024C13.2472 6.09545 13.2756 6.08165 13.3047 6.07856C13.3212 6.07687 13.333 6.07499 13.3401 6.07292C13.4175 6.05021 13.483 6.03772 13.5367 6.03547C13.869 6.02111 14.2272 6.20078 14.392 6.49704C14.5184 6.72403 14.4953 6.99636 14.39 7.23235C14.3759 7.26389 14.3578 7.29553 14.3357 7.32726C14.3152 7.35692 14.2966 7.38828 14.2799 7.42132Z" fill="#FFFEF6"/>
<path d="M5.76555 8.35973C7.03152 8.35523 8.30435 8.3525 9.58403 8.35156C9.58686 8.35153 9.58968 8.35205 9.59231 8.35311C9.59493 8.35417 9.59733 8.35574 9.59935 8.35773C9.60136 8.35972 9.60296 8.3621 9.60406 8.36471C9.60515 8.36733 9.60571 8.37013 9.60571 8.37297L9.60233 9.30288C9.60233 9.30982 9.59957 9.31648 9.59466 9.3214C9.58975 9.32631 9.58309 9.32907 9.57614 9.32907C8.28295 9.32832 6.95717 9.32606 5.59883 9.32231C5.21949 9.32118 5.05136 8.9379 5.23441 8.62952C5.34086 8.4506 5.51791 8.36067 5.76555 8.35973Z" fill="#FFFEF6"/>
<path d="M11.6157 8.35059H10.3777C10.3676 8.35059 10.3594 8.35878 10.3594 8.36889V9.30837C10.3594 9.31848 10.3676 9.32668 10.3777 9.32668H11.6157C11.6258 9.32668 11.634 9.31848 11.634 9.30837V8.36889C11.634 8.35878 11.6258 8.35059 11.6157 8.35059Z" fill="#FFFEF6"/>
<path d="M12.3838 8.37122C12.3838 8.35714 12.3908 8.3501 12.4049 8.3501C13.752 8.35047 15.0467 8.35113 16.289 8.35207C16.4197 8.35226 16.5412 8.39206 16.6537 8.47148C17.0153 8.72719 16.9086 9.32704 16.4281 9.3276C15.0827 9.32873 13.74 9.32704 12.3998 9.32253C12.3956 9.32246 12.3915 9.32073 12.3885 9.31773C12.3855 9.31473 12.3838 9.31069 12.3838 9.30648V8.37122Z" fill="#FFFEF6"/>
<path d="M9.22358 10.6333C9.22527 10.6222 9.22517 10.6153 9.22329 10.6125C9.22164 10.6099 9.21948 10.6076 9.21694 10.6059C9.21439 10.6041 9.21152 10.6029 9.20849 10.6023C9.20546 10.6017 9.20234 10.6017 9.19932 10.6023C9.1963 10.603 9.19344 10.6042 9.19091 10.606C9.10041 10.6696 9.01546 10.7377 8.93604 10.8102C8.92816 10.8171 8.91905 10.8206 8.90873 10.8206L6.08887 10.8282L6.09394 10.0729C6.09394 10.0692 6.09539 10.0657 6.09798 10.0631C6.10057 10.0605 6.10408 10.0591 6.10774 10.0591L9.59025 10.0627C9.59331 10.0627 9.59624 10.0639 9.59841 10.066C9.60057 10.0682 9.60179 10.071 9.60179 10.074L9.59785 10.4584C9.59787 10.4639 9.59609 10.4692 9.59279 10.4735C9.58948 10.4779 9.58483 10.4811 9.57954 10.4826C9.45864 10.5191 9.33998 10.5693 9.22358 10.6333Z" fill="#D9DEE6"/>
<path d="M10.9744 10.7726C10.8212 10.5996 10.6027 10.505 10.3839 10.4546C10.3698 10.4514 10.3627 10.4426 10.3625 10.4281L10.3594 10.0908C10.3593 10.0857 10.3603 10.0807 10.3622 10.076C10.3641 10.0714 10.367 10.0671 10.3705 10.0636C10.3741 10.06 10.3784 10.0573 10.383 10.0554C10.3877 10.0535 10.3927 10.0526 10.3977 10.0527C10.8073 10.0629 11.2123 10.0637 11.6126 10.0553C11.6153 10.0552 11.618 10.0557 11.6205 10.0567C11.623 10.0578 11.6253 10.0592 11.6272 10.0611C11.6291 10.063 11.6306 10.0653 11.6317 10.0678C11.6327 10.0702 11.6332 10.0729 11.6331 10.0756L11.6312 10.4355C11.6311 10.4435 11.6281 10.4513 11.6229 10.4574C11.6176 10.4635 11.6104 10.4675 11.6024 10.4687C11.3653 10.5028 11.1778 10.6191 11.0009 10.7743C10.9972 10.7775 10.9923 10.7792 10.9873 10.7788C10.9824 10.7785 10.9777 10.7763 10.9744 10.7726Z" fill="#D9DEE6"/>
<path d="M15.9255 10.8062C15.9103 10.8094 15.8963 10.8135 15.8836 10.8186C15.8684 10.8248 15.8547 10.8278 15.8425 10.8278C14.9086 10.8309 13.9706 10.8292 13.0285 10.8228C12.9007 10.7068 12.7889 10.6275 12.6934 10.5851C12.5984 10.5429 12.5028 10.5041 12.4067 10.4688C12.4013 10.4668 12.3967 10.4633 12.3935 10.4586C12.3903 10.454 12.3886 10.4485 12.3887 10.4429L12.3935 10.0734C12.3935 10.0713 12.3939 10.0692 12.3947 10.0673C12.3955 10.0654 12.3967 10.0636 12.3982 10.0621C12.3997 10.0607 12.4014 10.0595 12.4034 10.0587C12.4053 10.058 12.4074 10.0576 12.4095 10.0576L15.9055 10.0664C15.9146 10.0665 15.9192 10.0711 15.9193 10.0801L15.9255 10.8062Z" fill="#D9DEE6"/>
<path d="M9.22334 10.6335C8.90089 10.8529 8.63532 11.1683 8.5407 11.5553C8.45415 11.9099 8.46945 12.248 8.5866 12.5696C8.45931 13.0371 8.51873 13.4667 8.76487 13.8583C8.96125 14.1706 9.24099 14.4312 9.60409 14.6404L9.60437 17.088C9.60437 17.0929 9.60242 17.0976 9.59893 17.1011C9.59545 17.1046 9.59072 17.1065 9.58579 17.1065C8.77228 17.1086 7.94066 17.1081 7.09092 17.1051C6.88177 17.1044 6.73411 17.0895 6.64793 17.0606C6.38377 16.9716 6.17875 16.7452 6.10947 16.4723C6.09276 16.4068 6.0846 16.3001 6.08497 16.1521C6.08948 14.3715 6.0907 12.597 6.08863 10.8284L8.90849 10.8208C8.91882 10.8208 8.92792 10.8173 8.93581 10.8104C9.01523 10.7379 9.10018 10.6698 9.19068 10.6062C9.1932 10.6044 9.19606 10.6032 9.19909 10.6025C9.20211 10.6019 9.20523 10.6019 9.20826 10.6025C9.21128 10.6031 9.21416 10.6043 9.2167 10.6061C9.21925 10.6078 9.22141 10.6101 9.22306 10.6127C9.22494 10.6155 9.22503 10.6224 9.22334 10.6335Z" fill="#FDF7F1"/>
<path d="M15.9262 10.8062C15.93 12.5599 15.9298 14.3133 15.9257 16.0662C15.9251 16.2865 15.9116 16.4353 15.8851 16.5126C15.7939 16.7782 15.5737 17.0145 15.292 17.0815C15.226 17.0973 15.1313 17.105 15.0082 17.1046C14.1398 17.1023 13.2709 17.1027 12.4015 17.1057C12.3979 17.1057 12.3945 17.1043 12.3919 17.1018C12.3894 17.0993 12.388 17.096 12.388 17.0925L12.3877 14.6379C12.7039 14.4604 12.9554 14.2427 13.1424 13.9845C13.2755 13.8009 13.3733 13.5773 13.4356 13.3137C13.4849 13.1059 13.4638 12.8493 13.4519 12.6344C13.4516 12.6279 13.4486 12.6218 13.4438 12.6174C13.4389 12.613 13.4326 12.6107 13.426 12.6111C13.4166 12.6116 13.4103 12.5991 13.4069 12.5736C13.4459 12.4733 13.4717 12.387 13.4843 12.3145C13.5848 11.737 13.4331 11.2398 13.0292 10.8228C13.9713 10.8292 14.9093 10.8308 15.8432 10.8278C15.8554 10.8278 15.8691 10.8247 15.8843 10.8185C15.8971 10.8135 15.911 10.8093 15.9262 10.8062Z" fill="#FDF7F1"/>
<path d="M12.7536 12.0683L12.6311 12.1108C12.6132 12.1169 12.5964 12.1143 12.5806 12.1032C12.5701 12.0959 12.5634 12.0862 12.5604 12.074C12.5149 11.8933 12.4074 11.7888 12.2376 11.7602C12.0473 11.7281 11.8997 11.8892 11.7654 12.0171C11.6416 12.1348 11.4284 12.3559 11.1255 12.6803C11.0678 12.7422 10.9881 12.8014 10.9135 12.7256C10.5898 12.3963 10.2944 12.102 10.0272 11.8427C9.9016 11.7205 9.67912 11.7591 9.56675 11.874C9.52207 11.9198 9.4589 12.0128 9.37723 12.1531L9.2274 12.0571C9.20882 11.8374 9.25894 11.6453 9.37779 11.4809C9.60308 11.1685 10.0449 11.0413 10.3787 11.2249C10.4455 11.2617 10.5395 11.3413 10.6606 11.4637C10.7497 11.554 10.8374 11.6418 10.9236 11.727C10.9762 11.779 11.0281 11.7784 11.0793 11.725C11.1567 11.6447 11.2375 11.5613 11.3218 11.475C11.4363 11.3576 11.5232 11.2813 11.5823 11.246C11.9676 11.0148 12.4229 11.1559 12.6547 11.5318C12.754 11.6929 12.787 11.8718 12.7536 12.0683Z" fill="#FDC7BA"/>
<path d="M12.6308 12.1111C12.6244 12.1539 12.6152 12.1817 12.6032 12.1945C12.4241 12.3869 12.2419 12.5685 12.0566 12.7394C11.9092 12.8751 11.7918 12.9873 11.7045 13.0759C11.4964 13.2874 11.2717 13.5006 11.0686 13.7287C11.0615 13.7368 11.0528 13.7432 11.043 13.7478C11.0333 13.7523 11.0227 13.7548 11.012 13.755C11.0013 13.7553 10.9906 13.7533 10.9807 13.7493C10.9708 13.7453 10.9618 13.7392 10.9543 13.7315C10.8729 13.6487 10.8003 13.5592 10.7177 13.482C10.3858 13.1711 10.0618 12.8515 9.74559 12.5231C9.68833 12.4636 9.62666 12.4015 9.56057 12.3367C9.49636 12.274 9.43515 12.2129 9.37695 12.1533C9.45862 12.0131 9.5218 11.9201 9.56648 11.8743C9.67885 11.7594 9.90133 11.7208 10.0269 11.843C10.2941 12.1023 10.5895 12.3966 10.9132 12.7259C10.9878 12.8016 11.0675 12.7425 11.1252 12.6805C11.4281 12.3561 11.6414 12.135 11.7651 12.0173C11.8994 11.8895 12.047 11.7284 12.2374 11.7605C12.4071 11.789 12.5147 11.8936 12.5601 12.0742C12.5631 12.0864 12.5699 12.0962 12.5804 12.1035C12.5961 12.1146 12.613 12.1171 12.6308 12.1111Z" fill="#FAA09D"/>
<path d="M9.22754 12.0571L9.37736 12.1532C9.43556 12.2127 9.49677 12.2738 9.56098 12.3365C9.62706 12.4013 9.68874 12.4634 9.746 12.5229C10.0622 12.8513 10.3862 13.1709 10.7182 13.4818C10.8007 13.559 10.8733 13.6486 10.9547 13.7314C10.9622 13.739 10.9712 13.7451 10.9811 13.7491C10.991 13.7531 11.0017 13.7551 11.0124 13.7548C11.0231 13.7546 11.0337 13.7521 11.0434 13.7476C11.0532 13.743 11.0619 13.7366 11.0691 13.7285C11.2721 13.5004 11.4968 13.2872 11.7049 13.0757C11.7922 12.9871 11.9096 12.875 12.057 12.7392C12.2423 12.5684 12.4245 12.3867 12.6036 12.1943C12.6156 12.1815 12.6248 12.1537 12.6312 12.1109L12.7537 12.0684C12.7533 12.2214 12.7002 12.3515 12.5943 12.4587C12.0095 13.0505 11.5145 13.5411 11.1093 13.9305C11.077 13.9614 11.0465 13.9878 11.0178 14.0096C11.0015 14.0222 10.9858 14.0213 10.9708 14.0071C10.6632 13.7131 10.3704 13.4162 10.0645 13.1259C9.75905 12.8362 9.52859 12.6082 9.37314 12.4418C9.2802 12.3425 9.23167 12.2143 9.22754 12.0571Z" fill="#F28388"/>
<path d="M13.4069 12.5737C13.4103 12.5993 13.4166 12.6117 13.426 12.6112C13.4326 12.6109 13.4389 12.6132 13.4438 12.6175C13.4486 12.6219 13.4516 12.628 13.4519 12.6346C13.4638 12.8494 13.4849 13.106 13.4356 13.3138C13.3733 13.5774 13.2755 13.801 13.1424 13.9846C12.9554 14.2428 12.7039 14.4606 12.3877 14.638L12.3942 13.7377C12.3943 13.7288 12.3962 13.72 12.3998 13.7118C12.4035 13.7037 12.4087 13.6964 12.4153 13.6904C12.638 13.487 12.8603 13.2789 13.0822 13.066C13.2556 12.8996 13.3139 12.763 13.4069 12.5737Z" fill="#D9DEE6"/>
<path d="M8.58657 12.5698C8.69096 12.7745 8.83055 12.9647 9.00534 13.1404C9.19834 13.3345 9.39088 13.5245 9.58294 13.7104C9.58874 13.716 9.59336 13.7227 9.59655 13.7302C9.59974 13.7376 9.60143 13.7456 9.60153 13.7538L9.60406 14.6406C9.24096 14.4314 8.96122 14.1707 8.76484 13.8585C8.5187 13.4669 8.45928 13.0373 8.58657 12.5698Z" fill="#D9DEE6"/>
<path d="M11.6362 15.3021C11.4427 15.4675 11.2613 15.6365 11.0921 15.809C11.0679 15.8336 11.043 15.8513 11.0172 15.8622C11.0063 15.8669 10.9941 15.8681 10.9824 15.8659C10.9708 15.8636 10.96 15.8579 10.9516 15.8495L10.3605 15.2618L10.3594 14.42C10.3594 14.4177 10.36 14.4154 10.3613 14.4134C10.3626 14.4114 10.3644 14.4099 10.3666 14.4089C10.3687 14.408 10.3711 14.4076 10.3734 14.408C10.3758 14.4084 10.3779 14.4094 10.3797 14.411C10.4833 14.5064 10.5908 14.6085 10.7021 14.7172C10.7641 14.7774 10.8319 14.8715 10.9023 14.9056C11.0282 14.9661 11.164 14.8461 11.2451 14.7639C11.3639 14.6436 11.4844 14.5231 11.6064 14.4026C11.6084 14.4006 11.6108 14.3992 11.6135 14.3985C11.6162 14.3978 11.6191 14.3978 11.6218 14.3985C11.6245 14.3993 11.6269 14.4007 11.6289 14.4027C11.6308 14.4047 11.6322 14.4072 11.6329 14.4099C11.6415 14.443 11.6455 14.4791 11.645 14.5183C11.6407 14.7846 11.6377 15.0458 11.6362 15.3021Z" fill="#D9DEE6"/>
<path d="M10.3604 15.2617L10.9515 15.8495C10.9599 15.8579 10.9706 15.8635 10.9823 15.8658C10.994 15.8681 11.0061 15.8668 11.0171 15.8621C11.0428 15.8512 11.0678 15.8335 11.092 15.8089C11.2612 15.6364 11.4425 15.4674 11.6361 15.302L11.6378 17.0852C11.6378 17.091 11.6355 17.0965 11.6314 17.1005C11.6274 17.1046 11.6218 17.1069 11.6161 17.1069L10.3832 17.1046C10.3693 17.1046 10.3623 17.0977 10.3623 17.0838L10.3604 15.2617Z" fill="#FDF7F1"/>
<path d="M17.555 9.26333C17.4356 9.66238 17.1044 10.004 16.6854 10.0699C16.6656 10.0729 16.6558 10.0844 16.6558 10.1045C16.6492 12.0886 16.6501 14.105 16.6583 16.1537C16.6591 16.3407 16.6507 16.4819 16.6333 16.5773C16.5598 16.9766 16.3114 17.3193 15.983 17.5627C15.8035 17.6907 15.6023 17.7748 15.3795 17.815C15.2212 17.8437 15.037 17.8372 14.8641 17.8375C12.6322 17.8417 10.4004 17.8426 8.16861 17.8403C7.71014 17.84 7.2924 17.8402 6.91541 17.8412C6.62722 17.8417 6.35113 17.7637 6.08716 17.6072C5.96644 17.5246 5.85614 17.4305 5.75626 17.325C5.51444 17.0698 5.38621 16.7654 5.37157 16.4117C5.36537 16.2636 5.36237 16.1241 5.36255 15.9935C5.36293 14.0178 5.36312 12.1072 5.36312 10.2617C5.36312 10.2059 5.36171 10.1511 5.35889 10.0972C5.35852 10.088 5.35382 10.0822 5.34481 10.0797C4.94735 9.9793 4.66132 9.74537 4.48672 9.37795C4.37745 9.08244 4.37191 8.78204 4.4701 8.47677C4.60359 8.0611 4.95956 7.77103 5.37973 7.65556C5.48562 7.62665 5.67159 7.61135 5.93762 7.60966C6.19878 7.60797 6.47336 7.60844 6.76136 7.61107C6.77638 7.61107 6.77844 7.6059 6.76756 7.59558C6.27453 7.12659 6.10321 6.5718 6.2536 5.93121C6.40004 5.30629 6.9354 4.80698 7.57693 4.71545C8.01936 4.65265 8.49219 4.76502 8.82451 5.061C8.97517 5.19505 9.14217 5.38599 9.25707 5.5023C9.84679 6.09971 10.3514 6.61554 10.7708 7.0498C10.8506 7.1326 10.9245 7.21351 10.9927 7.29255C10.9948 7.29499 10.9974 7.29695 11.0003 7.2983C11.0033 7.29966 11.0064 7.30037 11.0096 7.3004C11.0128 7.30042 11.016 7.29976 11.0189 7.29846C11.0218 7.29715 11.0244 7.29524 11.0265 7.29284C11.1784 7.12011 11.33 6.95715 11.4813 6.80394C12.0399 6.23808 12.5881 5.6785 13.126 5.12521C13.3173 4.92845 13.5462 4.80031 13.8128 4.7408C14.2591 4.64129 14.6705 4.71048 15.0469 4.94835C15.3815 5.15929 15.6974 5.56876 15.7608 5.96894C15.7745 6.05474 15.785 6.14768 15.7923 6.24775C15.8304 6.76367 15.6282 7.23426 15.2471 7.58797C15.2299 7.60393 15.233 7.61172 15.2567 7.61135C15.5286 7.60572 15.8119 7.60356 16.1066 7.60487C16.352 7.60581 16.5365 7.62383 16.66 7.65894C16.9542 7.74211 17.198 7.92019 17.3914 8.19318C17.6051 8.49507 17.6457 8.90736 17.555 9.26333ZM7.68395 7.36071L7.96782 7.59051C7.98312 7.6029 8.0022 7.60966 8.02189 7.60966L10.2622 7.61135C10.2708 7.61135 10.2721 7.60825 10.2661 7.60206L8.75382 6.0661C8.65675 5.96265 8.56448 5.86549 8.47699 5.77462C8.37729 5.67099 8.29806 5.60105 8.2393 5.56482C8.14937 5.50943 8.04883 5.47235 7.93769 5.45358C7.41725 5.36543 7.01763 5.7428 6.95202 6.24324C6.91541 6.52223 6.99248 6.76424 7.18323 6.96926C7.27128 7.06369 7.38665 7.16686 7.52934 7.27876C7.56407 7.30617 7.61561 7.33348 7.68395 7.36071ZM12.6267 6.70566L11.7353 7.5953C11.7342 7.59634 11.7334 7.59769 11.7331 7.59918C11.7328 7.60068 11.733 7.60224 11.7336 7.60366C11.7342 7.60509 11.7352 7.60631 11.7365 7.60718C11.7378 7.60805 11.7394 7.60852 11.741 7.60853C12.4835 7.60628 13.2265 7.60806 13.97 7.61388C14.0111 7.61407 14.0385 7.60788 14.0522 7.5953C14.1237 7.52958 14.1995 7.47157 14.2795 7.42126C14.3182 7.39816 14.356 7.37479 14.393 7.35113C14.4977 7.28439 14.5924 7.19568 14.6875 7.11626C14.7503 7.06388 14.8082 7.00502 14.8613 6.93969C15.1063 6.63863 15.1345 6.15791 14.9089 5.82982C14.6552 5.46034 14.1482 5.31361 13.7636 5.57749C13.5881 5.69774 13.4464 5.85517 13.3031 6.00837C13.234 6.08197 13.1622 6.15566 13.0877 6.22944C12.9316 6.38377 12.778 6.54251 12.6267 6.70566ZM5.76499 8.35933C5.51735 8.36027 5.34031 8.4502 5.23385 8.62912C5.0508 8.9375 5.21893 9.32078 5.59827 9.32191C6.95662 9.32566 8.28239 9.32791 9.57559 9.32867C9.58253 9.32867 9.58919 9.32591 9.59411 9.32099C9.59902 9.31608 9.60178 9.30942 9.60178 9.30247L9.60516 8.37257C9.60516 8.36973 9.60459 8.36693 9.6035 8.36431C9.60241 8.3617 9.6008 8.35932 9.59879 8.35733C9.59677 8.35534 9.59438 8.35377 9.59175 8.35271C9.58912 8.35165 9.58631 8.35113 9.58347 8.35116C8.30379 8.3521 7.03096 8.35482 5.76499 8.35933ZM11.6334 8.36891C11.6334 8.36405 11.6315 8.35939 11.628 8.35596C11.6246 8.35253 11.6199 8.3506 11.6151 8.3506H10.3771C10.3722 8.3506 10.3676 8.35253 10.3641 8.35596C10.3607 8.35939 10.3588 8.36405 10.3588 8.36891V9.30839C10.3588 9.31324 10.3607 9.3179 10.3641 9.32133C10.3676 9.32477 10.3722 9.32669 10.3771 9.32669H11.6151C11.6199 9.32669 11.6246 9.32477 11.628 9.32133C11.6315 9.3179 11.6334 9.31324 11.6334 9.30839V8.36891ZM12.3828 8.37116V9.30642C12.3828 9.31063 12.3845 9.31467 12.3875 9.31767C12.3905 9.32067 12.3945 9.3224 12.3988 9.32247C13.739 9.32698 15.0817 9.32867 16.4271 9.32754C16.9076 9.32698 17.0143 8.72713 16.6527 8.47142C16.5402 8.392 16.4187 8.3522 16.288 8.35201C15.0457 8.35107 13.751 8.35041 12.4039 8.35004C12.3898 8.35004 12.3828 8.35708 12.3828 8.37116ZM6.08801 10.8283C6.09007 12.5969 6.08885 14.3714 6.08435 16.152C6.08397 16.3 6.09214 16.4067 6.10885 16.4722C6.17812 16.7451 6.38314 16.9715 6.6473 17.0605C6.73348 17.0894 6.88114 17.1043 7.09029 17.105C7.94003 17.108 8.77166 17.1085 9.58516 17.1064C9.59009 17.1064 9.59482 17.1045 9.5983 17.101C9.60179 17.0975 9.60375 17.0928 9.60375 17.0879L9.60347 14.6403L9.60093 13.7535C9.60083 13.7453 9.59914 13.7373 9.59595 13.7299C9.59276 13.7224 9.58814 13.7157 9.58235 13.7101C9.39028 13.5242 9.19775 13.3342 9.00474 13.1401C8.82995 12.9644 8.69036 12.7742 8.58597 12.5695C8.46882 12.2479 8.45352 11.9098 8.54007 11.5552C8.63469 11.1682 8.90026 10.8528 9.22272 10.6334C9.33912 10.5694 9.45778 10.5192 9.57868 10.4827C9.58397 10.4812 9.58862 10.478 9.59193 10.4737C9.59523 10.4693 9.59701 10.464 9.59699 10.4585L9.60093 10.0741C9.60093 10.0711 9.59971 10.0683 9.59755 10.0661C9.59538 10.064 9.59245 10.0628 9.58939 10.0628L6.10688 10.0592C6.10322 10.0592 6.09971 10.0606 6.09712 10.0632C6.09453 10.0658 6.09308 10.0693 6.09308 10.073L6.08801 10.8283ZM10.3836 10.4546C10.6024 10.505 10.8209 10.5996 10.9741 10.7725C10.9774 10.7762 10.982 10.7785 10.987 10.7788C10.992 10.7791 10.9968 10.7775 11.0006 10.7742C11.1774 10.619 11.365 10.5027 11.6021 10.4687C11.61 10.4675 11.6173 10.4635 11.6225 10.4574C11.6278 10.4513 11.6307 10.4435 11.6308 10.4354L11.6328 10.0755C11.6329 10.0728 11.6324 10.0702 11.6313 10.0677C11.6303 10.0652 11.6288 10.063 11.6269 10.0611C11.625 10.0592 11.6227 10.0577 11.6202 10.0567C11.6177 10.0557 11.615 10.0552 11.6123 10.0552C11.212 10.0637 10.807 10.0628 10.3974 10.0527C10.3923 10.0526 10.3874 10.0535 10.3827 10.0554C10.378 10.0572 10.3738 10.06 10.3702 10.0636C10.3666 10.0671 10.3638 10.0713 10.3619 10.076C10.36 10.0807 10.359 10.0857 10.3591 10.0907L10.3622 10.4281C10.3623 10.4426 10.3695 10.4514 10.3836 10.4546ZM13.0282 10.8227C13.4321 11.2396 13.5838 11.7369 13.4833 12.3144C13.4708 12.3869 13.4449 12.4732 13.4059 12.5735C13.313 12.7627 13.2547 12.8993 13.0812 13.0658C12.8593 13.2787 12.637 13.4868 12.4143 13.6901C12.4077 13.6961 12.4025 13.7035 12.3988 13.7116C12.3952 13.7197 12.3933 13.7285 12.3932 13.7374L12.3867 14.6378L12.387 17.0924C12.387 17.0959 12.3884 17.0992 12.391 17.1017C12.3935 17.1042 12.3969 17.1056 12.4005 17.1056C13.27 17.1026 14.1389 17.1022 15.0072 17.1045C15.1303 17.1048 15.225 17.0971 15.2911 17.0814C15.5727 17.0143 15.7929 16.7781 15.8841 16.5125C15.9106 16.4352 15.9241 16.2864 15.9247 16.0661C15.9288 14.3131 15.929 12.5598 15.9253 10.806L15.9191 10.08C15.9189 10.071 15.9143 10.0664 15.9053 10.0662L12.4092 10.0575C12.4071 10.0575 12.4051 10.0578 12.4031 10.0586C12.4012 10.0594 12.3994 10.0605 12.3979 10.062C12.3964 10.0635 12.3952 10.0652 12.3944 10.0672C12.3936 10.0691 12.3932 10.0712 12.3932 10.0733L12.3884 10.4428C12.3883 10.4484 12.39 10.4538 12.3932 10.4585C12.3965 10.4631 12.4011 10.4667 12.4064 10.4687C12.5026 10.504 12.5981 10.5427 12.6931 10.585C12.7887 10.6274 12.9004 10.7066 13.0282 10.8227ZM9.22666 12.057C9.23079 12.2141 9.27932 12.3424 9.37226 12.4417C9.52771 12.608 9.75817 12.8361 10.0636 13.1257C10.3695 13.4161 10.6624 13.7129 10.9699 14.0069C10.9849 14.0212 11.0006 14.022 11.0169 14.0095C11.0456 13.9877 11.0761 13.9613 11.1084 13.9303C11.5136 13.5409 12.0086 13.0504 12.5934 12.4586C12.6993 12.3514 12.7524 12.2213 12.7528 12.0683C12.7862 11.8717 12.7533 11.6929 12.654 11.5318C12.4222 11.1558 11.9668 11.0147 11.5816 11.2459C11.5224 11.2812 11.4356 11.3575 11.3211 11.4749C11.2368 11.5613 11.1559 11.6446 11.0786 11.725C11.0273 11.7783 10.9754 11.7789 10.9229 11.7269C10.8367 11.6417 10.749 11.5539 10.6598 11.4636C10.5387 11.3412 10.4448 11.2616 10.3779 11.2248C10.0442 11.0412 9.60234 11.1685 9.37704 11.4808C9.2582 11.6453 9.20807 11.8373 9.22666 12.057ZM10.3599 15.2615L10.3619 17.0836C10.3619 17.0975 10.3688 17.1045 10.3827 17.1045L11.6156 17.1067C11.6214 17.1067 11.6269 17.1044 11.631 17.1004C11.635 17.0963 11.6373 17.0908 11.6373 17.085L11.6356 15.3018C11.6371 15.0455 11.64 14.7843 11.6444 14.5181C11.6449 14.4788 11.6409 14.4427 11.6323 14.4096C11.6316 14.4069 11.6302 14.4045 11.6282 14.4025C11.6263 14.4005 11.6238 14.399 11.6212 14.3983C11.6185 14.3975 11.6156 14.3975 11.6129 14.3982C11.6102 14.3989 11.6078 14.4003 11.6058 14.4023C11.4837 14.5229 11.3633 14.6433 11.2445 14.7636C11.1634 14.8459 11.0276 14.9658 10.9017 14.9053C10.8313 14.8712 10.7635 14.7772 10.7015 14.7169C10.5902 14.6082 10.4827 14.5062 10.379 14.4108C10.3773 14.4092 10.3751 14.4081 10.3728 14.4078C10.3705 14.4074 10.3681 14.4077 10.366 14.4087C10.3638 14.4096 10.362 14.4112 10.3607 14.4131C10.3594 14.4151 10.3588 14.4174 10.3588 14.4198L10.3599 15.2615Z" fill="#1E344D"/>
<path d="M7.0196 5.54534C7.44942 5.11552 8.14629 5.11552 8.5761 5.54534L10.6477 7.61693C11.0775 8.04675 11.0775 8.74362 10.6477 9.17343C10.2179 9.60325 9.52101 9.60325 9.09119 9.17343L7.0196 7.10184C6.58979 6.67202 6.58979 5.97516 7.0196 5.54534Z" fill="#C479B8"/>
<path d="M7.55476 5.54534C7.98457 5.11552 8.68144 5.11552 9.11126 5.54534L11.1829 7.61693C11.6127 8.04675 11.6127 8.74362 11.1829 9.17343C10.753 9.60325 10.0562 9.60325 9.62635 9.17343L7.55476 7.10184C7.12494 6.67202 7.12494 5.97516 7.55476 5.54534Z" fill="white"/>
<path fill-rule="evenodd" clip-rule="evenodd" d="M11.2031 8.202L8.56307 5.562C8.14153 5.14046 7.45808 5.14046 7.03654 5.562C6.61501 5.98354 6.61501 6.66698 7.03654 7.08852L9.67654 9.72852C10.0981 10.1501 10.7815 10.1501 11.2031 9.72852C11.6246 9.30698 11.6246 8.62353 11.2031 8.202ZM8.90531 5.21976C8.29475 4.60921 7.30485 4.60921 6.6943 5.21976C6.08375 5.83031 6.08375 6.82021 6.6943 7.43076L9.3343 10.0708C9.94485 10.6813 10.9348 10.6813 11.5453 10.0708C12.1559 9.46021 12.1559 8.47031 11.5453 7.85976L8.90531 5.21976Z" fill="#003550"/>
<path d="M11.3603 9.19134C10.9305 8.76152 10.9305 8.06465 11.3603 7.63484L13.4319 5.56324C13.8617 5.13343 14.5586 5.13343 14.9884 5.56324C15.4182 5.99306 15.4182 6.68993 14.9884 7.11974L12.9168 9.19134C12.487 9.62115 11.7901 9.62115 11.3603 9.19134Z" fill="#C479B8"/>
<path d="M11.6464 9.41155C11.2166 8.98174 11.2166 8.28487 11.6464 7.85505L13.718 5.78346C14.1478 5.35364 14.8447 5.35364 15.2745 5.78346C15.7043 6.21327 15.7043 6.91014 15.2745 7.33996L13.2029 9.41155C12.7731 9.84137 12.0762 9.84137 11.6464 9.41155Z" fill="white"/>
<path fill-rule="evenodd" clip-rule="evenodd" d="M13.4598 5.56158L10.8198 8.20158C10.3983 8.62312 10.3983 9.30657 10.8198 9.72811C11.2413 10.1496 11.9248 10.1496 12.3463 9.7281L14.9863 7.08811C15.4079 6.66657 15.4079 5.98312 14.9863 5.56158C14.5648 5.14005 13.8813 5.14005 13.4598 5.56158ZM10.4776 7.85934C9.86702 8.46989 9.86702 9.45979 10.4776 10.0703C11.0881 10.6809 12.078 10.6809 12.6886 10.0703L15.3286 7.43035C15.9391 6.8198 15.9391 5.8299 15.3286 5.21934C14.718 4.60879 13.7281 4.60879 13.1176 5.21935L10.4776 7.85934Z" fill="#003550"/>
<path d="M5.34668 9.51514H16.6547V16.2691C16.6547 17.1561 15.9356 17.8751 15.0487 17.8751H6.95268C6.06571 17.8751 5.34668 17.1561 5.34668 16.2691V9.51514Z" fill="#C479B8"/>
<path d="M5.34668 9.51514H15.9287V16.2471C15.9287 16.721 15.5445 17.1051 15.0707 17.1051H6.95268C6.06571 17.1051 5.34668 16.3861 5.34668 15.4991V9.51514Z" fill="white"/>
<path fill-rule="evenodd" clip-rule="evenodd" d="M16.1707 9.99914H5.83068V16.2691C5.83068 16.8888 6.33302 17.3911 6.95268 17.3911H15.0487C15.6683 17.3911 16.1707 16.8888 16.1707 16.2691V9.99914ZM5.34668 9.51514V16.2691C5.34668 17.1561 6.06571 17.8751 6.95268 17.8751H15.0487C15.9356 17.8751 16.6547 17.1561 16.6547 16.2691V9.51514H5.34668Z" fill="#003550"/>
<path fill-rule="evenodd" clip-rule="evenodd" d="M10.2086 10.0431V17.4131H9.72461V10.0431H10.2086Z" fill="#003550"/>
<path fill-rule="evenodd" clip-rule="evenodd" d="M12.2545 10.0431V17.4131H11.7705V10.0431H12.2545Z" fill="#003550"/>
<path d="M4.81836 8.1951C4.81836 8.07359 4.91686 7.9751 5.03836 7.9751H17.0284C17.1499 7.9751 17.2484 8.0736 17.2484 8.1951V9.4931C17.2484 9.6146 17.1499 9.7131 17.0284 9.7131H5.03836C4.91686 9.7131 4.81836 9.6146 4.81836 9.4931V8.1951Z" fill="#C479B8"/>
<path d="M4.66406 8.06305C4.66406 7.82004 4.86106 7.62305 5.10406 7.62305H16.4341C16.6771 7.62305 16.8741 7.82004 16.8741 8.06305V8.89905C16.8741 9.14205 16.6771 9.33905 16.4341 9.33905H5.10406C4.86106 9.33905 4.66406 9.14205 4.66406 8.89905V8.06305Z" fill="white"/>
<path fill-rule="evenodd" clip-rule="evenodd" d="M16.6764 8.10705H5.32439C5.08139 8.10705 4.88439 8.30404 4.88439 8.54705V9.11905C4.88439 9.36205 5.08139 9.55905 5.32439 9.55905H16.6764C16.9194 9.55905 17.1164 9.36205 17.1164 9.11905V8.54705C17.1164 8.30404 16.9194 8.10705 16.6764 8.10705ZM5.32439 7.62305C4.81408 7.62305 4.40039 8.03674 4.40039 8.54705V9.11905C4.40039 9.62936 4.81408 10.043 5.32439 10.043H16.6764C17.1867 10.043 17.6004 9.62936 17.6004 9.11905V8.54705C17.6004 8.03674 17.1867 7.62305 16.6764 7.62305H5.32439Z" fill="#003550"/>
<path d="M9.04199 12.4851C9.04199 13.4359 9.829 13.9426 10.4051 14.3961C10.6084 14.5561 10.8042 14.7068 11 14.7068C11.1958 14.7068 11.3916 14.5561 11.5949 14.3961C12.171 13.9426 12.958 13.4359 12.958 12.4851C12.958 11.5342 11.8811 10.8599 11 11.7741C10.1189 10.8599 9.04199 11.5342 9.04199 12.4851Z" fill="#C479B8"/>
<path d="M9.04199 12.4823C9.04199 13.3026 9.72288 13.7398 10.2213 14.131C10.3972 14.2691 10.5666 14.3991 10.736 14.3991C10.9054 14.3991 11.0748 14.2691 11.2507 14.131C11.7491 13.7398 12.43 13.3026 12.43 12.4823C12.43 11.662 11.4983 11.0802 10.736 11.8689C9.97372 11.0802 9.04199 11.662 9.04199 12.4823Z" fill="#F8DDF4"/>
<path fill-rule="evenodd" clip-rule="evenodd" d="M9.79187 11.6504C9.50232 11.7825 9.28478 12.1004 9.28478 12.4851C9.28478 12.8849 9.44735 13.1944 9.68913 13.4663C9.89061 13.6928 10.1335 13.8799 10.3785 14.0686C10.4376 14.1141 10.4968 14.1597 10.5556 14.206C10.6594 14.2877 10.7462 14.3547 10.8281 14.4025C10.9101 14.4503 10.9642 14.4648 11.0008 14.4648C11.0373 14.4648 11.0915 14.4503 11.1734 14.4025C11.2554 14.3547 11.3421 14.2877 11.446 14.206C11.5048 14.1597 11.564 14.1141 11.6231 14.0686C11.868 13.8799 12.111 13.6928 12.3124 13.4663C12.5542 13.1944 12.7168 12.8849 12.7168 12.4851C12.7168 12.1004 12.4992 11.7825 12.2097 11.6504C11.9353 11.5251 11.5536 11.5492 11.175 11.942C11.1294 11.9893 11.0665 12.0161 11.0008 12.0161C10.9351 12.0161 10.8722 11.9893 10.8265 11.942C10.448 11.5492 10.0663 11.5251 9.79187 11.6504ZM11.0008 11.4451C10.5386 11.0671 10.0203 11.0141 9.59089 11.2101C9.12171 11.4242 8.80078 11.919 8.80078 12.4851C8.80078 13.0361 9.03172 13.4554 9.32746 13.7879C9.56243 14.0521 9.85096 14.2739 10.098 14.4637C10.1531 14.5061 10.2062 14.5469 10.2562 14.5863C10.3556 14.6645 10.4684 14.753 10.5842 14.8205C10.6999 14.888 10.8415 14.9488 11.0008 14.9488C11.16 14.9488 11.3017 14.888 11.4174 14.8205C11.5332 14.753 11.6459 14.6645 11.7454 14.5863C11.7953 14.5469 11.8484 14.5061 11.9036 14.4637C12.1506 14.2739 12.4391 14.0521 12.6741 13.7879C12.9698 13.4554 13.2008 13.0361 13.2008 12.4851C13.2008 11.919 12.8798 11.4242 12.4107 11.2101C11.9812 11.0141 11.463 11.0671 11.0008 11.4451Z" fill="#003550"/>
</svg>
