<svg width="22" height="22" viewBox="0 0 22 22" fill="none" xmlns="http://www.w3.org/2000/svg">
<circle cx="11" cy="11" r="11" fill="#E3ECAF"/>
<path d="M15.312 18.7327C15.312 18.9696 13.3863 19.1617 11.011 19.1617C8.63558 19.1617 6.70996 18.9696 6.70996 18.7327C6.70996 18.4958 8.63558 18.3037 11.011 18.3037C13.3863 18.3037 15.312 18.4958 15.312 18.7327Z" fill="#AEBF48"/>
<path d="M16.6101 7.51286C16.6101 10.0826 14.1034 12.1659 11.0111 12.1659C7.91887 12.1659 5.41211 10.0826 5.41211 7.51286C5.41211 4.94308 7.91887 2.85986 11.0111 2.85986C14.1034 2.85986 16.6101 4.94308 16.6101 7.51286Z" fill="#E3ECAF"/>
<path fill-rule="evenodd" clip-rule="evenodd" d="M11.0111 11.6819C13.9238 11.6819 16.1261 9.73534 16.1261 7.51286C16.1261 5.29038 13.9238 3.34386 11.0111 3.34386C8.09846 3.34386 5.89611 5.29038 5.89611 7.51286C5.89611 9.73534 8.09846 11.6819 11.0111 11.6819ZM11.0111 12.1659C14.1034 12.1659 16.6101 10.0826 16.6101 7.51286C16.6101 4.94308 14.1034 2.85986 11.0111 2.85986C7.91887 2.85986 5.41211 4.94308 5.41211 7.51286C5.41211 10.0826 7.91887 12.1659 11.0111 12.1659Z" fill="#003550"/>
<path d="M5.30273 8.66797H16.7207L15.7099 16.6658C15.5709 17.7654 14.6356 18.59 13.5273 18.59H8.49619C7.38782 18.59 6.45253 17.7654 6.31355 16.6658L5.30273 8.66797Z" fill="white"/>
<path fill-rule="evenodd" clip-rule="evenodd" d="M5.30273 8.66797L6.31355 16.6658C6.45253 17.7654 7.38782 18.59 8.49619 18.59H13.5273C14.6356 18.59 15.5709 17.7654 15.7099 16.6658L16.7207 8.66797H5.30273ZM5.85176 9.15197L6.79373 16.6051C6.90213 17.4628 7.63166 18.106 8.49619 18.106H13.5273C14.3918 18.106 15.1213 17.4628 15.2297 16.6051L16.1717 9.15197H5.85176Z" fill="#003550"/>
<path fill-rule="evenodd" clip-rule="evenodd" d="M12.76 12.2985H10.692L10.692 14.3445L12.76 14.3445V12.2985ZM10.692 11.8145C10.4247 11.8145 10.208 12.0311 10.208 12.2985V14.3445C10.208 14.6118 10.4247 14.8285 10.692 14.8285H12.76C13.0273 14.8285 13.244 14.6118 13.244 14.3445V12.2985C13.244 12.0311 13.0273 11.8145 12.76 11.8145H10.692Z" fill="#003550"/>
<path d="M10.208 12.6724H13.244V13.9924H10.208V12.6724Z" fill="white"/>
<path d="M11.7588 13.1182C11.943 12.936 12.1142 12.7543 12.3092 12.591C12.4146 12.502 12.5554 12.642 12.5935 12.7317C12.6308 12.8187 12.5762 12.9203 12.5139 12.982C12.2331 13.2601 11.9652 13.5463 11.7103 13.8405C11.6724 13.884 11.629 13.9278 11.5803 13.972C11.3268 14.2009 11.0556 13.9268 10.8968 13.7124C10.8164 13.6032 10.8314 13.4789 10.9387 13.3973C11.0695 13.298 11.1983 13.3858 11.2853 13.4908C11.3307 13.546 11.3751 13.546 11.4187 13.4908C11.509 13.3771 11.6224 13.2529 11.7588 13.1182Z" fill="#003550"/>
<path fill-rule="evenodd" clip-rule="evenodd" d="M12.0865 18.1061H13.527C14.3915 18.1061 15.1211 17.4629 15.2295 16.6052L16.1714 9.15206H11.0225V9.32806H14.6422L13.903 15.7863C13.7793 16.8666 13.055 17.7458 12.0865 18.1061ZM16.2456 8.66806L16.3439 7.81006H11.0225V8.66806H16.2326H16.2456Z" fill="#AEBF48"/>
<path d="M17.6004 7.16096C17.6004 7.62875 14.6455 8.00796 11.0004 8.00796C7.35531 8.00796 4.40039 7.62875 4.40039 7.16096C4.40039 6.69318 7.35531 6.31396 11.0004 6.31396C14.6455 6.31396 17.6004 6.69318 17.6004 7.16096Z" fill="#AEBF48"/>
<path fill-rule="evenodd" clip-rule="evenodd" d="M17.2245 6.91073C17.2249 6.91076 17.2219 6.9133 17.2144 6.91823C17.2203 6.91316 17.2241 6.91069 17.2245 6.91073ZM16.3727 7.16096C16.1515 7.11923 15.895 7.07924 15.6057 7.04211C14.4374 6.89218 12.809 6.79796 11.0004 6.79796C9.19178 6.79796 7.56334 6.89218 6.39509 7.04211C6.10577 7.07924 5.84926 7.11923 5.62809 7.16096C5.84926 7.2027 6.10577 7.24269 6.39509 7.27982C7.56334 7.42975 9.19178 7.52396 11.0004 7.52396C12.809 7.52396 14.4374 7.42975 15.6057 7.27982C15.895 7.24269 16.1515 7.2027 16.3727 7.16096ZM4.77631 6.91073C4.77671 6.91069 4.78046 6.91316 4.78633 6.91823C4.77884 6.9133 4.7759 6.91076 4.77631 6.91073ZM4.77631 7.4112C4.7759 7.41117 4.77884 7.40863 4.78633 7.4037C4.78046 7.40877 4.77671 7.41124 4.77631 7.4112ZM17.2145 7.4037C17.2219 7.40863 17.2249 7.41117 17.2245 7.4112C17.2241 7.41124 17.2203 7.40877 17.2145 7.4037ZM11.0004 8.00796C14.6455 8.00796 17.6004 7.62875 17.6004 7.16096C17.6004 6.69318 14.6455 6.31396 11.0004 6.31396C7.35531 6.31396 4.40039 6.69318 4.40039 7.16096C4.40039 7.62875 7.35531 8.00796 11.0004 8.00796Z" fill="#003550"/>
<path d="M4.40039 7.18113C4.40039 7.12907 4.44534 7.08839 4.49715 7.09357L6.05039 7.24889L7.70039 7.35889L11.0004 7.45789L14.3004 7.35889L15.9504 7.24889L17.4766 7.05558C17.5423 7.04725 17.6004 7.09847 17.6004 7.1647V8.43074C17.6004 8.8273 17.2992 9.15901 16.9045 9.19716L14.3004 9.44889L11.0004 9.54789L7.70039 9.44889L5.0963 9.19716C4.70158 9.15901 4.40039 8.8273 4.40039 8.43074V7.18113Z" fill="white"/>
<path fill-rule="evenodd" clip-rule="evenodd" d="M6.05039 7.24889L4.49715 7.09357C4.44534 7.08839 4.40039 7.12907 4.40039 7.18113V8.43074C4.40039 8.8273 4.70158 9.15901 5.0963 9.19716L7.70039 9.44889L11.0004 9.54789L14.3004 9.44889L16.9045 9.19716C17.2992 9.15901 17.6004 8.8273 17.6004 8.43074V7.1647C17.6004 7.09847 17.5423 7.04725 17.4766 7.05558L15.9504 7.24889L14.3004 7.35889L11.0004 7.45789L7.70039 7.35889L6.05039 7.24889ZM14.2698 8.96559L16.8579 8.71541C17.0045 8.70124 17.1164 8.57803 17.1164 8.43074V7.58907L15.9969 7.73086L14.3238 7.84241L11.0004 7.94211L7.67703 7.84241L6.0102 7.73129L4.88439 7.61871V8.43074C4.88439 8.57803 4.99626 8.70124 5.14287 8.71541L7.73097 8.96559L11.0004 9.06367L14.2698 8.96559Z" fill="#003550"/>
<path d="M14.6523 7.78772L17.2483 7.49072L17.1603 8.73372L14.5312 8.93172L14.6523 7.78772Z" fill="#AEBF48"/>
<path fill-rule="evenodd" clip-rule="evenodd" d="M6.05039 7.24889L4.49715 7.09357C4.44534 7.08839 4.40039 7.12907 4.40039 7.18113V8.43074C4.40039 8.8273 4.70158 9.15901 5.0963 9.19716L7.70039 9.44889L11.0004 9.54789L14.3004 9.44889L16.9045 9.19716C17.2992 9.15901 17.6004 8.8273 17.6004 8.43074V7.1647C17.6004 7.09847 17.5423 7.04725 17.4766 7.05558L15.9504 7.24889L14.3004 7.35889L11.0004 7.45789L7.70039 7.35889L6.05039 7.24889ZM14.2698 8.96559L16.8579 8.71541C17.0045 8.70124 17.1164 8.57803 17.1164 8.43074V7.58907L15.9969 7.73086L14.3238 7.84241L11.0004 7.94211L7.67703 7.84241L6.0102 7.73129L4.88439 7.61871V8.43074C4.88439 8.57803 4.99626 8.70124 5.14287 8.71541L7.73097 8.96559L11.0004 9.06367L14.2698 8.96559Z" fill="#003550"/>
<path d="M9.24005 11.2528C9.24005 11.5384 9.00859 11.7698 8.72305 11.7698C8.43752 11.7698 8.20605 11.5384 8.20605 11.2528C8.20605 10.9673 8.43752 10.7358 8.72305 10.7358C9.00859 10.7358 9.24005 10.9673 9.24005 11.2528Z" fill="#003550"/>
<path d="M9.24005 12.8368C9.24005 13.1224 9.00859 13.3538 8.72305 13.3538C8.43752 13.3538 8.20605 13.1224 8.20605 12.8368C8.20605 12.5513 8.43752 12.3198 8.72305 12.3198C9.00859 12.3198 9.24005 12.5513 9.24005 12.8368Z" fill="#003550"/>
<path d="M9.24005 14.4208C9.24005 14.7063 9.00859 14.9378 8.72305 14.9378C8.43752 14.9378 8.20605 14.7063 8.20605 14.4208C8.20605 14.1353 8.43752 13.9038 8.72305 13.9038C9.00859 13.9038 9.24005 14.1353 9.24005 14.4208Z" fill="#003550"/>
<path d="M9.24005 16.0048C9.24005 16.2903 9.00859 16.5218 8.72305 16.5218C8.43752 16.5218 8.20605 16.2903 8.20605 16.0048C8.20605 15.7193 8.43752 15.4878 8.72305 15.4878C9.00859 15.4878 9.24005 15.7193 9.24005 16.0048Z" fill="#003550"/>
</svg>
