<svg width="22" height="22" viewBox="0 0 22 22" fill="none" xmlns="http://www.w3.org/2000/svg">
<circle cx="11" cy="11" r="11" fill="#F8D2D6"/>
<path d="M10.026 21.9575L5.52246 14.157L16.4777 7.83203L20.9808 15.6316C19.2325 19.3925 15.421 22 11.0005 22C10.6721 22 10.3471 21.9856 10.026 21.9575Z" fill="#FFB8BD"/>
<path d="M17.0495 10.868C17.0495 14.2823 14.2818 17.05 10.8675 17.05C7.45332 17.05 4.68555 14.2823 4.68555 10.868C4.68555 7.45381 7.45332 4.68604 10.8675 4.68604C14.2818 4.68604 17.0495 7.45381 17.0495 10.868Z" fill="#FFFEFA"/>
<path fill-rule="evenodd" clip-rule="evenodd" d="M10.8675 16.566C14.0145 16.566 16.5655 14.015 16.5655 10.868C16.5655 7.72112 14.0145 5.17004 10.8675 5.17004C7.72063 5.17004 5.16955 7.72112 5.16955 10.868C5.16955 14.015 7.72063 16.566 10.8675 16.566ZM10.8675 17.05C14.2818 17.05 17.0495 14.2823 17.0495 10.868C17.0495 7.45381 14.2818 4.68604 10.8675 4.68604C7.45332 4.68604 4.68555 7.45381 4.68555 10.868C4.68555 14.2823 7.45332 17.05 10.8675 17.05Z" fill="#C4333F"/>
<path fill-rule="evenodd" clip-rule="evenodd" d="M11.0105 16.852C14.2364 16.852 16.8515 14.2369 16.8515 11.011C16.8515 7.78514 14.2364 5.17004 11.0105 5.17004C7.78465 5.17004 5.16955 7.78514 5.16955 11.011C5.16955 14.2369 7.78465 16.852 11.0105 16.852ZM11.0105 17.336C14.5037 17.336 17.3355 14.5042 17.3355 11.011C17.3355 7.51783 14.5037 4.68604 11.0105 4.68604C7.51735 4.68604 4.68555 7.51783 4.68555 11.011C4.68555 14.5042 7.51735 17.336 11.0105 17.336Z" fill="#003550"/>
<path d="M9.37449 7.39215C9.37449 7.14914 9.57148 6.95215 9.81449 6.95215H12.1643C12.4073 6.95215 12.6043 7.14914 12.6043 7.39215V14.5866C12.6043 14.8296 12.4073 15.0266 12.1643 15.0266H9.81449C9.57148 15.0266 9.37449 14.8296 9.37449 14.5866V7.39215Z" fill="#C4333F"/>
<path d="M7.39215 12.6043C7.14914 12.6043 6.95215 12.4073 6.95215 12.1643L6.95215 9.81449C6.95215 9.57148 7.14914 9.37449 7.39215 9.37449L14.5866 9.37449C14.8296 9.37449 15.0266 9.57148 15.0266 9.81449V12.1643C15.0266 12.4073 14.8296 12.6043 14.5866 12.6043H7.39215Z" fill="#C4333F"/>
</svg>
