<svg width="22" height="22" viewBox="0 0 22 22" fill="none" xmlns="http://www.w3.org/2000/svg">
<circle cx="11" cy="11" r="11" fill="#F1FFD1"/>
<path fill-rule="evenodd" clip-rule="evenodd" d="M14.3884 6.22521H7.32641C6.62169 6.22521 6.05041 6.7965 6.05041 7.50121V15.5312C6.05041 16.2359 6.62169 16.8072 7.32641 16.8072H14.3884C15.0931 16.8072 15.6644 16.2359 15.6644 15.5312V7.50121C15.6644 6.7965 15.0931 6.22521 14.3884 6.22521ZM7.32641 5.74121C6.35439 5.74121 5.56641 6.52919 5.56641 7.50121V15.5312C5.56641 16.5032 6.35438 17.2912 7.32641 17.2912H14.3884C15.3604 17.2912 16.1484 16.5032 16.1484 15.5312V7.50121C16.1484 6.52919 15.3604 5.74121 14.3884 5.74121H7.32641Z" fill="#B0D364"/>
<path fill-rule="evenodd" clip-rule="evenodd" d="M9.98791 6.37957C9.98791 7.05999 10.5395 7.61157 11.2199 7.61157C11.9003 7.61157 12.4519 7.05999 12.4519 6.37957C12.4519 5.69916 11.9003 5.14757 11.2199 5.14757C10.5395 5.14757 9.98791 5.69916 9.98791 6.37957ZM11.2199 4.66357C10.2722 4.66357 9.50391 5.43185 9.50391 6.37957C9.50391 7.3273 10.2722 8.09557 11.2199 8.09557C12.1676 8.09557 12.9359 7.3273 12.9359 6.37957C12.9359 5.43185 12.1676 4.66357 11.2199 4.66357Z" fill="#B0D364"/>
<path fill-rule="evenodd" clip-rule="evenodd" d="M14.6964 6.22521H7.32641C6.62169 6.22521 6.05041 6.7965 6.05041 7.50121V15.8392C6.05041 16.5439 6.62169 17.1152 7.32641 17.1152H14.6964C15.4011 17.1152 15.9724 16.5439 15.9724 15.8392V7.50121C15.9724 6.7965 15.4011 6.22521 14.6964 6.22521ZM7.32641 5.74121C6.35439 5.74121 5.56641 6.52919 5.56641 7.50121V15.8392C5.56641 16.8112 6.35439 17.5992 7.32641 17.5992H14.6964C15.6684 17.5992 16.4564 16.8112 16.4564 15.8392V7.50121C16.4564 6.52919 15.6684 5.74121 14.6964 5.74121H7.32641Z" fill="#003550"/>
<path d="M9.30664 6.11541C9.30664 5.16769 10.0749 4.39941 11.0226 4.39941C11.9704 4.39941 12.7386 5.16769 12.7386 6.11541C12.7386 7.06313 11.9704 7.83141 11.0226 7.83141C10.0749 7.83141 9.30664 7.06313 9.30664 6.11541Z" fill="#E6FFAF"/>
<path d="M9.87793 6.3246C9.87793 5.61381 10.4541 5.0376 11.1649 5.0376C11.8757 5.0376 12.4519 5.61381 12.4519 6.3246C12.4519 7.03539 11.8757 7.6116 11.1649 7.6116C10.4541 7.6116 9.87793 7.03539 9.87793 6.3246Z" fill="#B0D364"/>
<path d="M9.98161 9.54639H7.67837C7.50273 9.54639 7.36035 9.68877 7.36035 9.86441V9.89837C7.36035 10.074 7.50273 10.2164 7.67837 10.2164H9.98161C10.1572 10.2164 10.2996 10.074 10.2996 9.89837V9.86441C10.2996 9.68877 10.1572 9.54639 9.98161 9.54639Z" fill="#003550"/>
<path d="M14.2509 9.54443H12.1726C11.9974 9.54443 11.8555 9.68641 11.8555 9.86154V9.89871C11.8555 10.0738 11.9974 10.2158 12.1726 10.2158H14.2509C14.4261 10.2158 14.568 10.0738 14.568 9.89871V9.86154C14.568 9.68641 14.4261 9.54443 14.2509 9.54443Z" fill="#003550"/>
<path d="M14.2315 11.7749H7.67922C7.49826 11.7749 7.35156 11.9216 7.35156 12.1026V12.1094C7.35156 12.2904 7.49826 12.4371 7.67922 12.4371H14.2315C14.4124 12.4371 14.5591 12.2904 14.5591 12.1094V12.1026C14.5591 11.9216 14.4124 11.7749 14.2315 11.7749Z" fill="#003550"/>
<path d="M9.94431 13.9941C10.3906 13.9923 10.453 14.6664 9.95372 14.6678C9.62032 14.6685 9.28922 14.6625 8.95996 14.666C8.56668 14.6701 8.17883 14.6714 7.79641 14.6699C7.60436 14.6692 7.41276 14.6518 7.37146 14.4271C7.33888 14.25 7.40313 14.0859 7.57292 14.0176C7.61254 14.0016 7.66524 13.9938 7.73101 13.9941C8.49937 13.9974 9.23714 13.9974 9.94431 13.9941Z" fill="#003550"/>
<path fill-rule="evenodd" clip-rule="evenodd" d="M9.79064 6.11541C9.79064 6.79583 10.3422 7.34741 11.0226 7.34741C11.7031 7.34741 12.2546 6.79583 12.2546 6.11541C12.2546 5.435 11.7031 4.88341 11.0226 4.88341C10.3422 4.88341 9.79064 5.435 9.79064 6.11541ZM11.0226 4.39941C10.0749 4.39941 9.30664 5.16769 9.30664 6.11541C9.30664 7.06313 10.0749 7.83141 11.0226 7.83141C11.9704 7.83141 12.7386 7.06313 12.7386 6.11541C12.7386 5.16769 11.9704 4.39941 11.0226 4.39941Z" fill="#003550"/>
</svg>
