<svg width="22" height="22" viewBox="0 0 22 22" fill="none" xmlns="http://www.w3.org/2000/svg">
<circle cx="11" cy="11" r="11" fill="#E7FFE8"/>
<path fill-rule="evenodd" clip-rule="evenodd" d="M5.5625 17.3739C5.5625 17.2494 5.66344 17.1484 5.78797 17.1484L16.2004 17.1484C16.3249 17.1484 16.4258 17.2494 16.4258 17.3739C16.4258 17.4984 16.3249 17.5994 16.2004 17.5994L5.78797 17.5994C5.66344 17.5994 5.5625 17.4984 5.5625 17.3739Z" fill="#003550"/>
<circle cx="16.9076" cy="17.3637" r="0.174224" fill="#003550"/>
<circle cx="5.08047" cy="17.3637" r="0.174224" fill="#003550"/>
<path d="M9.14941 9.72852V12.1471C9.14941 13.2565 10.0487 14.1558 11.1581 14.1558C12.2675 14.1558 13.1668 13.2565 13.1668 12.1472V9.72852H12.7979V12.1472C12.7979 13.0528 12.0637 13.7869 11.1581 13.7869C10.2525 13.7869 9.51836 13.0528 9.51836 12.1471V9.72852H9.14941Z" fill="#48BFAA"/>
<path d="M9.00586 9.81055V11.9422C9.00586 13.0516 9.90518 13.9509 11.0146 13.9509C12.1239 13.9509 13.0232 13.0516 13.0232 11.9422V9.81055H12.6543V11.9422C12.6543 12.8478 11.9202 13.582 11.0146 13.582C10.1089 13.582 9.3748 12.8478 9.3748 11.9422V9.81055H9.00586Z" fill="#003550"/>
<circle cx="12.8284" cy="9.73908" r="0.338199" fill="#003550"/>
<circle cx="9.2005" cy="9.73908" r="0.338199" fill="#003550"/>
<path d="M11.2434 4.75362L11.3716 4.75342L11.3701 5.14211C11.3652 5.14252 11.3604 5.14286 11.3556 5.14313H11.2616C11.2567 5.14313 11.252 5.14119 11.2486 5.13774C11.2451 5.13429 11.2432 5.12961 11.2432 5.12473L11.2434 4.75362Z" fill="#D5F0F5"/>
<path d="M10.7591 5.5L11.3547 5.50102L11.3553 5.75681C11.3553 5.76935 11.349 5.77562 11.3365 5.77562L10.7728 5.77766C10.754 5.7778 10.7451 5.76846 10.7462 5.74965L10.7591 5.5Z" fill="#D5F0F5"/>
<path d="M11.445 6.07236C11.5089 6.17923 11.5745 6.28535 11.6417 6.39072C11.7343 6.53589 11.7965 6.64385 11.8281 6.71459C11.9027 6.88157 11.9523 7.05755 11.977 7.24252C11.8888 7.32867 11.8176 7.42477 11.7633 7.53082C11.759 7.53927 11.7521 7.54349 11.7427 7.54349L10.2059 7.5394C10.1649 7.5469 10.1454 7.53743 10.1476 7.51098C10.1562 7.4097 10.1794 7.286 10.2171 7.13988C10.2448 7.03274 10.287 6.93201 10.3437 6.83768C10.3479 6.83073 10.346 6.82664 10.338 6.82541C10.3346 6.82486 10.3303 6.82548 10.3251 6.82725C10.3468 6.81839 10.3676 6.80721 10.3875 6.79372C10.4273 6.767 10.4431 6.73408 10.4351 6.69496C10.4272 6.65625 10.4201 6.61972 10.4138 6.58537C10.5294 6.43325 10.629 6.2711 10.7126 6.09894C10.7184 6.08681 10.726 6.07972 10.7353 6.07768C10.7437 6.07591 10.7549 6.07488 10.7688 6.07461C11.0159 6.07011 11.2042 6.07018 11.3337 6.07482C11.3863 6.07673 11.4234 6.07591 11.445 6.07236Z" fill="#D5F0F5"/>
<path d="M9.69921 7.87793L11.3413 7.881C11.3796 7.89068 11.3925 7.93661 11.3799 8.01881C11.3709 8.07769 11.3681 8.13051 11.3715 8.17727L9.86973 8.18647C9.85229 8.18661 9.84349 8.19547 9.84336 8.21305L9.84193 8.51239C9.8148 8.51675 9.79831 8.51239 9.79245 8.4993C9.74719 8.39789 9.70309 8.29531 9.66016 8.19158L9.80758 8.18626C9.8253 8.18558 9.83518 8.17645 9.83722 8.15887C9.84486 8.09071 9.84765 8.01778 9.84561 7.94009C9.84492 7.91691 9.83552 7.89892 9.81739 7.88611C9.81311 7.88316 9.80808 7.88146 9.80287 7.8812L9.69921 7.87793Z" fill="#D5F0F5"/>
<path d="M14.276 5.81362C14.3766 5.80999 14.449 5.87802 14.5024 5.958C14.6637 6.19998 14.7786 6.47119 14.8473 6.77161C14.8463 6.80004 14.845 6.83203 14.8435 6.86758C14.8418 6.90853 14.8351 6.9403 14.8235 6.96291C14.7849 7.03734 14.6488 7.08042 14.5837 7.00023C14.5595 6.97052 14.5422 6.93611 14.5315 6.89701C14.4925 6.75313 14.4454 6.61116 14.3902 6.47112L14.2094 6.11496C14.1641 6.05297 14.1449 5.99674 14.1517 5.94627C14.1619 5.87162 14.2034 5.82741 14.276 5.81362Z" fill="#003550"/>
<path d="M7.64951 6.32946C7.70717 6.43905 7.65503 6.5376 7.56139 6.60548C7.38555 6.73307 7.20541 6.85439 7.02099 6.96943C7.00572 6.97884 6.98445 6.98756 6.95719 6.99561C6.81754 6.99908 6.74169 6.858 6.78994 6.739C6.8048 6.70261 6.83765 6.66567 6.88849 6.62818C7.05793 6.50346 7.22143 6.39352 7.379 6.29838C7.47469 6.24072 7.56486 6.25108 7.64951 6.32946Z" fill="#003550"/>
<path d="M7.96097 7.01414C7.99614 7.08816 7.99655 7.15325 7.9622 7.20941C7.9453 7.23708 7.90052 7.27511 7.82787 7.3235C7.67629 7.42437 7.52526 7.52667 7.37477 7.6304C7.3441 7.65153 7.30273 7.6732 7.25066 7.69542C7.09547 7.70994 7.00898 7.56518 7.07523 7.43043C7.08804 7.4044 7.12703 7.3678 7.19218 7.32064C7.32222 7.22672 7.45519 7.1311 7.5911 7.03377C7.64937 6.99206 7.75855 6.91927 7.83277 6.94319C7.8813 6.95873 7.92403 6.98238 7.96097 7.01414Z" fill="#003550"/>
<path d="M8.26784 7.66253C8.37171 7.77089 8.31098 7.89869 8.20344 7.9682C8.01642 8.08898 7.83587 8.20682 7.66181 8.32173C7.62868 8.34354 7.58636 8.35669 7.53483 8.36119C7.39845 8.33358 7.32996 8.20048 7.4189 8.08066C7.44671 8.04317 7.50675 7.99478 7.59904 7.93549C7.7423 7.84348 7.8705 7.75754 7.98364 7.67766C8.08001 7.60964 8.17474 7.6046 8.26784 7.66253Z" fill="#003550"/>
<path d="M14.8382 4.76855C14.8498 4.76993 14.8557 4.77418 14.856 4.78131C14.8553 4.79022 14.8531 4.79742 14.8494 4.8029C14.8457 4.80825 14.8457 4.81346 14.8496 4.81853C14.8981 4.88544 14.9238 4.95023 14.9266 5.01289C14.9386 5.27244 14.9083 5.53673 14.8834 5.80924C14.8657 6.00339 14.8494 6.19754 14.8345 6.39169C14.8304 6.44654 14.8291 6.50728 14.8306 6.57391C14.832 6.63287 14.8307 6.69382 14.8267 6.75675C14.7602 6.46703 14.6489 6.20549 14.4927 5.97213C14.441 5.895 14.3709 5.82939 14.2734 5.83289C14.292 5.83412 14.3085 5.83193 14.3231 5.82631C14.3296 5.82384 14.3331 5.81911 14.3338 5.81212C14.3357 5.7921 14.3408 5.77311 14.3491 5.75515C14.3618 5.72704 14.3757 5.69907 14.3907 5.67123C14.4058 5.64313 14.4169 5.61372 14.4241 5.583C14.4341 5.54022 14.4465 5.50108 14.4614 5.46557C14.4846 5.40949 14.5093 5.35217 14.5355 5.29363C14.5985 5.15281 14.6755 5.02283 14.7665 4.90368C14.7893 4.87379 14.811 4.84308 14.8317 4.81154C14.8403 4.79817 14.8385 4.78398 14.8382 4.76855Z" fill="#FFCA93"/>
<path d="M7.52252 5.65227C7.51353 5.65622 7.5076 5.65827 7.50473 5.6584C7.48374 5.65922 7.48265 5.66426 7.50146 5.67353C7.56689 5.7057 7.62435 5.75164 7.67383 5.81134C7.79678 5.95965 7.86548 6.13488 7.87993 6.33702C7.8862 6.42508 7.90433 6.51287 7.93432 6.60038C8.00199 6.7985 8.13653 6.97087 8.21464 7.17063C8.30052 7.38961 8.42095 7.58058 8.5334 7.7826C8.55712 7.8254 8.58527 7.88578 8.61785 7.96375C8.64443 8.02755 8.67216 8.08814 8.70106 8.14552C8.71129 8.16583 8.73855 8.22581 8.78285 8.32545C8.81052 8.38775 8.84473 8.44759 8.88549 8.50497L8.71947 8.50743C8.71796 8.50745 8.71647 8.50713 8.71512 8.50647C8.71376 8.50582 8.71258 8.50486 8.71167 8.50367C8.71075 8.50247 8.71013 8.50108 8.70985 8.4996C8.70957 8.49813 8.70964 8.4966 8.71006 8.49516C8.7209 8.45815 8.73521 8.41889 8.73296 8.38005C8.72901 8.31721 8.70154 8.27243 8.65056 8.24571C8.56182 8.19937 8.47445 8.20809 8.38844 8.27188C8.29043 8.34454 8.18792 8.42046 8.08092 8.49966C8.06845 8.50894 8.05323 8.5139 8.03757 8.51377L7.72801 8.51131C7.91448 8.37814 8.09939 8.24346 8.28273 8.10729C8.35115 8.05658 8.396 8.00199 8.41726 7.94351C8.43539 7.89335 8.43362 7.83521 8.41195 7.7691C8.40227 7.7398 8.38339 7.71649 8.35531 7.69917C8.3286 7.68254 8.29963 7.67055 8.26841 7.66319C8.17531 7.60526 8.08058 7.6103 7.98421 7.67832C7.87107 7.7582 7.74287 7.84414 7.59961 7.93615C7.50732 7.99545 7.44728 8.04384 7.41947 8.08132C7.33053 8.20114 7.39903 8.33424 7.5354 8.36185C7.51687 8.36457 7.50991 8.38672 7.51455 8.4283C7.51537 8.43539 7.5138 8.44186 7.50985 8.44772C7.50726 8.45154 7.50412 8.45474 7.50044 8.45733C7.49513 8.46115 7.49172 8.46626 7.49022 8.47267C7.4864 8.49053 7.49015 8.50272 7.50146 8.50927L7.31233 8.50988L7.06391 8.02509C7.06261 8.02259 7.06193 8.01981 7.06191 8.01698C7.0619 8.01416 7.06256 8.01137 7.06384 8.00886C7.06512 8.00634 7.06698 8.00416 7.06927 8.0025C7.07155 8.00085 7.0742 7.99976 7.07699 7.99933C7.15115 7.98788 7.224 7.95707 7.29557 7.90691C7.44782 7.80018 7.62285 7.67682 7.82063 7.53683C7.88266 7.49294 7.94011 7.44918 7.993 7.40556C8.05447 7.35485 8.08957 7.2976 8.0983 7.23381C8.10457 7.1891 8.09789 7.1448 8.07826 7.10091C8.05059 7.03902 8.0116 7.01019 7.96131 7.01442C7.92437 6.98266 7.88163 6.95901 7.83311 6.94347C7.75889 6.91955 7.6497 6.99234 7.59143 7.03405C7.45553 7.13137 7.32256 7.227 7.19252 7.32091C7.12736 7.36808 7.08837 7.40468 7.07556 7.43071C7.00931 7.56545 7.0958 7.71022 7.25099 7.6957C7.21364 7.77367 7.13786 7.79882 7.02363 7.77115C6.95738 7.7552 6.87764 7.58222 6.85494 7.52354C6.82816 7.45361 6.79074 7.39105 6.75946 7.32255C6.75803 7.31942 6.75734 7.31601 6.75745 7.31258C6.75756 7.30914 6.75846 7.30578 6.76008 7.30275C6.7617 7.29972 6.76401 7.29711 6.76681 7.29511C6.76961 7.29312 6.77283 7.29181 6.77622 7.29127C6.87818 7.27545 6.97503 7.23511 7.06677 7.17022C7.22707 7.05695 7.38342 6.94483 7.53581 6.83388C7.59783 6.78876 7.66088 6.73055 7.72494 6.65926C7.79099 6.58565 7.80469 6.5008 7.75602 6.41452C7.72276 6.35563 7.68746 6.32741 7.65011 6.32987C7.56546 6.25149 7.47529 6.24113 7.3796 6.29879C7.22203 6.39393 7.05852 6.50387 6.88909 6.62859C6.83824 6.66608 6.80539 6.70302 6.79054 6.73941C6.74228 6.85841 6.81814 6.99949 6.95779 6.99602C6.89195 7.09293 6.80798 7.11318 6.70589 7.05674C6.66009 7.03139 6.63064 6.99166 6.61756 6.93754C6.60992 6.90551 6.601 6.87354 6.59077 6.84165C6.57292 6.7863 6.56487 6.73328 6.56665 6.68257C6.56787 6.64931 6.56862 6.61612 6.5689 6.583C6.56951 6.53065 6.58566 6.4869 6.601 6.43824C6.61245 6.40143 6.62233 6.36476 6.63064 6.32823C6.63869 6.29306 6.65252 6.25769 6.67215 6.22211C6.67351 6.21966 6.67563 6.21823 6.67849 6.21782C6.68258 6.21741 6.6853 6.2153 6.68667 6.21148C6.74487 6.04382 6.84567 5.91726 6.98907 5.83179C7.13247 5.74646 7.28657 5.68689 7.45137 5.65309C7.47059 5.64913 7.49431 5.64886 7.52252 5.65227Z" fill="#FFCA93"/>
<path d="M14.2159 6.12158L14.3915 6.46465C14.3828 6.50793 14.3796 6.5423 14.382 6.56777C14.4083 6.84962 14.3982 7.1301 14.3516 7.40921C14.3494 7.42181 14.3499 7.43591 14.353 7.45153C14.3584 7.47947 14.3546 7.49391 14.3415 7.49487C14.2064 7.41489 14.0606 7.37634 13.9043 7.37922C13.9353 7.15037 13.9841 6.92563 14.0508 6.705C14.0747 6.6255 14.1227 6.52977 14.146 6.43794C14.15 6.42206 14.1557 6.40665 14.1632 6.39172C14.1708 6.37679 14.1765 6.3618 14.1805 6.34673C14.2008 6.27045 14.2126 6.1954 14.2159 6.12158Z" fill="#FFCA93"/>
<path d="M12.0798 8.51889L11.8437 8.51931C11.8362 8.51931 11.833 8.5159 11.8342 8.50907L11.9068 8.11361C11.9955 8.10385 12.085 8.11096 12.1753 8.13493C12.1766 8.13531 12.1778 8.13593 12.1789 8.13676C12.1799 8.13759 12.1808 8.1386 12.1814 8.13974C12.182 8.14087 12.1823 8.14211 12.1824 8.14337C12.1825 8.14462 12.1823 8.14588 12.1818 8.14705C12.1324 8.26466 12.0984 8.38861 12.0798 8.51889Z" fill="#FFCA93"/>
<path d="M14.8555 4.79257C14.857 4.79175 14.8585 4.79087 14.86 4.78991C14.8611 4.78937 14.8622 4.78944 14.8633 4.79012C15.0042 4.87169 15.0849 5.01499 15.1179 5.17506C15.1271 5.22003 15.1321 5.28633 15.1329 5.37396C15.1351 5.63359 15.1288 5.90445 15.114 6.18656C15.109 6.27828 15.1006 6.3732 15.0887 6.47133C15.0768 6.56864 15.0672 6.66451 15.0596 6.75896C15.0576 6.78308 15.0557 6.80311 15.0368 6.82049C14.7978 7.03827 14.5909 7.27514 14.416 7.53108C14.4143 7.53356 14.4117 7.53528 14.4088 7.53589C14.4058 7.5365 14.4027 7.53595 14.4001 7.53435L14.334 7.49326C14.347 7.49231 14.3509 7.47793 14.3455 7.45013C14.3424 7.43459 14.3419 7.42055 14.3441 7.40801C14.3905 7.13027 14.4006 6.85115 14.3744 6.57068C14.372 6.54533 14.3752 6.51112 14.3838 6.46806C14.4372 6.6023 14.4828 6.73838 14.5206 6.8763C14.5309 6.91378 14.5477 6.94676 14.5711 6.97524C14.6341 7.05211 14.7659 7.01081 14.8032 6.93947C14.8144 6.9178 14.8209 6.88734 14.8225 6.84809C14.8241 6.81402 14.8253 6.78335 14.8263 6.7561C14.8302 6.69354 14.8315 6.63296 14.8302 6.57436C14.8287 6.50813 14.83 6.44775 14.8341 6.39324C14.8489 6.20026 14.8652 6.00728 14.8829 5.8143C14.9078 5.54343 14.9381 5.28074 14.9261 5.02276C14.9233 4.96047 14.8976 4.89608 14.8491 4.82957C14.8453 4.82453 14.8452 4.81935 14.8489 4.81404C14.8526 4.80859 14.8548 4.80143 14.8555 4.79257Z" fill="#FFA16A"/>
<path d="M7.53887 5.62256C7.56355 5.62488 7.58031 5.62713 7.58917 5.62931C7.89485 5.70619 8.16536 5.87855 8.31871 6.15867C8.35388 6.22273 8.38693 6.28905 8.41787 6.35761C8.56141 6.67535 8.71639 6.99207 8.86013 7.3139C9.01662 7.66422 9.17317 8.00608 9.32979 8.3395C9.35174 8.38625 9.37443 8.43362 9.39788 8.4816C9.40387 8.49401 9.40006 8.50028 9.38643 8.50041L8.88467 8.50552C8.84391 8.44814 8.8097 8.3883 8.78203 8.326C8.73772 8.22636 8.71046 8.16638 8.70024 8.14607C8.67134 8.08869 8.6436 8.0281 8.61702 7.9643C8.58444 7.88633 8.5563 7.82595 8.53258 7.78315C8.42012 7.58114 8.29969 7.39016 8.21382 7.17118C8.13571 6.97142 8.00117 6.79905 7.93349 6.60093C7.9035 6.51342 7.88538 6.42563 7.87911 6.33758C7.86466 6.13543 7.79596 5.9602 7.673 5.81189C7.62352 5.75219 7.56607 5.70625 7.50064 5.67408C7.48183 5.66481 7.48292 5.65977 7.50391 5.65895C7.50677 5.65882 7.5127 5.65677 7.5217 5.65282C7.52402 5.65118 7.52667 5.65023 7.52967 5.64996C7.53404 5.64955 7.5369 5.64723 7.53826 5.64301C7.54044 5.63646 7.54065 5.62965 7.53887 5.62256Z" fill="#FFA16A"/>
<path d="M13.2025 7.39338C13.2387 7.44384 13.2719 7.49581 13.302 7.54928C13.3492 7.63269 13.3827 7.68383 13.4023 7.70271C13.4999 7.79583 13.6315 7.79193 13.761 7.74927C13.7909 7.73942 13.8213 7.73395 13.8521 7.73286C14.3041 7.71563 14.4976 8.12238 14.4191 8.51129C14.4186 8.51373 14.4172 8.51592 14.4153 8.51749C14.4133 8.51906 14.4108 8.51991 14.4083 8.51991L12.0541 8.51888C12.0712 8.39102 12.1026 8.26939 12.1482 8.15397C12.1486 8.15282 12.1488 8.15159 12.1487 8.15036C12.1487 8.14912 12.1484 8.14791 12.1478 8.14679C12.1472 8.14568 12.1464 8.14469 12.1455 8.14387C12.1445 8.14306 12.1434 8.14245 12.1422 8.14207C12.0589 8.11855 11.9763 8.11158 11.8945 8.12115L11.9465 7.91972L12.1687 7.93285C12.1777 7.93341 12.1867 7.93131 12.1945 7.92682C12.2023 7.92233 12.2086 7.91565 12.2126 7.90762C12.246 7.84048 12.2788 7.77648 12.3108 7.71563C12.3784 7.58743 12.5135 7.50517 12.649 7.44795C12.7135 7.42073 12.7864 7.40426 12.8676 7.39851C12.9641 7.39181 13.0424 7.39079 13.1026 7.39544C13.1287 7.39749 13.1544 7.40173 13.1797 7.40815C13.1942 7.41184 13.2018 7.40692 13.2025 7.39338Z" fill="#FFA16A"/>
<path d="M14.9746 8.8558L15.4001 8.85498C15.4071 8.85485 15.4113 8.85819 15.4128 8.865C15.4212 8.90113 15.4255 8.93793 15.4255 8.97542C15.4246 11.4488 15.4234 13.991 15.4208 16.5709C15.4206 16.717 15.4109 16.824 15.3915 16.8919C15.3446 17.0566 15.2335 17.198 15.058 17.3162C15.0501 17.3215 15.0462 17.3194 15.0462 17.3098L15.0445 16.6793L15.0474 16.8379C15.0479 16.8704 15.0597 16.8751 15.0828 16.8522L15.1204 16.815C15.1403 16.7954 15.1526 16.7693 15.1552 16.7414C15.1579 16.712 15.159 16.6757 15.1586 16.6324C15.1541 16.1536 15.1555 15.6902 15.1627 15.2423C15.1698 14.8145 15.1697 14.0427 15.1623 12.9267C15.1614 12.7866 15.1611 12.6503 15.1615 12.5178C15.1629 12.1591 15.1634 11.7485 15.1631 11.2859C15.1626 10.4826 15.1631 9.6845 15.1648 8.89158C15.1648 8.87086 15.1545 8.8603 15.1339 8.85989L14.9746 8.8558Z" fill="#E7FFE8"/>
<path d="M14.6947 17.0139L14.6916 17.3232C14.6916 17.3322 14.6879 17.3409 14.6815 17.3472C14.6751 17.3536 14.6665 17.3572 14.6575 17.3572L7.36703 17.3596C7.36056 17.3596 7.35414 17.3583 7.34817 17.3558C7.3422 17.3533 7.33679 17.3496 7.33226 17.345C7.32772 17.3404 7.32416 17.3349 7.32178 17.3289C7.31939 17.3228 7.31823 17.3164 7.31837 17.3099L7.32389 17.003C7.60292 16.9989 7.88195 16.9952 8.16097 16.9918C8.29142 16.9901 8.42773 16.9898 8.5699 16.9908C9.04631 16.9942 9.49436 16.9957 9.91406 16.9955C11.4233 16.9944 12.9301 16.9948 14.4346 16.9967C14.4848 16.9968 14.5488 17.0003 14.6268 17.0071C14.6483 17.009 14.671 17.0113 14.6947 17.0139Z" fill="#FFA16A"/>
<path d="M10.3378 4.75391L10.3345 5.14055L10.172 5.13953L10.1699 4.75554L10.3378 4.75391Z" fill="#74C8E1"/>
<path d="M10.4668 4.75342L10.6308 4.75383L10.6332 5.14068L10.4674 5.13945L10.4668 4.75342Z" fill="#74C8E1"/>
<path d="M10.7627 4.75334L10.9347 4.75293L10.9326 5.1408L10.767 5.14039L10.7627 4.75334Z" fill="#74C8E1"/>
<path d="M11.0615 4.75293L11.2437 4.75334L11.2435 5.12444C11.2435 5.12932 11.2454 5.134 11.2489 5.13746C11.2523 5.14091 11.257 5.14285 11.2619 5.14285H11.356L11.0619 5.14203L11.0615 4.75293Z" fill="#74C8E1"/>
<path d="M11.5215 4.75342L11.6757 4.75464L11.6728 5.11348C11.6727 5.12984 11.6644 5.13802 11.6481 5.13802H11.58C11.5534 5.13802 11.5401 5.12473 11.5399 5.09815L11.5381 4.80167C11.5379 4.7939 11.5358 4.78668 11.5317 4.78C11.527 4.77182 11.5208 4.7678 11.5131 4.76793C11.5016 4.76807 11.5009 4.76535 11.5111 4.75976C11.5146 4.75785 11.5181 4.75574 11.5215 4.75342Z" fill="#74C8E1"/>
<path d="M11.791 4.75798C11.8798 4.7543 11.9566 4.81155 11.9566 4.90213C11.9565 4.99032 11.9561 5.06781 11.9554 5.13461C11.9554 5.13706 11.9543 5.1394 11.9526 5.14112C11.9508 5.14284 11.9485 5.14381 11.946 5.14381L11.8368 5.14422C11.8342 5.02767 11.8335 4.91058 11.8346 4.79294C11.8347 4.77877 11.8202 4.76711 11.791 4.75798Z" fill="#74C8E1"/>
<path d="M10.4603 5.49756L10.759 5.50001L10.7461 5.74966C10.745 5.76848 10.7539 5.77781 10.7727 5.77768L11.3364 5.77563C11.3489 5.77563 11.3552 5.76936 11.3552 5.75682L11.3546 5.50103L11.7322 5.50594C11.7391 5.50608 11.7425 5.50955 11.7427 5.51637L11.7494 5.77502C11.6334 5.78361 11.5117 5.78204 11.3842 5.77032C11.3811 5.77002 11.3779 5.77043 11.3749 5.77153C11.3719 5.77262 11.3692 5.77437 11.367 5.77665C11.3648 5.77892 11.3631 5.78167 11.3621 5.78467C11.3611 5.78768 11.3608 5.79088 11.3611 5.79403C11.3669 5.84297 11.3774 5.88959 11.3928 5.93389C11.4092 5.98051 11.4317 6.02426 11.445 6.0719C11.4234 6.07545 11.3863 6.07626 11.3337 6.07436C11.2042 6.06972 11.0159 6.06965 10.7688 6.07415C10.7549 6.07442 10.7437 6.07545 10.7353 6.07722C10.726 6.07926 10.7184 6.08635 10.7126 6.09848C10.629 6.27064 10.5294 6.43278 10.4138 6.58491C10.3509 6.53352 10.2849 6.49331 10.2159 6.46427C10.2143 6.46358 10.2129 6.46253 10.2117 6.4612C10.2106 6.45986 10.2098 6.45829 10.2093 6.45659C10.2089 6.45489 10.2089 6.45311 10.2092 6.4514C10.2096 6.44968 10.2103 6.44807 10.2114 6.44669C10.2793 6.36122 10.341 6.25647 10.3965 6.13242C10.429 6.05977 10.4504 5.96653 10.4607 5.85272C10.4712 5.7359 10.471 5.61751 10.4603 5.49756Z" fill="#74C8E1"/>
<path d="M10.3246 6.82668C10.3298 6.82491 10.3341 6.8243 10.3375 6.82484C10.3455 6.82607 10.3474 6.83016 10.3432 6.83711C10.2865 6.93144 10.2443 7.03217 10.2166 7.13931C10.1789 7.28544 10.1557 7.40914 10.1471 7.51042C10.1449 7.53686 10.1644 7.54634 10.2054 7.53884H9.84961C9.8631 7.4501 9.87469 7.36075 9.88437 7.27078C9.90468 7.07954 9.96322 6.90568 10.06 6.74919C10.0618 6.74627 10.0642 6.74374 10.067 6.74178C10.0698 6.73982 10.073 6.73846 10.0764 6.73779C10.0798 6.73711 10.0832 6.73715 10.0866 6.73788C10.09 6.73861 10.0932 6.74002 10.096 6.74204C10.1312 6.76719 10.162 6.80031 10.2007 6.8136C10.2401 6.82737 10.2814 6.83173 10.3246 6.82668Z" fill="#74C8E1"/>
<path d="M11.3418 7.88037L11.6099 7.88487C11.6168 7.88501 11.6191 7.88828 11.6166 7.89468C11.5801 7.99146 11.5535 8.08995 11.5369 8.19014L11.3721 8.17664C11.3686 8.12989 11.3714 8.07707 11.3804 8.01818C11.393 7.93599 11.3801 7.89005 11.3418 7.88037Z" fill="#74C8E1"/>
<path d="M11.3714 8.17676C11.3622 8.18821 11.3553 8.1968 11.3546 8.21254C11.3516 8.3115 11.3568 8.41026 11.37 8.50881L9.8418 8.51188L9.84323 8.21254C9.84336 8.19496 9.85216 8.1861 9.8696 8.18596L11.3714 8.17676Z" fill="#74C8E1"/>
<path d="M11.3715 4.75342L11.5214 4.75403C11.518 4.75635 11.5145 4.75846 11.511 4.76037C11.5008 4.76596 11.5015 4.76868 11.513 4.76855C11.5207 4.76841 11.5269 4.77243 11.5316 4.78061C11.5357 4.78729 11.5378 4.79452 11.538 4.80229L11.5398 5.09876C11.54 5.12534 11.5533 5.13863 11.5799 5.13863H11.648C11.6643 5.13863 11.6726 5.13045 11.6727 5.1141L11.6756 4.75526L11.7907 4.75833C11.8199 4.76746 11.8344 4.77911 11.8343 4.79329C11.8332 4.91092 11.8339 5.02802 11.8365 5.14456L11.3701 5.14211L11.3715 4.75342Z" fill="#4AA9C7"/>
<path d="M13.3171 7.03039C13.3754 6.85468 13.4087 6.72003 13.417 6.62644C13.4228 6.56 13.4154 6.50061 13.3947 6.44829C13.2975 6.20054 13.1699 5.96272 13.0122 5.73484C13.0106 5.73254 13.0083 5.73076 13.0056 5.72976C13.0029 5.72876 12.9999 5.72859 12.9971 5.72926C12.9942 5.72993 12.9917 5.73142 12.9898 5.73351C12.9879 5.73561 12.9868 5.7382 12.9866 5.74092L12.9844 5.76568L12.9814 5.68028C12.9814 5.67839 12.982 5.67653 12.983 5.67493C12.9841 5.67333 12.9857 5.67206 12.9875 5.67128C12.9893 5.67049 12.9914 5.67023 12.9934 5.67053C12.9954 5.67082 12.9972 5.67166 12.9987 5.67293C13.0445 5.71322 13.0868 5.7596 13.1256 5.81206C13.2752 6.01448 13.4064 6.21425 13.5191 6.41136C13.5336 6.43668 13.5381 6.4648 13.5326 6.49572C13.4965 6.70206 13.4574 6.89686 13.4154 7.08012C13.4152 7.08105 13.4147 7.08192 13.414 7.08264C13.4134 7.08337 13.4125 7.08393 13.4116 7.08428C13.4106 7.08464 13.4096 7.08476 13.4086 7.08466C13.4076 7.08456 13.4066 7.08422 13.4057 7.08369L13.3171 7.03039Z" fill="#4AA9C7"/>
<path d="M11.7488 5.7753C11.7551 5.93847 11.809 6.094 11.9107 6.24189C11.9717 6.33063 12.0333 6.4206 12.0958 6.51179C12.1935 6.65492 12.2624 6.80847 12.2992 6.97409C12.3015 6.98404 12.2983 6.9916 12.2896 6.99678C12.1751 7.06603 12.0707 7.14788 11.9764 7.24234C11.9517 7.05737 11.9021 6.8814 11.8275 6.71442C11.7959 6.64367 11.7337 6.53571 11.641 6.39054C11.5738 6.28517 11.5083 6.17906 11.4443 6.07219C11.431 6.02455 11.4086 5.98079 11.3922 5.93417C11.3768 5.88987 11.3662 5.84325 11.3605 5.79432C11.3601 5.79117 11.3605 5.78797 11.3615 5.78496C11.3625 5.78195 11.3642 5.77921 11.3664 5.77693C11.3686 5.77466 11.3713 5.77291 11.3743 5.77181C11.3773 5.77072 11.3804 5.7703 11.3836 5.7706C11.5111 5.78232 11.6328 5.78389 11.7488 5.7753Z" fill="#4AA9C7"/>
<path d="M14.738 8.35948C14.8448 8.17191 14.9958 7.93461 15.1911 7.64757C15.2888 7.50391 15.3908 7.32736 15.4971 7.11791C15.4975 7.11691 15.5335 7.05198 15.6052 6.92309C15.6478 6.84665 15.6835 6.76409 15.7123 6.67542L15.8369 6.59762C15.851 6.58881 15.8545 6.59201 15.8474 6.60721C15.7635 6.78668 15.6794 6.97006 15.5952 7.15734C15.5385 7.28374 15.4907 7.41908 15.4307 7.54292C15.4 7.60601 15.3713 7.67031 15.3445 7.73582C15.3093 7.82235 15.2613 7.90292 15.2242 7.98903C15.1424 8.17859 15.058 8.36076 14.9709 8.53554C14.9672 8.54303 14.9614 8.54933 14.9542 8.55373C14.9471 8.55814 14.9388 8.56047 14.9304 8.56047L14.7369 8.56026C14.7351 8.56027 14.7333 8.55989 14.7316 8.55916C14.7299 8.55843 14.7284 8.55736 14.7272 8.55602C14.7259 8.55468 14.725 8.55309 14.7244 8.55137C14.7238 8.54964 14.7235 8.5478 14.7237 8.54598L14.738 8.35948Z" fill="#4AA9C7"/>
<path d="M11.3711 8.17725L11.5359 8.19074L11.4932 8.49805C11.4922 8.5046 11.4884 8.50794 11.4817 8.50807L11.3697 8.5093C11.3565 8.41075 11.3513 8.31199 11.3543 8.21303C11.355 8.19728 11.3619 8.1887 11.3711 8.17725Z" fill="#4AA9C7"/>
<path fill-rule="evenodd" clip-rule="evenodd" d="M16.1366 6.05379C15.9066 6.15575 15.6693 6.29213 15.4244 6.46293C15.4168 6.46824 15.4135 6.46627 15.4146 6.457C15.4595 6.05461 15.4761 5.645 15.4645 5.22816C15.4559 4.92555 15.2848 4.58041 14.994 4.46693C14.8352 4.40498 14.6696 4.40212 14.516 4.4743C14.2402 4.60393 14.1081 4.86687 13.9952 5.13615C13.872 5.43031 13.7711 5.72297 13.6926 6.01413C13.6874 6.03335 13.6799 6.03423 13.6701 6.01678C13.5549 5.81218 13.4159 5.6253 13.253 5.45614C13.1628 5.3625 13.0663 5.26578 12.9635 5.166C12.8819 5.08708 12.756 5.02022 12.6764 5.14556C12.6615 5.16907 12.658 5.20301 12.6584 5.23041C12.6654 5.78097 12.7031 6.3275 12.7715 6.87002C12.7737 6.88733 12.7661 6.89626 12.7488 6.89681L12.6605 6.89987C12.6419 6.90055 12.6304 6.89197 12.6257 6.87411C12.5734 6.67523 12.4914 6.49353 12.3799 6.329C12.3242 6.24681 12.2643 6.16093 12.2004 6.07138C12.0741 5.89431 12.0665 5.72603 12.0735 5.51871C12.0736 5.51455 12.0751 5.51056 12.0777 5.50734C12.0785 5.50634 12.0794 5.50543 12.0804 5.50462C12.0826 5.50284 12.0852 5.50157 12.088 5.50092C12.2237 5.4682 12.2919 5.3824 12.2924 5.2435C12.2928 5.10978 12.2923 4.98621 12.2908 4.8728C12.2877 4.62396 12.0931 4.42706 11.8481 4.40641C11.7948 4.40205 11.7414 4.3998 11.6878 4.39967C11.2275 4.39912 10.7349 4.39946 10.2099 4.40069C10.1443 4.40096 10.0836 4.40846 10.028 4.42318C9.8417 4.47246 9.7039 4.67406 9.69469 4.85971C9.69143 4.92746 9.68966 5.02308 9.68938 5.14658C9.68911 5.2405 9.69886 5.30858 9.71862 5.35084C9.75351 5.4254 9.81138 5.4712 9.89222 5.48824C9.90052 5.49001 9.90523 5.49512 9.90632 5.50358C9.93345 5.73326 9.87968 5.94188 9.74499 6.12945C9.69115 6.20428 9.63834 6.28116 9.58653 6.36008C9.3912 6.6571 9.27881 6.97648 9.24937 7.31821C9.24801 7.33388 9.24378 7.3347 9.2367 7.32066C9.18299 7.21311 9.13031 7.10154 9.07865 6.98595C9.03554 6.88932 8.9913 6.79375 8.94706 6.69815C8.86808 6.52752 8.78906 6.35678 8.71633 6.17974C8.56543 5.8128 8.30263 5.54413 7.92791 5.37374C7.76447 5.29931 7.59115 5.25856 7.40795 5.25147C6.98852 5.23525 6.64053 5.37333 6.36395 5.66572C5.97731 6.07465 5.86138 6.67332 6.08404 7.18878C6.24802 7.56813 6.41336 7.94374 6.58008 8.31559C6.60611 8.37389 6.63496 8.43496 6.66667 8.49879H7.0395C7.03921 8.49826 7.03895 8.49771 7.03869 8.49716C6.93468 8.2687 6.83988 8.05108 6.75428 7.8443C6.70665 7.72942 6.65362 7.61157 6.60003 7.49251C6.52459 7.32486 6.44807 7.1548 6.38399 6.98718C6.30915 6.7915 6.30486 6.58806 6.35475 6.38462C6.43327 6.06456 6.62512 5.83127 6.93033 5.68473C7.11537 5.59579 7.32371 5.58025 7.52491 5.62196C7.54958 5.62428 7.56635 5.62653 7.57521 5.62871C7.88088 5.70559 8.15139 5.87795 8.30474 6.15807C8.33991 6.22214 8.37296 6.28845 8.40391 6.35702C8.47089 6.50528 8.54035 6.65332 8.61001 6.80176C8.68964 6.97144 8.7695 7.14164 8.84616 7.3133C9.00265 7.66362 9.1592 8.00549 9.31582 8.3389C9.33777 8.38566 9.36047 8.43302 9.38391 8.481C9.38856 8.49062 9.38731 8.49655 9.38017 8.49879H9.77794C9.73274 8.39751 9.68871 8.29507 9.64583 8.19148C9.60153 8.11038 9.56378 8.02 9.53256 7.92036C9.52315 7.89024 9.53419 7.87545 9.56568 7.87599L9.68489 7.87783L11.3269 7.8809L11.595 7.8854C11.602 7.88553 11.6042 7.8888 11.6017 7.89521C11.5652 7.99199 11.5386 8.09048 11.522 8.19066L11.4793 8.49798C11.4792 8.49825 11.4792 8.49853 11.4791 8.49879H11.8447L11.9105 8.11338L11.9618 7.91259C12.0589 7.55968 12.3102 7.28222 12.6811 7.23049C12.8769 7.2031 13.0502 7.25557 13.2011 7.38793C13.2368 7.43823 13.2695 7.49003 13.2992 7.54333C13.3458 7.62648 13.3788 7.67746 13.3982 7.69627C13.4945 7.78909 13.6243 7.78521 13.7521 7.74268C13.7817 7.73287 13.8117 7.72741 13.8421 7.72632C14.2867 7.7092 14.4778 8.11218 14.4022 8.49879H14.7581L14.7716 8.32275C14.7657 8.29521 14.7588 8.24328 14.7507 8.16695C14.7438 8.10029 14.7209 8.01646 14.682 7.91545L14.6328 7.79911C14.6302 7.79284 14.6308 7.78691 14.6348 7.78132C14.7741 7.58504 14.9208 7.40742 15.075 7.24849C15.1688 7.15198 15.2866 7.04041 15.4283 6.91378C15.498 6.84385 15.5903 6.77501 15.7054 6.70727L15.8248 6.63264C15.8383 6.62418 15.8416 6.62725 15.8348 6.64184C15.7544 6.814 15.6738 6.98991 15.5931 7.16956C15.5698 7.22146 15.5481 7.27492 15.5264 7.32843C15.4974 7.39993 15.4683 7.47149 15.4355 7.53944C15.406 7.59996 15.3785 7.66164 15.3529 7.72448C15.3348 7.769 15.3132 7.81187 15.2915 7.85479C15.2728 7.89192 15.2541 7.92908 15.2376 7.96739C15.1592 8.14923 15.0783 8.32398 14.9949 8.49164C14.9936 8.49417 14.9921 8.49657 14.9903 8.49879H15.3826C15.4586 8.33057 15.5408 8.15241 15.6291 7.96432C15.75 7.70698 15.8625 7.44513 15.9751 7.18312C16.0123 7.09644 16.0495 7.00974 16.0871 6.92318C16.1301 6.824 16.1705 6.7233 16.211 6.62245C16.2569 6.50833 16.3028 6.39403 16.3525 6.28157C16.3614 6.26156 16.3677 6.23909 16.3738 6.21732C16.3756 6.21105 16.3773 6.20484 16.3791 6.19876C16.4304 6.02619 16.2499 6.00349 16.1366 6.05379ZM8.69495 8.49879C8.69488 8.49813 8.69488 8.49747 8.69494 8.49682C8.695 8.49624 8.69511 8.49567 8.69527 8.49511C8.69684 8.48974 8.69848 8.48433 8.70014 8.47887C8.70991 8.44672 8.72009 8.41321 8.71817 8.38C8.71422 8.31716 8.68675 8.27238 8.63577 8.24567C8.54703 8.19932 8.45966 8.20804 8.37365 8.27184C8.27597 8.34424 8.17384 8.41989 8.06724 8.49879H8.69495ZM10.0261 4.89877C10.0264 4.81207 10.0695 4.76436 10.1554 4.75564L10.3232 4.75401L10.4526 4.7536L10.6166 4.75401L10.7479 4.75339L10.9199 4.75298H11.0468L11.229 4.75339L11.3572 4.75319L11.5071 4.7538L11.6612 4.75503L11.7764 4.75809C11.8651 4.75441 11.942 4.81166 11.942 4.90224C11.9418 4.99043 11.9414 5.06793 11.9408 5.13472C11.9407 5.13718 11.9397 5.13952 11.9379 5.14124C11.9362 5.14296 11.9338 5.14392 11.9313 5.14392L11.8222 5.14433L11.3558 5.14188C11.3509 5.14228 11.346 5.14263 11.3413 5.1429L11.0472 5.14208L10.9178 5.14085L10.7522 5.14044L10.6191 5.14085L10.4533 5.13963L10.32 5.14065L10.1574 5.13963L10.0404 5.14004C10.0364 5.14004 10.0326 5.13844 10.0297 5.1356C10.0283 5.13416 10.0272 5.13246 10.0264 5.1306C10.0257 5.12881 10.0253 5.12688 10.0253 5.12491C10.0257 5.04912 10.026 4.97374 10.0261 4.89877ZM14.3203 7.48464C14.1866 7.40504 14.0424 7.36667 13.8877 7.36953L13.7045 7.40081C13.7026 7.40111 13.7007 7.40093 13.6989 7.40031C13.6971 7.39968 13.6955 7.39862 13.6942 7.39722C13.693 7.39582 13.6921 7.39413 13.6916 7.3923C13.6911 7.39046 13.6911 7.38854 13.6916 7.38671C13.7497 7.15893 13.8024 6.93259 13.8498 6.70767C13.883 6.55051 13.9447 6.33425 14.0349 6.05891C14.0507 6.01051 14.065 5.96008 14.0778 5.9076C14.123 5.72436 14.1928 5.54654 14.266 5.36003L14.2682 5.35452C14.3144 5.23688 14.3646 5.12538 14.4187 5.02001C14.4917 4.87791 14.6491 4.72518 14.8204 4.77077C14.8319 4.77213 14.8378 4.77636 14.838 4.78345C14.8395 4.78263 14.841 4.78174 14.8425 4.78079C14.8436 4.78024 14.8447 4.78031 14.8458 4.78099C14.9857 4.86258 15.0658 5.00591 15.0985 5.166C15.1077 5.21099 15.1126 5.2773 15.1134 5.36495C15.1156 5.62462 15.1094 5.89554 15.0946 6.1777C15.0897 6.26944 15.0813 6.36438 15.0695 6.46252C15.0578 6.55985 15.0482 6.65574 15.0407 6.7502C15.0386 6.77433 15.0368 6.79437 15.018 6.81175C14.7808 7.02957 14.5754 7.26648 14.4017 7.52247C14.4 7.52495 14.3975 7.52667 14.3945 7.52728C14.3916 7.52789 14.3885 7.52734 14.386 7.52574L14.3203 7.48464ZM10.1913 7.53903H9.83558L9.58653 7.54067C9.57781 7.54067 9.57358 7.53624 9.57385 7.52738C9.58831 7.10768 9.71494 6.73098 9.95376 6.39729C10.0869 6.21144 10.2296 6.00288 10.2371 5.76631C10.2399 5.67935 10.241 5.59313 10.2406 5.50767C10.2406 5.50667 10.2407 5.50568 10.241 5.50473C10.2411 5.50446 10.2412 5.50419 10.2413 5.50393C10.2418 5.50274 10.2425 5.50165 10.2434 5.50074C10.2443 5.49982 10.2453 5.4991 10.2465 5.4986C10.2477 5.49811 10.249 5.49785 10.2502 5.49785L10.4457 5.49765L10.7444 5.5001L11.34 5.50112L11.7177 5.50603C11.7245 5.50617 11.728 5.50964 11.7281 5.51646L11.7349 5.77511C11.7411 5.93827 11.7951 6.0938 11.8968 6.2417C11.9577 6.33043 12.0194 6.4204 12.0818 6.51159C12.1796 6.65472 12.2485 6.80827 12.2853 6.97389C12.2876 6.98384 12.2844 6.9914 12.2757 6.99658C12.1612 7.06583 12.0567 7.14768 11.9624 7.24215C11.8742 7.3283 11.803 7.42439 11.7488 7.53044C11.7444 7.5389 11.7375 7.54312 11.7281 7.54312L10.1913 7.53903ZM13.1305 6.92543L13.0154 5.80475L13.0128 5.72154C13.0127 5.7197 13.0132 5.71788 13.0142 5.71632C13.0152 5.71476 13.0166 5.71353 13.0183 5.71276C13.02 5.712 13.0218 5.71175 13.0236 5.71204C13.0255 5.71232 13.0271 5.71314 13.0285 5.71438C13.0702 5.75364 13.1087 5.79882 13.144 5.84994C13.2803 6.04718 13.3998 6.24183 13.5025 6.43389C13.5157 6.45857 13.5198 6.48597 13.5147 6.51609C13.4819 6.71715 13.4463 6.90696 13.408 7.08553C13.4079 7.08594 13.4078 7.08634 13.4076 7.08673C13.4074 7.08718 13.4071 7.0876 13.4068 7.08799C13.4062 7.08869 13.4054 7.08924 13.4045 7.08959C13.4036 7.08993 13.4027 7.09005 13.4018 7.08995C13.4009 7.08985 13.4 7.08953 13.3992 7.089L13.3184 7.03707L13.141 6.94097C13.1347 6.9377 13.1312 6.93252 13.1305 6.92543Z" fill="#003550"/>
<path fill-rule="evenodd" clip-rule="evenodd" d="M6.6892 8.52002H14.806C15.2588 8.52002 15.6258 8.88709 15.6258 9.33989V16.2883C15.6258 16.7411 15.2588 17.1082 14.806 17.1082H7.03765C6.58484 17.1082 6.21777 16.7411 6.21777 16.2883V8.99145C6.21777 8.73109 6.42884 8.52002 6.6892 8.52002ZM6.6892 8.95045C6.66656 8.95045 6.64821 8.96881 6.64821 8.99145V16.2883C6.64821 16.5034 6.82257 16.6778 7.03765 16.6778H14.806C15.0211 16.6778 15.1954 16.5034 15.1954 16.2883V9.33989C15.1954 9.12481 15.0211 8.95045 14.806 8.95045H6.6892Z" fill="#48BFAA"/>
<path fill-rule="evenodd" clip-rule="evenodd" d="M6.6687 8.95044V16.7803C6.6687 16.8708 6.74212 16.9442 6.83268 16.9442H15.2364C15.327 16.9442 15.4004 16.8708 15.4004 16.7803V8.95044H6.6687ZM6.52523 8.49951C6.35542 8.49951 6.21777 8.63716 6.21777 8.80697V16.7803C6.21777 17.1199 6.49308 17.3952 6.83268 17.3952H15.2364C15.576 17.3952 15.8513 17.1199 15.8513 16.7803V8.80696C15.8513 8.63716 15.7137 8.49951 15.5439 8.49951H6.52523Z" fill="#003550"/>
<path fill-rule="evenodd" clip-rule="evenodd" d="M14.8466 17.395C14.722 17.395 14.6211 17.2941 14.6211 17.1696L14.6211 14.3C14.6211 14.1755 14.722 14.0745 14.8466 14.0745C14.9711 14.0745 15.072 14.1755 15.072 14.3L15.072 17.1696C15.072 17.2941 14.9711 17.395 14.8466 17.395Z" fill="#003550"/>
<path d="M7.32501 12.8959C7.32501 12.9921 7.24701 13.0701 7.15079 13.0701C7.05457 13.0701 6.97656 12.9921 6.97656 12.8959C6.97656 12.7997 7.05457 12.7217 7.15079 12.7217C7.24701 12.7217 7.32501 12.7997 7.32501 12.8959Z" fill="#003550"/>
<path d="M14.761 13.8692C14.6707 13.7792 14.6683 13.6928 14.7536 13.6099C14.8576 13.5621 14.9306 13.5844 14.9726 13.6768C14.9909 13.7173 14.9916 13.7563 14.9748 13.7939C14.9372 13.8784 14.8456 13.9066 14.761 13.8692Z" fill="#003550"/>
<path fill-rule="evenodd" clip-rule="evenodd" d="M7.16101 17.395C7.03649 17.395 6.93555 17.2941 6.93555 17.1696L6.93555 13.4801C6.93555 13.3556 7.03649 13.2546 7.16101 13.2546C7.28553 13.2546 7.38648 13.3556 7.38648 13.4801L7.38648 17.1696C7.38648 17.2941 7.28553 17.395 7.16101 17.395Z" fill="#003550"/>
</svg>
