<svg width="22" height="22" viewBox="0 0 22 22" fill="none" xmlns="http://www.w3.org/2000/svg">
<circle cx="11" cy="11" r="11" fill="#E7FEFF"/>
<path d="M5.96191 6.57787C5.96191 5.82455 6.5726 5.21387 7.32591 5.21387H14.7179C15.4712 5.21387 16.0819 5.82455 16.0819 6.57787V16.4119C16.0819 17.1652 15.4712 17.7759 14.7179 17.7759H7.32591C6.5726 17.7759 5.96191 17.1652 5.96191 16.4119V6.57787Z" fill="white"/>
<path fill-rule="evenodd" clip-rule="evenodd" d="M14.7184 5.69787H7.32643C6.82827 5.69787 6.42443 6.10171 6.42443 6.59987V16.3239C6.42443 16.6762 6.71007 16.9619 7.06243 16.9619H14.7184C15.0708 16.9619 15.3564 16.6762 15.3564 16.3239V6.33587C15.3564 5.98351 15.0708 5.69787 14.7184 5.69787ZM7.32643 5.21387C6.56096 5.21387 5.94043 5.8344 5.94043 6.59987V16.3239C5.94043 16.9435 6.44277 17.4459 7.06243 17.4459H14.7184C15.3381 17.4459 15.8404 16.9435 15.8404 16.3239V6.33587C15.8404 5.7162 15.3381 5.21387 14.7184 5.21387H7.32643Z" fill="#47C3C9"/>
<path fill-rule="evenodd" clip-rule="evenodd" d="M14.7179 5.69787H7.32591C6.8399 5.69787 6.44591 6.09186 6.44591 6.57787V16.4119C6.44591 16.8979 6.8399 17.2919 7.32591 17.2919H14.7179C15.2039 17.2919 15.5979 16.8979 15.5979 16.4119V6.57787C15.5979 6.09186 15.2039 5.69787 14.7179 5.69787ZM7.32591 5.21387C6.5726 5.21387 5.96191 5.82455 5.96191 6.57787V16.4119C5.96191 17.1652 6.5726 17.7759 7.32591 17.7759H14.7179C15.4712 17.7759 16.0819 17.1652 16.0819 16.4119V6.57787C16.0819 5.82455 15.4712 5.21387 14.7179 5.21387H7.32591Z" fill="#003550"/>
<path d="M7.56836 9.83391C7.56836 9.65165 7.71611 9.50391 7.89836 9.50391H9.08636C9.26861 9.50391 9.41636 9.65165 9.41636 9.83391V11.0219C9.41636 11.2042 9.26861 11.3519 9.08636 11.3519H7.89836C7.71611 11.3519 7.56836 11.2042 7.56836 11.0219V9.83391Z" fill="#E7FEFF"/>
<path d="M8.04297 10.8804L8.96697 9.95637L9.02082 10.0102C9.2356 10.225 9.2356 10.5732 9.02082 10.788L8.87463 10.9342C8.65984 11.149 8.3116 11.149 8.09682 10.9342L8.04297 10.8804Z" fill="#47C3C9"/>
<path fill-rule="evenodd" clip-rule="evenodd" d="M8.05236 9.98791V10.8679H8.93236V9.98791H8.05236ZM7.89836 9.50391C7.71611 9.50391 7.56836 9.65165 7.56836 9.83391V11.0219C7.56836 11.2042 7.71611 11.3519 7.89836 11.3519H9.08636C9.26861 11.3519 9.41636 11.2042 9.41636 11.0219V9.83391C9.41636 9.65165 9.26861 9.50391 9.08636 9.50391H7.89836Z" fill="#003550"/>
<path fill-rule="evenodd" clip-rule="evenodd" d="M10.0322 10.494C10.0322 10.3603 10.1406 10.252 10.2742 10.252H14.2562C14.3899 10.252 14.4982 10.3603 14.4982 10.494C14.4982 10.6276 14.3899 10.736 14.2562 10.736H10.2742C10.1406 10.736 10.0322 10.6276 10.0322 10.494Z" fill="#003550"/>
<path d="M7.56836 12.2758C7.56836 12.0935 7.71611 11.9458 7.89836 11.9458H9.08636C9.26861 11.9458 9.41636 12.0935 9.41636 12.2758V13.4638C9.41636 13.6461 9.26861 13.7938 9.08636 13.7938H7.89836C7.71611 13.7938 7.56836 13.6461 7.56836 13.4638V12.2758Z" fill="#E7FEFF"/>
<path d="M8.04297 13.3223L8.96697 12.3983L9.02082 12.4521C9.2356 12.6669 9.2356 13.0151 9.02082 13.2299L8.87463 13.3761C8.65984 13.5909 8.3116 13.5909 8.09682 13.3761L8.04297 13.3223Z" fill="#47C3C9"/>
<path fill-rule="evenodd" clip-rule="evenodd" d="M8.05236 12.4298V13.3098H8.93236V12.4298H8.05236ZM7.89836 11.9458C7.71611 11.9458 7.56836 12.0935 7.56836 12.2758V13.4638C7.56836 13.6461 7.71611 13.7938 7.89836 13.7938H9.08636C9.26861 13.7938 9.41636 13.6461 9.41636 13.4638V12.2758C9.41636 12.0935 9.26861 11.9458 9.08636 11.9458H7.89836Z" fill="#003550"/>
<path fill-rule="evenodd" clip-rule="evenodd" d="M10.0322 12.9358C10.0322 12.8022 10.1406 12.6938 10.2742 12.6938H14.2562C14.3899 12.6938 14.4982 12.8022 14.4982 12.9358C14.4982 13.0695 14.3899 13.1778 14.2562 13.1778H10.2742C10.1406 13.1778 10.0322 13.0695 10.0322 12.9358Z" fill="#003550"/>
<path d="M7.56836 14.498C7.56836 14.3157 7.71611 14.168 7.89836 14.168H9.08636C9.26861 14.168 9.41636 14.3157 9.41636 14.498V15.686C9.41636 15.8682 9.26861 16.016 9.08636 16.016H7.89836C7.71611 16.016 7.56836 15.8682 7.56836 15.686V14.498Z" fill="#E7FEFF"/>
<path d="M8.04297 15.5444L8.96697 14.6204L9.02082 14.6743C9.2356 14.8891 9.2356 15.2373 9.02082 15.4521L8.87463 15.5983C8.65984 15.8131 8.3116 15.8131 8.09682 15.5983L8.04297 15.5444Z" fill="#47C3C9"/>
<path fill-rule="evenodd" clip-rule="evenodd" d="M8.05236 14.652V15.532H8.93236V14.652H8.05236ZM7.89836 14.168C7.71611 14.168 7.56836 14.3157 7.56836 14.498V15.686C7.56836 15.8682 7.71611 16.016 7.89836 16.016H9.08636C9.26861 16.016 9.41636 15.8682 9.41636 15.686V14.498C9.41636 14.3157 9.26861 14.168 9.08636 14.168H7.89836Z" fill="#003550"/>
<path fill-rule="evenodd" clip-rule="evenodd" d="M10.0322 15.158C10.0322 15.0244 10.1406 14.916 10.2742 14.916H14.2562C14.3899 14.916 14.4982 15.0244 14.4982 15.158C14.4982 15.2917 14.3899 15.4 14.2562 15.4H10.2742C10.1406 15.4 10.0322 15.2917 10.0322 15.158Z" fill="#003550"/>
<path fill-rule="evenodd" clip-rule="evenodd" d="M6.00684 17.9959C6.00684 17.8623 6.11518 17.7539 6.24884 17.7539L15.8188 17.7539C15.9525 17.7539 16.0608 17.8623 16.0608 17.9959C16.0608 18.1296 15.9525 18.2379 15.8188 18.2379L6.24884 18.2379C6.11518 18.2379 6.00684 18.1296 6.00684 17.9959Z" fill="#003550"/>
<path d="M13.2443 6.23691C13.2443 7.47016 12.2446 8.46991 11.0113 8.46991C9.77807 8.46991 8.77832 7.47016 8.77832 6.23691C8.77832 5.00365 9.77807 4.00391 11.0113 4.00391C12.2446 4.00391 13.2443 5.00365 13.2443 6.23691Z" fill="#E7FEFF"/>
<path fill-rule="evenodd" clip-rule="evenodd" d="M11.0113 7.98591C11.9773 7.98591 12.7603 7.20285 12.7603 6.23691C12.7603 5.27096 11.9773 4.48791 11.0113 4.48791C10.0454 4.48791 9.26232 5.27096 9.26232 6.23691C9.26232 7.20285 10.0454 7.98591 11.0113 7.98591ZM11.0113 8.46991C12.2446 8.46991 13.2443 7.47016 13.2443 6.23691C13.2443 5.00365 12.2446 4.00391 11.0113 4.00391C9.77807 4.00391 8.77832 5.00365 8.77832 6.23691C8.77832 7.47016 9.77807 8.46991 11.0113 8.46991Z" fill="#003550"/>
<path d="M10.5449 7.36182L12.253 5.88398L13.0963 6.8586L11.3881 8.33644L10.5449 7.36182Z" fill="#47C3C9"/>
<path fill-rule="evenodd" clip-rule="evenodd" d="M11.0113 7.98591C11.9773 7.98591 12.7603 7.20285 12.7603 6.23691C12.7603 5.27096 11.9773 4.48791 11.0113 4.48791C10.0454 4.48791 9.26232 5.27096 9.26232 6.23691C9.26232 7.20285 10.0454 7.98591 11.0113 7.98591ZM11.0113 8.46991C12.2446 8.46991 13.2443 7.47016 13.2443 6.23691C13.2443 5.00365 12.2446 4.00391 11.0113 4.00391C9.77807 4.00391 8.77832 5.00365 8.77832 6.23691C8.77832 7.47016 9.77807 8.46991 11.0113 8.46991Z" fill="#003550"/>
<path fill-rule="evenodd" clip-rule="evenodd" d="M11.0117 4.86182C10.7023 4.86182 10.4515 5.11262 10.4515 5.422V5.67663H10.1969C9.88752 5.67663 9.63672 5.92743 9.63672 6.23682C9.63672 6.5462 9.88752 6.797 10.1969 6.797H10.4515V7.05163C10.4515 7.36101 10.7023 7.61182 11.0117 7.61182C11.3211 7.61182 11.5719 7.36101 11.5719 7.05163V6.797H11.8265C12.1359 6.797 12.3867 6.5462 12.3867 6.23682C12.3867 5.92743 12.1359 5.67663 11.8265 5.67663H11.5719V5.422C11.5719 5.11262 11.3211 4.86182 11.0117 4.86182Z" fill="white"/>
<path fill-rule="evenodd" clip-rule="evenodd" d="M10.7768 6.0019H10.1969C10.0672 6.0019 9.96199 6.10708 9.96199 6.23682C9.96199 6.36656 10.0672 6.47173 10.1969 6.47173H10.7768V7.05163C10.7768 7.18137 10.882 7.28655 11.0117 7.28655C11.1415 7.28655 11.2466 7.18137 11.2466 7.05163V6.47173H11.8265C11.9563 6.47173 12.0615 6.36656 12.0615 6.23682C12.0615 6.10708 11.9563 6.0019 11.8265 6.0019H11.2466V5.422C11.2466 5.29226 11.1415 5.18709 11.0117 5.18709C10.882 5.18709 10.7768 5.29226 10.7768 5.422V6.0019ZM10.4515 5.422C10.4515 5.11262 10.7023 4.86182 11.0117 4.86182C11.3211 4.86182 11.5719 5.11262 11.5719 5.422V5.67663H11.8265C12.1359 5.67663 12.3867 5.92743 12.3867 6.23682C12.3867 6.5462 12.1359 6.797 11.8265 6.797H11.5719V7.05163C11.5719 7.36101 11.3211 7.61182 11.0117 7.61182C10.7023 7.61182 10.4515 7.36101 10.4515 7.05163V6.797H10.1969C9.88752 6.797 9.63672 6.5462 9.63672 6.23682C9.63672 5.92743 9.88752 5.67663 10.1969 5.67663H10.4515V5.422Z" fill="#003550"/>
</svg>
