<svg width="26" height="26" viewBox="0 0 26 26" fill="none" xmlns="http://www.w3.org/2000/svg">
<circle cx="13" cy="13" r="13" fill="#E9F7FF"/>
<path d="M7.09082 14.1819C7.09082 11.9534 7.09082 10.8392 7.78311 10.1469C8.47541 9.45459 9.58964 9.45459 11.8181 9.45459H14.1817C16.4102 9.45459 17.5244 9.45459 18.2167 10.1469C18.909 10.8392 18.909 11.9534 18.909 14.1819C18.909 16.4103 18.909 17.5246 18.2167 18.2168C17.5244 18.9091 16.4102 18.9091 14.1817 18.9091H11.8181C9.58964 18.9091 8.47541 18.9091 7.78311 18.2168C7.09082 17.5246 7.09082 16.4103 7.09082 14.1819Z" stroke="#2E3553" stroke-width="0.5"/>
<path d="M15.364 9.45446C15.364 8.34023 15.364 7.78311 15.0178 7.43697C14.6717 7.09082 14.1146 7.09082 13.0004 7.09082C11.8861 7.09082 11.329 7.09082 10.9829 7.43697C10.6367 7.78311 10.6367 8.34023 10.6367 9.45446" stroke="#2E3553" stroke-width="0.5"/>
<path d="M11.8178 14.7727H9.45419C9.17563 14.7727 9.03635 14.7727 8.94982 14.8592C8.86328 14.9458 8.86328 15.0851 8.86328 15.3636V15.9545C8.86328 16.2331 8.86328 16.3724 8.94982 16.4589C9.03635 16.5454 9.17563 16.5454 9.45419 16.5454H11.8178C12.0964 16.5454 12.2357 16.5454 12.3222 16.4589C12.4087 16.3724 12.4087 16.2331 12.4087 15.9545V15.3636C12.4087 15.0851 12.4087 14.9458 12.3222 14.8592C12.2357 14.7727 12.0964 14.7727 11.8178 14.7727Z" stroke="#2E3553" stroke-width="0.5" stroke-linejoin="round"/>
<path d="M9.4541 9.75V14.7727M9.4541 18.6136V16.8409" stroke="#2E3553" stroke-width="0.5" stroke-linecap="round"/>
<path d="M16.5449 9.75V18.6136" stroke="#2E3553" stroke-width="0.5" stroke-linecap="round"/>
</svg>
