<svg width="26" height="26" viewBox="0 0 26 26" fill="none" xmlns="http://www.w3.org/2000/svg">
<circle cx="13" cy="13" r="13" fill="#E9F7FF"/>
<path d="M7.09088 14.1819C7.09088 11.9534 7.09088 10.8392 7.78317 10.1469C8.47547 9.45459 9.5897 9.45459 11.8182 9.45459H14.1818C16.4102 9.45459 17.5245 9.45459 18.2168 10.1469C18.9091 10.8392 18.9091 11.9534 18.9091 14.1819C18.9091 16.4103 18.9091 17.5246 18.2168 18.2168C17.5245 18.9091 16.4102 18.9091 14.1818 18.9091H11.8182C9.5897 18.9091 8.47547 18.9091 7.78317 18.2168C7.09088 17.5246 7.09088 16.4103 7.09088 14.1819Z" stroke="#2E3553" stroke-width="0.5"/>
<path d="M15.3636 9.45446C15.3636 8.34023 15.3636 7.78311 15.0175 7.43697C14.6713 7.09082 14.1142 7.09082 13 7.09082C11.8858 7.09082 11.3286 7.09082 10.9825 7.43697C10.6364 7.78311 10.6364 8.34023 10.6364 9.45446" stroke="#2E3553" stroke-width="0.5"/>
<path d="M11.8182 14.7727H9.45456C9.176 14.7727 9.03672 14.7727 8.95018 14.8592C8.86365 14.9458 8.86365 15.0851 8.86365 15.3636V15.9545C8.86365 16.2331 8.86365 16.3724 8.95018 16.4589C9.03672 16.5454 9.176 16.5454 9.45456 16.5454H11.8182C12.0968 16.5454 12.236 16.5454 12.3226 16.4589C12.4091 16.3724 12.4091 16.2331 12.4091 15.9545V15.3636C12.4091 15.0851 12.4091 14.9458 12.3226 14.8592C12.236 14.7727 12.0968 14.7727 11.8182 14.7727Z" stroke="#2E3553" stroke-width="0.5" stroke-linejoin="round"/>
<path d="M9.45453 9.75V14.7727M9.45453 18.6136V16.8409" stroke="#2E3553" stroke-width="0.5" stroke-linecap="round"/>
<path d="M16.5455 9.75V18.6136" stroke="#2E3553" stroke-width="0.5" stroke-linecap="round"/>
</svg>
