<svg width="127" height="126" viewBox="0 0 127 126" fill="none" xmlns="http://www.w3.org/2000/svg">
<rect x="0.5" width="126" height="126" rx="63" fill="#F6F8FB"/>
<circle cx="64.334" cy="64.8333" r="6.25" stroke="#CFD3EE" stroke-width="1.5"/>
<path d="M59.7037 81.5H68.963C75.4651 81.5 78.7162 81.5 81.0516 79.9679C82.0626 79.3046 82.9307 78.4524 83.6062 77.4597C85.1667 75.1668 85.1667 71.9748 85.1667 65.5909C85.1667 59.207 85.1667 56.015 83.6062 53.7221C82.9307 52.7295 82.0626 51.8772 81.0516 51.2139C79.5509 50.2294 77.6722 49.8776 74.7958 49.7518C73.4232 49.7518 72.2414 48.7306 71.9722 47.4091C71.5684 45.4268 69.7957 44 67.7368 44H60.9299C58.8709 44 57.0982 45.4269 56.6944 47.4091C56.4253 48.7306 55.2434 49.7518 53.8708 49.7518C50.9944 49.8776 49.1157 50.2294 47.6151 51.2139C46.6041 51.8772 45.736 52.7295 45.0605 53.7221C43.5 56.015 43.5 59.207 43.5 65.5909C43.5 71.9748 43.5 75.1668 45.0605 77.4597C45.736 78.4524 46.6041 79.3046 47.6151 79.9679C49.9505 81.5 53.2016 81.5 59.7037 81.5Z" stroke="#CFD3EE" stroke-width="1.5"/>
<path d="M78.9173 58.5833H76.834" stroke="#CFD3EE" stroke-width="1.5" stroke-linecap="round"/>
</svg>
