<svg width="13" height="12" viewBox="0 0 13 12" fill="none" xmlns="http://www.w3.org/2000/svg">
<path d="M1.66667 6.19242V6.19242C0.732307 6.57815 0.263277 7.6277 0.599196 8.5811L1.01794 9.76956C1.18937 10.2561 1.73378 10.4994 2.21061 10.3026V10.3026C2.65316 10.1199 2.8753 9.62276 2.7162 9.1712L1.66667 6.19242ZM1.66667 6.19242L2.02398 3.97978C2.21946 2.76927 2.95575 1.71375 4.02427 1.11223V1.11223C5.25092 0.421695 6.74908 0.421695 7.97573 1.11223V1.11223C9.04425 1.71375 9.78054 2.76927 9.97602 3.97978L10.3333 6.19242M10.3333 6.19242V6.19242C11.223 6.37605 11.7561 7.29145 11.477 8.15587L11.2208 8.94889C10.9221 9.87375 9.89836 10.3475 9 9.97668V9.97668M10.3333 6.19242L9 9.97668M9 9.97668C9 9.97668 8.2847 10.6415 7.33333 10.6648C6.59084 10.6829 5.82265 10.5738 5.33333 10.2235" stroke="#48BFAA" stroke-linecap="round"/>
</svg>
