<svg width="14" height="13" viewBox="0 0 14 13" fill="none" xmlns="http://www.w3.org/2000/svg">
<path d="M10.1469 2.30856L1.81311 4.87171C0.677639 5.22093 0.750479 6.87221 1.91218 7.11763L3.625 7.65344M10.1469 2.30856L11.0175 1.36893C11.7283 0.601746 13 1.11086 13 2.16259V9.82441C13 10.751 11.9797 11.3038 11.2179 10.7899L10.1469 10.0674M10.1469 2.30856V10.0674M10.1469 10.0674L5.8418 8.32231M5.8418 8.32231V10.5583C5.8418 11.1704 5.34555 11.6667 4.7334 11.6667V11.6667C4.12125 11.6667 3.625 11.1704 3.625 10.5583V7.65344M5.8418 8.32231L3.625 7.65344" stroke="#48BFAA" stroke-linejoin="round"/>
</svg>
