<svg width="14" height="12" viewBox="0 0 14 12" fill="none" xmlns="http://www.w3.org/2000/svg">
<path d="M1 5.8C1 3.53726 1 2.40589 1.70294 1.70294C2.40589 1 3.53726 1 5.8 1H8.2C10.4627 1 11.5941 1 12.2971 1.70294C13 2.40589 13 3.53726 13 5.8C13 8.06274 13 9.19411 12.2971 9.89706C11.5941 10.6 10.4627 10.6 8.2 10.6H5.8C3.53726 10.6 2.40589 10.6 1.70294 9.89706C1 9.19411 1 8.06274 1 5.8Z" stroke="#48BFAA"/>
<path d="M3.40039 3.40002L4.69573 4.47947C5.79771 5.39779 6.3487 5.85695 7.00039 5.85695C7.65208 5.85695 8.20307 5.39779 9.30505 4.47947L10.6004 3.40002" stroke="#48BFAA" stroke-linecap="round"/>
</svg>
