<svg width="12" height="14" viewBox="0 0 12 14" fill="none" xmlns="http://www.w3.org/2000/svg">
<path d="M1 5.8C1 3.53726 1 2.40589 1.70294 1.70294C2.40589 1 3.53726 1 5.8 1C8.06274 1 9.19411 1 9.89706 1.70294C10.6 2.40589 10.6 3.53726 10.6 5.8V8.2C10.6 10.4627 10.6 11.5941 9.89706 12.2971C9.19411 13 8.06274 13 5.8 13C3.53726 13 2.40589 13 1.70294 12.2971C1 11.5941 1 10.4627 1 8.2V5.8Z" stroke="#48BFAA"/>
<path d="M7.6 11.2H4" stroke="#48BFAA" stroke-linecap="round"/>
<path d="M8.64903 1.22644L8.59856 1.30214C8.14492 1.98259 7.9181 2.32283 7.58681 2.5287C7.52093 2.56963 7.45248 2.60627 7.38187 2.63837C7.02681 2.79983 6.61791 2.79983 5.8001 2.79983C4.98229 2.79983 4.57338 2.79983 4.21832 2.63837C4.14772 2.60627 4.07927 2.56963 4.01339 2.5287C3.6821 2.32283 3.45528 1.9826 3.00164 1.30214L2.95117 1.22644" stroke="#48BFAA" stroke-linecap="round"/>
</svg>
