<svg width="13" height="14" viewBox="0 0 13 14" fill="none" xmlns="http://www.w3.org/2000/svg">
<path d="M2.00391 2.63456C3.67563 1.2972 6.35038 0.294154 9.02513 1.63155" stroke="#48BFAA" stroke-linecap="round" stroke-linejoin="round"/>
<path d="M1 5.97795C3.00606 3.63755 7.43637 1.23345 11.699 5.30926" stroke="#48BFAA" stroke-linecap="round" stroke-linejoin="round"/>
<path d="M1.33623 10.6597C0.33326 6.98188 7.27086 1.73654 11.3559 7.85024C11.7746 8.47685 11.8539 9.28875 11.6463 9.82268C11.6013 9.9385 11.5263 10.0407 11.438 10.1281C10.6188 10.9397 9.86294 10.4103 9.36048 9.65662C8.69179 8.65358 8.40437 8.25744 7.68876 7.85024C6.08839 6.9396 4.27152 7.5007 3.67664 8.98793C3.00795 10.6597 3.67664 11.997 5.01401 13.0001" stroke="#48BFAA" stroke-linecap="round" stroke-linejoin="round"/>
<path d="M6.01562 9.65613C6.01565 10.9935 7.01863 12.3309 9.35904 12.3309" stroke="#48BFAA" stroke-linecap="round" stroke-linejoin="round"/>
</svg>
