<svg width="14" height="14" viewBox="0 0 14 14" fill="none" xmlns="http://www.w3.org/2000/svg">
<path d="M1 7C1 4.17157 1 2.75736 1.87868 1.87868C2.75736 1 4.17157 1 7 1C9.82843 1 11.2426 1 12.1213 1.87868C13 2.75736 13 4.17157 13 7C13 9.82843 13 11.2426 12.1213 12.1213C11.2426 13 9.82843 13 7 13C4.17157 13 2.75736 13 1.87868 12.1213C1 11.2426 1 9.82843 1 7Z" stroke="#48BFAA"/>
<path d="M10 6.40002V5.80002C10 4.66865 10 4.10297 9.64853 3.7515C9.29706 3.40002 8.73137 3.40002 7.6 3.40002H6.4C5.26863 3.40002 4.70294 3.40002 4.35147 3.7515C4 4.10297 4 4.66865 4 5.80002V6.40002" stroke="#48BFAA"/>
<path d="M2.80078 6.40002H11.2008" stroke="#48BFAA" stroke-linecap="round"/>
<path d="M4.59961 9.40002H9.39961" stroke="#48BFAA" stroke-linecap="round"/>
</svg>
