<svg width="13" height="12" viewBox="0 0 13 12" fill="none" xmlns="http://www.w3.org/2000/svg">
<path d="M5.375 11H3.5M10.375 9.125H9.125M7.25012 4.125H3.00012C2.30006 4.125 1.94976 4.125 1.68237 4.26124C1.44717 4.38108 1.25608 4.57217 1.13624 4.80737C1 5.07476 1 5.42506 1 6.12512V7.12512C1 7.82519 1 8.17473 1.13624 8.44212C1.25608 8.67732 1.44717 8.86905 1.68237 8.98889C1.9495 9.125 2.29937 9.125 2.99807 9.125H7.25003M7.25012 4.125L7.25 9.00012C7.25 9.04305 7.25 9.08465 7.25003 9.125M7.25012 4.125L7.25 3.00012C7.25 2.30006 7.25 1.94976 7.38624 1.68237C7.50608 1.44717 7.69717 1.25608 7.93237 1.13624C8.19976 1 8.55006 1 9.25012 1H10.2501C10.9502 1 11.2997 1 11.5671 1.13624C11.8023 1.25608 11.9941 1.44717 12.1139 1.68237C12.25 1.9495 12.25 2.29937 12.25 2.99807V9.00193C12.25 9.70063 12.25 10.05 12.1139 10.3171C11.9941 10.5523 11.8023 10.744 11.5671 10.8639C11.3 11 10.9506 11 10.2519 11H9.24807C8.54937 11 8.1995 11 7.93237 10.8639C7.69717 10.744 7.50608 10.5523 7.38624 10.3171C7.25835 10.0661 7.25051 9.74274 7.25003 9.125M9.75122 2.875V2.87625L9.75 2.87622V2.875H9.75122Z" stroke="#48BFAA" stroke-linecap="round" stroke-linejoin="round"/>
</svg>
